<?xml version="1.0" encoding="utf-8"?>
<!-- Generator: Adobe Illustrator 26.0.1, SVG Export Plug-In . SVG Version: 6.00 Build 0)  -->
<svg version="1.1" id="Altice_x5F_Logo_x5F_pos_x5F_pr_x5F_rgb"
	 xmlns="http://www.w3.org/2000/svg" xmlns:xlink="http://www.w3.org/1999/xlink" x="0px" y="0px" viewBox="0 0 2057.6 759.6"
	 style="enable-background:new 0 0 2057.6 759.6;" xml:space="preserve">
<style type="text/css">
	.st0{clip-path:url(#SVGID_00000174569667451253179220000016491939346312347829_);}
</style>
<g>
	<path d="M1323.5,228.1c-1.6-7.2-2.5-15.9-2.5-26.6V5.3h-55.8V200c0,23.9,2.9,45,8.7,60.3c11.6,30.5,37.7,47,71,47
		c5.3,0,10.6-0.3,16.1-1v-50.1c-1.6,0.1-3.2,0.2-4.8,0.2C1339.3,256.3,1327.7,246.4,1323.5,228.1z"/>
	<path d="M1091.9,133.4c-34.2,0-58.9,25.3-58.9,61.9c0,36.7,24.7,61.9,58.9,61.9c34.2,0,58.9-25.3,58.9-61.9
		S1126.1,133.4,1091.9,133.4z M1229.6,307.3c-35.3,0-51.7-14-62.9-33.8c-14.8,19.7-40.2,34.3-78.2,34.3
		c-65.2,0-110.7-45.8-110.7-112.4c0-64.1,48.2-112.4,110.9-112.4c27.5,0,48.5,9.7,63.3,25.2V85.8h51.7v115.7
		c0,10.7,0.8,19.4,2.5,26.6c4.2,18.3,16,28.2,31.4,28.3c1.9,0,3.4-0.1,4.8-0.2v50.1C1238.2,306.8,1233.9,307.3,1229.6,307.3z"/>
	<path d="M1583.5,228.1c-1.6-7.2-2.5-15.9-2.5-26.6V85.4h-55.8V200c0,23.9,2.9,45,8.7,60.3c11.6,30.5,37.7,47,71,47
		c5.4,0,12.1-0.5,16.1-1v-50.1c-1.7,0.1-3.5,0.2-5.2,0.2C1599.2,256.2,1587.7,246.2,1583.5,228.1z"/>
	<path d="M1446.9,224.9c-1.6-7.5-2.3-18-2.3-33.9v-55.9h45.7V85.9h-45.7V32.6h-55.8v53.2h-25.5V135h25.5v64.3
		c0,14.9,1.3,29.9,3.5,40.2c9.4,44.6,38.8,67.9,83.6,67.9c6.6,0,14-0.6,18.2-1.2v-50.1c-2.7,0.2-5.3,0.4-8,0.4
		C1464,256.7,1451.5,246.5,1446.9,224.9z"/>
	<path d="M1553,63.7c17.5,0,31.8-14.3,31.8-31.9S1570.5-0.1,1553-0.1s-31.8,14.3-31.8,31.9C1521.3,49.4,1535.5,63.7,1553,63.7z"/>
	<path d="M2045.9,281.2c-23.2,21.4-54.6,29.8-87.9,29.8c-71.1,0-122.3-42.1-122.3-115c0-65.8,47.1-115,112.1-115
		c66.4,0,108.1,43.4,109.8,106.8c0.5,18-1.3,27.9-1.3,27.9h-164.8c4,28.5,30.5,46.4,66.5,46.4c21.9,0,39.7-6,54.7-17.7L2045.9,281.2
		z M2002.3,171.4c-4.6-26.8-25.3-43.5-54.9-43.5c-29.8,0-49.8,18.4-55,43.5H2002.3z"/>
	<path d="M1799.5,244.4c-13.9,10.8-30.5,15.9-46.9,15.9c-39.5,0-65.2-25.9-65.2-64.7c0-37.2,25.9-64.3,61.9-64.3
		c18.2,0,32.4,5.9,44.7,16.1l38.8-35.9c-23.7-22-50.6-30.7-83.9-30.7c-67,0-117,48.2-117,114.7c0,69,46.4,115.4,119.8,115.4
		c29.4,0,60.3-8,81.8-28.8L1799.5,244.4z"/>
</g>
<g>
	<defs>
		<path id="SVGID_1_" d="M545.9,718.3c83.7-41.4,146.9-111.7,180.8-192.8c26.1,42.2,54.8,82.2,88.2,117.1
			c35,36.6,71.9,63.6,112.5,82.9c45.7,21.7,95.4,32.6,149,32.6V598.7c-57.6,0-102.5-20.4-146.5-66.4
			c-45.3-47.4-82.6-114.6-122.1-185.6c-16.4-29.5-34-61.2-51.6-90.5l0-256.5H596.6v69.7c-18.7-13.3-40-26-61.4-35.8
			C487.3,11.6,434-0.1,376.6-0.2c-56.5-0.1-114,13.6-166.4,39.6c-26.7,13.3-51.1,29.4-73.4,47.9c-27.7,22.9-51.9,49.5-71.9,79.4
			c-18.5,27.6-33.8,58-44.8,90.5c-32.3,96-25.4,198.1,19.4,289.6C83.3,636.3,159.6,704,257,737.7C352.2,770.6,455.5,763,545.9,718.3
			z M596.5,379.5c-0.2,80.6-44.9,158-121.6,196.2v0c-108.1,53.7-239.5,9.2-293.1-99.2c-25.9-52.5-29.9-112-11.2-167.5
			s57.8-100.4,110.2-126.4c30.4-15.1,63.8-23.3,95.9-23.3c65.1,0,115.7,22.3,164.1,72.1c5.1,5.2,9.9,10.4,14.7,16.4
			c33.3,42,40.1,91.4,41.3,116L596.5,379.5z"/>
	</defs>
	<clipPath id="SVGID_00000002367976130971944260000008078538410347136908_">
		<use xlink:href="#SVGID_1_"  style="overflow:visible;"/>
	</clipPath>
	<g style="clip-path:url(#SVGID_00000002367976130971944260000008078538410347136908_);">
		<image style="overflow:visible;" width="161" height="380" xlink:href="741DAA4D.png"  transform="matrix(1 0 0 1 596 -0.4)">
		</image>
		<image style="overflow:visible;" width="282" height="641" xlink:href="741DAA53.png"  transform="matrix(1 0 0 1 474 77.6)">
		</image>
		<image style="overflow:visible;" width="1077" height="759" xlink:href="741DAA54.png"  transform="matrix(1 0 0 1 0 -0.4)">
		</image>
	</g>
</g>
</svg>
