<svg xmlns="http://www.w3.org/2000/svg" width="80" height="80" viewBox="0 0 80 80">
  <g id="Group_2813" data-name="Group 2813" transform="translate(-761 -1124)">
    <circle id="Ellipse_10" data-name="Ellipse 10" cx="40" cy="40" r="40" transform="translate(761 1124)" fill="#ff723b"/>
    <g id="Group_2289" data-name="Group 2289" transform="translate(520.797 742.957)">
      <path id="Path_8852" data-name="Path 8852" d="M256.105,479.176c.969-1.77,1.924-3.548,2.91-5.309,1.492-2.666,3-5.322,4.509-7.981a2.38,2.38,0,0,1,3.6-1.022q.989.543,1.974,1.093a2.41,2.41,0,0,1,1.277,3.239c.743.218,1.486.44,2.233.647a.325.325,0,0,0,.248-.084,5.914,5.914,0,0,1,3.5-1.2c1.559-.164,3.124-.267,4.685-.415a6.227,6.227,0,0,1,2.714.434c1.076.385,2.147.787,3.235,1.135a2.164,2.164,0,0,0,1.044.05c.668-.135,1.32-.355,1.847-.5a12.679,12.679,0,0,1,.013-1.606,2.036,2.036,0,0,1,1.087-1.512c.844-.481,1.691-.957,2.549-1.412a2.328,2.328,0,0,1,3.211.913c.477.81.933,1.632,1.389,2.455a.947.947,0,1,1-1.632.933c-.447-.773-.878-1.556-1.323-2.33-.256-.446-.423-.493-.876-.247-.743.4-1.477.826-2.222,1.226a.525.525,0,0,0-.242.842q3.558,6.277,7.1,12.564a.549.549,0,0,0,.853.256q1.129-.629,2.263-1.25a.532.532,0,0,0,.223-.853c-.5-.853-.978-1.715-1.46-2.576a.952.952,0,1,1,1.625-.939c.515.9,1.034,1.792,1.53,2.7a2.324,2.324,0,0,1-.936,3.273c-.734.42-1.478.824-2.219,1.232a2.4,2.4,0,0,1-3.552-.978c-.039-.067-.081-.132-.143-.234a3.964,3.964,0,0,0-1.61,1.158.338.338,0,0,0,0,.323,3.191,3.191,0,0,1-2.1,5.035c-.013,0-.023.02-.033.028-.213,2.118-.847,2.907-2.808,3.462a3.208,3.208,0,0,1-4.18,3.32,3.229,3.229,0,0,1-2.758,2.5c-1.465.211-2.438-.7-3.429-1.53-.87.695-1.69,1.4-2.561,2.035a3.147,3.147,0,0,1-4.918-1.753,9.264,9.264,0,0,1-.147-1.1,3.226,3.226,0,0,1-2.751-3.458c-2.026-.663-2.709-1.512-2.782-3.474-.122-.038-.252-.082-.385-.118a3.134,3.134,0,0,1-1.847-4.791c.194-.3.165-.476-.082-.664-.454-.346-.914-.685-1.4-1.045-.161.263-.263.438-.373.607a2.319,2.319,0,0,1-3.011.865c-.937-.47-1.844-1-2.758-1.519a2.743,2.743,0,0,1-1.088-1.473Zm13.289-8.294-5.125,9.069,2.292,1.786c.784-.625,1.615-1.314,2.474-1.965a3.154,3.154,0,0,1,4.914,1.437c.042.111.09.22.141.343a3.131,3.131,0,0,1,3.671.983,3.17,3.17,0,0,1,.144,3.817,3.218,3.218,0,0,1,1.686,2.083,3.321,3.321,0,0,1-.466,2.617,3.244,3.244,0,0,1,1.8,2.96.41.41,0,0,0,.141.275c.5.406.984.831,1.517,1.187a1.271,1.271,0,0,0,1.447-2.087c-.447-.37-.912-.718-1.35-1.1a.915.915,0,0,1-.216-1.153.894.894,0,0,1,1.035-.459,1.794,1.794,0,0,1,.563.324c.8.629,1.592,1.272,2.391,1.905a1.292,1.292,0,1,0,1.62-1.986c-.146-.119-.294-.235-.44-.353-.722-.578-1.454-1.144-2.161-1.74a.9.9,0,0,1-.137-1.3.925.925,0,0,1,1.3-.154c.18.124.346.269.518.406.749.595,1.481,1.212,2.25,1.78a1.264,1.264,0,0,0,2.047-.886,1.331,1.331,0,0,0-.584-1.213c-.787-.622-1.578-1.24-2.349-1.882a.927.927,0,0,1,.193-1.638,1,1,0,0,1,1.045.224c.78.631,1.56,1.263,2.354,1.876a1.281,1.281,0,1,0,1.565-2.021c-1.122-.907-2.235-1.826-3.384-2.7q-3.279-2.484-6.6-4.913a5.5,5.5,0,0,0-4.318-1.013,14.118,14.118,0,0,1-2.236.267c-2.78.023-4.537-1.494-4.958-3.759a.538.538,0,0,0-.336-.308C271.051,471.349,270.251,471.129,269.394,470.882Zm21.623.018c-.865.243-1.666.461-2.462.694a3.381,3.381,0,0,1-2.209-.094c-1.143-.429-2.292-.845-3.456-1.211a4.642,4.642,0,0,0-1.606-.254c-1.627.091-3.252.243-4.872.417a8.754,8.754,0,0,0-1.781.4c-.616.2-.7.466-.5,1.092a2.468,2.468,0,0,0,1.757,1.679,4.753,4.753,0,0,0,2.421.042,8.028,8.028,0,0,1,6.885,1.476c1.219.908,2.472,1.772,3.68,2.695,1.692,1.293,3.357,2.622,4.981,3.893l2.283-1.772Zm-29.972,10.611a2.482,2.482,0,0,0,.42-.441q3.548-6.251,7.078-12.511c.266-.47.216-.634-.263-.9q-1.086-.609-2.18-1.2c-.451-.244-.622-.2-.876.251q-3.553,6.275-7.1,12.55a.532.532,0,0,0,.244.846c.743.4,1.479.819,2.221,1.225A4.73,4.73,0,0,0,261.046,481.511Zm15.529,3.2a1.345,1.345,0,0,0-.712-1.357,1.212,1.212,0,0,0-1.368.153c-1.681,1.335-3.362,2.669-5.032,4.019a1.276,1.276,0,1,0,1.583,2c1.687-1.327,3.369-2.661,5.025-4.027A2.583,2.583,0,0,0,276.574,484.714Zm1.231,4.712a1.354,1.354,0,0,0-.7-1.352,1.234,1.234,0,0,0-1.406.164c-1.153.914-2.306,1.827-3.448,2.755a1.276,1.276,0,1,0,1.564,2.016c1.174-.913,2.341-1.834,3.477-2.793A2.793,2.793,0,0,0,277.805,489.426Zm-10.237-3.071a1.646,1.646,0,0,0,.559-.209c1.259-.98,2.514-1.966,3.737-2.99a1.26,1.26,0,0,0-1.559-1.963q-1.921,1.466-3.773,3.02a1.123,1.123,0,0,0-.253,1.382A1.276,1.276,0,0,0,267.568,486.355Zm11.471,7.764a1.372,1.372,0,0,0-.674-1.313,1.189,1.189,0,0,0-1.369.1c-.684.524-1.363,1.056-2.021,1.612a1.272,1.272,0,0,0,1.6,1.977c.674-.511,1.348-1.028,1.973-1.6A2.9,2.9,0,0,0,279.039,494.119Z" transform="translate(0 -56.439)" fill="#fff"/>
      <path id="Path_8853" data-name="Path 8853" d="M440.236,403.2c0-.753,0-1.505,0-2.258a.947.947,0,1,1,1.879-.023q.01,2.282,0,4.563a.954.954,0,0,1-.951,1.056.97.97,0,0,1-.928-1.079C440.231,404.708,440.236,403.955,440.236,403.2Z" transform="translate(-160.975)" fill="#fff"/>
      <path id="Path_8854" data-name="Path 8854" d="M374.841,426.948a.943.943,0,0,1-.664.984.878.878,0,0,1-1.062-.394c-.364-.548-.706-1.111-1.058-1.668-.46-.729-.924-1.456-1.378-2.189a.947.947,0,1,1,1.576-1.022q1.2,1.883,2.378,3.781A2.726,2.726,0,0,1,374.841,426.948Z" transform="translate(-99.984 -19.454)" fill="#fff"/>
      <path id="Path_8855" data-name="Path 8855" d="M490.318,426.9a2.434,2.434,0,0,1,.188-.446q1.178-1.9,2.376-3.782a.947.947,0,1,1,1.6.991q-1.193,1.915-2.4,3.82a.921.921,0,0,1-1.085.454A.962.962,0,0,1,490.318,426.9Z" transform="translate(-204.761 -19.449)" fill="#fff"/>
      <path id="Path_8856" data-name="Path 8856" d="M593.476,521.063a.912.912,0,0,1,.929-.918.925.925,0,0,1,.936.917.941.941,0,0,1-.959.948A.926.926,0,0,1,593.476,521.063Z" transform="translate(-294.946 -105.153)" fill="#fff"/>
    </g>
  </g>
</svg>
