<svg id="Group_1873" data-name="Group 1873" xmlns="http://www.w3.org/2000/svg" width="29.611" height="35.523" viewBox="0 0 29.611 35.523">
  <path id="Path_8517" data-name="Path 8517" d="M-117.873-13.158q-2.847-1.973-5.695-3.946-3.724-2.573-7.456-5.133a.825.825,0,0,1-.405-.768q.017-6.758.008-13.517a1.918,1.918,0,0,1,.009-.311.346.346,0,0,1,.514-.28,1.871,1.871,0,0,1,.293.184q6.4,4.409,12.8,8.814a.881.881,0,0,1,.439.82c-.013,4.506-.005,9.011-.017,13.517a2.114,2.114,0,0,1-.207.621Z" transform="translate(131.429 48.681)" fill="#396ab3"/>
  <path id="Path_8518" data-name="Path 8518" d="M7.542-12.848a1.74,1.74,0,0,1-.207-.552c-.012-4.575-.007-9.15-.014-13.725a.658.658,0,0,1,.323-.6q6.5-4.474,13-8.949a.635.635,0,0,1,.523-.108.652.652,0,0,1,.2.5c.01,4.552.006,9.1.013,13.655a.713.713,0,0,1-.347.658Q14.437-17.442,7.858-12.9a.192.192,0,0,0-.038.054Z" transform="translate(8.237 48.371)" fill="#396ab3"/>
  <path id="Path_8519" data-name="Path 8519" d="M-46.214-139.954c.145.082.3.155.44.251q5.34,3.678,10.677,7.361,1.256.866,2.511,1.733c.427.3.431.526.012.815q-2.81,1.941-5.622,3.88a.54.54,0,0,1-.719,0q-6.465-4.729-12.939-9.447c-.372-.271-.375-.5,0-.759q2.651-1.836,5.309-3.662A3.16,3.16,0,0,1-46.214-139.954Z" transform="translate(61.026 139.954)" fill="#396ab3"/>
  <path id="Path_8520" data-name="Path 8520" d="M-117.539-92.889c.144.09.285.167.413.261q5.592,4.078,11.183,8.16c.56.409,1.123.815,1.681,1.228.367.272.369.5,0,.759-1.759,1.217-3.523,2.428-5.281,3.647a.541.541,0,0,1-.695,0q-6.666-4.6-13.336-9.2c-.369-.254-.368-.5,0-.755q2.853-1.973,5.712-3.938A2.818,2.818,0,0,1-117.539-92.889Z" transform="translate(124.7 98.166)" fill="#396ab3"/>
</svg>
