<svg id="cable" xmlns="http://www.w3.org/2000/svg" width="100.595" height="100.595" viewBox="0 0 100.595 100.595">
  <g id="Group_2293" data-name="Group 2293" opacity="0.2">
    <path id="Path_8863" data-name="Path 8863" d="M0,50.3a50.3,50.3,0,1,1,50.3,50.3A50.3,50.3,0,0,1,0,50.3Z" fill="#9ec5fd"/>
  </g>
  <g id="Group_2297" data-name="Group 2297" transform="translate(29.264 21.033)">
    <g id="Group_2294" data-name="Group 2294">
      <path id="Path_8864" data-name="Path 8864" d="M52.823,62.927a19.105,19.105,0,1,1,19.1-19.1,19.128,19.128,0,0,1-19.1,19.1ZM35.987,79.879H33.717V74.426h2.27Zm33.671-5.453h2.27v5.453h-2.27Zm3.128-17.741a.86.86,0,0,0,.86-.86v-12a20.823,20.823,0,1,0-41.645,0V64.238a.859.859,0,0,0,1.717,0V52.1a20.844,20.844,0,0,0,2.27,3.963v16.65h-2.27V67.67a.858.858,0,1,0-1.717,0V80.737a.858.858,0,0,0,.859.858h3.987a.858.858,0,0,0,.858-.858V58.123a20.789,20.789,0,0,0,30.238,0V80.737a.858.858,0,0,0,.858.858h3.987a.858.858,0,0,0,.858-.858V59.259a.86.86,0,0,0-1.717,0v13.45h-2.27V56.164c0-.034,0-.066-.005-.1a20.85,20.85,0,0,0,2.275-3.97v3.728a.859.859,0,0,0,.858.86Z" transform="translate(-32 -23)" fill="#396ab3"/>
    </g>
    <g id="Group_2295" data-name="Group 2295" transform="translate(3.987 3.986)">
      <path id="Path_8865" data-name="Path 8865" d="M53.2,59.312A15.118,15.118,0,1,1,68.314,44.195,15.135,15.135,0,0,1,53.2,59.312Zm0-31.953A16.836,16.836,0,1,0,70.031,44.195,16.854,16.854,0,0,0,53.2,27.359Z" transform="translate(-36.36 -27.359)" fill="#396ab3"/>
    </g>
    <g id="Group_2296" data-name="Group 2296" transform="translate(7.961 7.96)">
      <path id="Path_8866" data-name="Path 8866" d="M53.567,55.711A11.145,11.145,0,1,1,64.711,44.566,11.159,11.159,0,0,1,53.567,55.711Zm0-24.007A12.862,12.862,0,1,0,66.428,44.566,12.877,12.877,0,0,0,53.567,31.7Z" transform="translate(-40.705 -31.704)" fill="#396ab3"/>
    </g>
  </g>
</svg>
