<svg id="Group_1878" data-name="Group 1878" xmlns="http://www.w3.org/2000/svg" width="40.334" height="40.353" viewBox="0 0 40.334 40.353">
  <path id="Path_8521" data-name="Path 8521" d="M145.766,99.808v1.1a5.416,5.416,0,0,0-.084.579,16.772,16.772,0,0,1-.919,5.01c-2.784,7.786-8.237,12.433-16.422,13.8a18.3,18.3,0,0,1-6.809-.2,20.147,20.147,0,0,1-8.874-35.182,19.631,19.631,0,0,1,10.733-4.57c.545-.059,1.092-.113,1.637-.169h1.1l.735.095c.922.116,1.857.169,2.763.36a20.146,20.146,0,0,1,15.962,17.5C145.655,98.69,145.708,99.25,145.766,99.808Zm-24.221,1.368v.568q0,6.069,0,12.137c0,.516,0,.517.527.518,1.511,0,3.022-.013,4.532.009.406.006.5-.123.5-.516-.014-4.059-.009-8.118-.009-12.177v-.539h.477c.92,0,1.839-.01,2.759.006.29,0,.378-.091.4-.378.076-.914.191-1.825.283-2.737.052-.515.091-1.032.139-1.591H127.1c0-.931,0-1.808,0-2.686a1.068,1.068,0,0,1,1.2-1.216q1.261-.008,2.522,0c.229,0,.372-.039.37-.319-.009-1.327-.006-2.653,0-3.98,0-.218-.09-.309-.305-.306-1.614.025-3.234-.027-4.842.089a4.731,4.731,0,0,0-4.291,3.837,19.54,19.54,0,0,0-.212,3.921c0,.206,0,.411,0,.658-.76,0-1.467.014-2.172-.006-.326-.01-.434.1-.43.423.015,1.287.018,2.575,0,3.862-.006.363.128.441.459.43C120.093,101.161,120.787,101.176,121.545,101.176Z" transform="translate(-105.432 -80.175)" fill="#396ab3"/>
</svg>
