<svg id="Group_1872" data-name="Group 1872" xmlns="http://www.w3.org/2000/svg" width="26.237" height="32.442" viewBox="0 0 26.237 32.442">
  <path id="Path_8515" data-name="Path 8515" d="M-233.306-363.124c0,2.05.026,4.1-.007,6.15a12.7,12.7,0,0,1-1.371,5.76,9.453,9.453,0,0,1-2.745,3.2q-4.114,3.1-8.217,6.214a1.021,1.021,0,0,1-1.514-.006c-2.668-2.016-5.313-4.062-8.009-6.041a10.114,10.114,0,0,1-4.08-6.749,19.483,19.483,0,0,1-.267-3.089c-.03-4-.013-8-.012-12,0-.9.515-1.289,1.389-1.057a10.568,10.568,0,0,0,8.686-1.459c.618-.391,1.218-.811,1.827-1.215a1.747,1.747,0,0,1,2.435-.006c.925.6,1.834,1.231,2.8,1.761a10.157,10.157,0,0,0,7.745.911c.836-.221,1.349.169,1.35,1.029q0,3.295,0,6.589Zm-9.673-.7c-.171-.094-.278-.152-.384-.212-.831-.472-1.664-.943-2.492-1.419a.984.984,0,0,0-1.056-.027q-3.242,1.909-6.48,3.825a.935.935,0,0,0-.355,1.316.952.952,0,0,0,1.327.311c.213-.117.421-.242.686-.394v.461c0,1.757,0,3.513,0,5.27a.986.986,0,0,0,1.116,1.126q4.206,0,8.411,0a.986.986,0,0,0,1.121-1.118q0-2.719,0-5.439v-.42c.235.133.427.242.619.35a.97.97,0,0,0,1.407-.3.957.957,0,0,0-.444-1.341c-.417-.246-.835-.49-1.263-.714a.511.511,0,0,1-.327-.545,13.729,13.729,0,0,0,0-1.418.926.926,0,0,0-.953-.9.927.927,0,0,0-.933.916C-242.986-364.293-242.978-364.091-242.978-363.824Z" transform="translate(259.533 373.906)" fill="#396ab3"/>
  <path id="Path_8516" data-name="Path 8516" d="M45.252-46.108H38.428v-.351c0-1.8,0-3.6,0-5.4a.474.474,0,0,1,.271-.479c.985-.566,1.957-1.154,2.943-1.719a.5.5,0,0,1,.412-.019q1.507.831,2.99,1.7a.5.5,0,0,1,.224.351c.014,1.9.01,3.806.009,5.709C45.272-46.253,45.26-46.188,45.252-46.108Z" transform="translate(-28.721 64.53)" fill="#396ab3"/>
</svg>
