<svg xmlns="http://www.w3.org/2000/svg" width="35.042" height="39.619" viewBox="0 0 35.042 39.619">
  <g id="Group_2094" data-name="Group 2094" transform="translate(0.518 0.509)">
    <path id="Path_8760" data-name="Path 8760" d="M398.923,881.792a1.574,1.574,0,0,0-.266-.593,2.451,2.451,0,0,0-.359-.427l-3.837-3.656a.773.773,0,0,1-.108-.426q.017-3.739.005-7.478a1.159,1.159,0,0,0-1.186-1.241q-2.3-.024-4.61,0a1.157,1.157,0,0,0-1.173,1.216c-.005.371,0,.743,0,1.214-1.282-1.219-2.491-2.37-3.7-3.519a1.2,1.2,0,0,0-1.9.006l-9.934,9.464q-2.352,2.241-4.7,4.482a1.932,1.932,0,0,0,1.341,3.4c.411,0,.823,0,1.234,0h1.394v.478q0,4.5,0,9a3.5,3.5,0,0,0,3.682,3.7c2.5,0,5.576,0,8.081,0a37.255,37.255,0,0,1-.173-10.66c.429-1.994,3.206-.622,3.706-1.872a2.864,2.864,0,0,1,3.111-2.131c1.807,0,3.519-.028,4.445-.037,1.6-.016,2.58-.114,3.125,1.45a1.9,1.9,0,0,0,1.74-1.215A1.856,1.856,0,0,0,398.923,881.792Z" transform="translate(-366.47 -866.418)" fill="#396ab3" stroke="#396ab3" stroke-width="1"/>
    <path id="Path_8761" data-name="Path 8761" d="M552.7,1068.277c-.642-.271-1.313-.488-1.921-.82a11.034,11.034,0,0,1-6.125-9.838c-.076-2.1-.016-4.21-.014-6.315a1.1,1.1,0,0,1,1.139-1.183,3.5,3.5,0,0,0,3.189-2.037,1.4,1.4,0,0,1,1.427-.876c1.778.028,3.557.016,5.336.005a1.214,1.214,0,0,1,1.211.744,3.6,3.6,0,0,0,3.333,2.168,1.071,1.071,0,0,1,1.065,1.106c.005,2.226.048,4.454-.013,6.678a11.245,11.245,0,0,1-7.686,10.218c-.122.041-.239.1-.358.151Zm-.763-10.007c-.419-.43-.814-.852-1.227-1.257a1.076,1.076,0,0,0-1.558-.044,1.1,1.1,0,0,0,.033,1.588q.968.982,1.95,1.95a1.087,1.087,0,0,0,1.666,0c1.33-1.322,2.658-2.645,3.972-3.982a1.424,1.424,0,0,0,.352-.652,1.017,1.017,0,0,0-.535-1.128,1.084,1.084,0,0,0-1.329.225c-1.006,1-2,2-3,3C552.169,1058.058,552.072,1058.146,551.941,1058.27Z" transform="translate(-527.336 -1029.667)" fill="#396ab3" stroke="#396ab3" stroke-width="1"/>
  </g>
</svg>
