<svg id="Group_1881" data-name="Group 1881" xmlns="http://www.w3.org/2000/svg" width="40.531" height="40.531" viewBox="0 0 40.531 40.531">
  <path id="Path_8524" data-name="Path 8524" d="M-86-130h2.533a2.249,2.249,0,0,0,.3.065,19.3,19.3,0,0,1,8.8,2.8,20,20,0,0,1,9.582,13.91c.137.736.209,1.484.311,2.226v2.533c-.033.26-.069.519-.1.779A19.925,19.925,0,0,1-69.01-96.966,19.948,19.948,0,0,1-81.2-89.783c-.749.136-1.508.211-2.263.314H-86c-.495-.061-.99-.114-1.484-.184A19.874,19.874,0,0,1-97.5-94.009a19.963,19.963,0,0,1-7.185-12.194c-.136-.749-.212-1.509-.315-2.265V-111c.032-.26.067-.519.1-.779A19.95,19.95,0,0,1-99.949-123.1a19.856,19.856,0,0,1,11.762-6.589C-87.462-129.821-86.73-129.9-86-130Zm-3.723,8.719a6.932,6.932,0,0,0-3.781,1.114A6.252,6.252,0,0,0-96.27-114.8c-.068,3.375-.043,6.752,0,10.128a6.657,6.657,0,0,0,1.108,3.7A6.26,6.26,0,0,0-89.8-98.2c3.375.069,6.753.059,10.128,0a6.385,6.385,0,0,0,4.809-2.058,6.669,6.669,0,0,0,1.67-4.5c.062-2.769.068-5.54.071-8.31a24.453,24.453,0,0,0-.141-2.448,6.112,6.112,0,0,0-5.709-5.688C-80.871-121.358-88.05-121.321-89.724-121.281Z" transform="translate(105 130)" fill="#396ab3"/>
  <path id="Path_8525" data-name="Path 8525" d="M35.655,25.159a4.048,4.048,0,0,1-4.146-4.165c-.1-3.53-.067-7.066,0-10.6a3.9,3.9,0,0,1,2.147-3.548,5.422,5.422,0,0,1,2.562-.577c3.322,0,6.646-.039,9.966.066a4,4,0,0,1,4.127,4.131q.14,5.276,0,10.557a4.073,4.073,0,0,1-4.1,4.135c-.881.063-1.765.086-2.648.1S37.4,25.264,35.655,25.159Zm11.228-9.425a5.972,5.972,0,1,0-5.982,5.98A5.961,5.961,0,0,0,46.883,15.733Zm1.632-6.2A1.39,1.39,0,1,0,47.1,10.919,1.385,1.385,0,0,0,48.515,9.533Z" transform="translate(-20.646 4.523)" fill="#396ab3"/>
  <path id="Path_8526" data-name="Path 8526" d="M105.888,77.012a3.878,3.878,0,1,1-3.873,3.873A3.883,3.883,0,0,1,105.888,77.012Z" transform="translate(-85.627 -60.624)" fill="#396ab3"/>
</svg>
