<svg xmlns="http://www.w3.org/2000/svg" width="35.359" height="27.126" viewBox="0 0 35.359 27.126">
  <g id="Group_2091" data-name="Group 2091" transform="translate(0.5 0.501)">
    <path id="Path_8753" data-name="Path 8753" d="M-106.251,459.591a4.543,4.543,0,0,1,1.7-2.569,22.283,22.283,0,0,1,12.971-5.857,22.509,22.509,0,0,1,18.641,6.485,3.192,3.192,0,0,1-.737,5.227,3.177,3.177,0,0,1-3.683-.609,16.9,16.9,0,0,0-4.545-3.225,16.334,16.334,0,0,0-9.234-1.489,16.42,16.42,0,0,0-9.636,4.706A3.182,3.182,0,0,1-106.084,461c-.06-.177-.112-.357-.167-.535Z" transform="translate(106.251 -451.031)" fill="#396ab3" stroke="#396ab3" stroke-width="1"/>
    <path id="Path_8754" data-name="Path 8754" d="M-18.177,560.932a12.9,12.9,0,0,1,8.926,3.777,3.131,3.131,0,0,1,.749,3.568,3.233,3.233,0,0,1-3.121,1.959,3.269,3.269,0,0,1-2.165-1.012,6.331,6.331,0,0,0-3.3-1.745,6.51,6.51,0,0,0-5.942,1.7,3.334,3.334,0,0,1-2.35,1.055,3.1,3.1,0,0,1-2.966-1.933,2.929,2.929,0,0,1,.548-3.393,12.185,12.185,0,0,1,4.554-3.056A13.559,13.559,0,0,1-18.177,560.932Z" transform="translate(35.614 -551.08)" fill="#396ab3" stroke="#396ab3" stroke-width="1"/>
    <path id="Path_8755" data-name="Path 8755" d="M55.99,674.22a3.2,3.2,0,1,1-3.214-3.186A3.208,3.208,0,0,1,55.99,674.22Z" transform="translate(-35.619 -651.312)" fill="#396ab3" stroke="#396ab3" stroke-width="1"/>
  </g>
</svg>
