<svg xmlns="http://www.w3.org/2000/svg" width="25.252" height="41.322" viewBox="0 0 25.252 41.322">
  <g id="Group_2095" data-name="Group 2095" transform="translate(0.498 0.494)">
    <path id="Path_8762" data-name="Path 8762" d="M1093.666,273.17a11.092,11.092,0,0,1-1.842-.638,4.911,4.911,0,0,1-2.638-4.281c-.005-.092,0-.184,0-.276q0-14.96,0-29.921a4.847,4.847,0,0,1,2.972-4.734,5.169,5.169,0,0,1,2.05-.449c4.724-.038,9.449-.035,14.173-.015a5,5,0,0,1,5.042,5.059c.021,1.981,0,3.963,0,5.945q0,12.047,0,24.094a5.032,5.032,0,0,1-3.96,5.1c-.149.035-.3.078-.445.118Zm-2.174-10.279h19.62V239.623h-19.62Zm12.114,4.718a2.251,2.251,0,0,0-2.277-2.264,2.286,2.286,0,1,0,2.277,2.264Z" transform="translate(-1089.18 -232.843)" fill="#396ab3" stroke="#396ab3" stroke-width="1"/>
  </g>
</svg>
