<svg xmlns="http://www.w3.org/2000/svg" width="35.106" height="35.086" viewBox="0 0 35.106 35.086">
  <g id="Group_2093" data-name="Group 2093" transform="translate(0.5 0.563)">
    <path id="Path_8757" data-name="Path 8757" d="M867.746,456.052c.052-.246.093-.495.156-.738a3.84,3.84,0,0,1,.983-1.782c.89-.9,1.779-1.793,2.684-2.673a2.313,2.313,0,0,1,2.656-.658,3.226,3.226,0,0,1,.984.657c1.347,1.316,2.674,2.653,4,3.993a2.479,2.479,0,0,1,.837,2.175,2.9,2.9,0,0,1-.927,1.611c-.75.753-1.507,1.5-2.26,2.252-.388.387-.4.49-.171.992a18.935,18.935,0,0,0,3.577,5.042,23.232,23.232,0,0,0,4.7,3.983c.6.375,1.243.676,1.865,1.012a.547.547,0,0,0,.708-.172c.78-.786,1.55-1.584,2.352-2.347a4.064,4.064,0,0,1,1.07-.766,2.164,2.164,0,0,1,2.28.311,4.332,4.332,0,0,1,.5.436c1.272,1.266,2.55,2.526,3.8,3.81a3.947,3.947,0,0,1,.768,1.068,2.062,2.062,0,0,1-.368,2.353c-.982,1.081-2.021,2.113-3.07,3.129a3.843,3.843,0,0,1-2.112.97c-.1.016-.191.046-.287.07h-1.263c-.073-.019-.146-.042-.22-.058a29.036,29.036,0,0,1-2.848-.608,27.493,27.493,0,0,1-7.54-3.918,34.525,34.525,0,0,1-10.164-11.247,23.194,23.194,0,0,1-2.266-5.366c-.185-.679-.288-1.38-.428-2.071Z" transform="translate(-867.746 -446.759)" fill="#396ab3" stroke="#396ab3" stroke-width="1"/>
    <path id="Path_8758" data-name="Path 8758" d="M1050.925,415.412a19.49,19.49,0,0,1,16.466,15.955l-2.543.441c-1.8-7.662-6.527-12.263-14.279-13.841Z" transform="translate(-1033.365 -415.412)" fill="#396ab3" stroke="#396ab3" stroke-width="1"/>
    <path id="Path_8759" data-name="Path 8759" d="M1046.76,490.446c.127-.9.247-1.749.367-2.6a11.67,11.67,0,0,1,9.908,9.593l-2.6.447a9.092,9.092,0,0,0-7.679-7.442Z" transform="translate(-1029.914 -481.031)" fill="#396ab3" stroke="#396ab3" stroke-width="1"/>
  </g>
</svg>
