<svg xmlns="http://www.w3.org/2000/svg" width="80" height="80" viewBox="0 0 80 80">
  <g id="Group_2812" data-name="Group 2812" transform="translate(-442 -1124)">
    <circle id="Ellipse_9" data-name="Ellipse 9" cx="40" cy="40" r="40" transform="translate(442 1124)" fill="#ff723b"/>
    <g id="Group_2288" data-name="Group 2288" transform="translate(230.795 737.758)">
      <path id="Path_8848" data-name="Path 8848" d="M229.749,423.759c.106-.762.189-1.528.323-2.285a19.951,19.951,0,0,1,16.8-16.209,19.925,19.925,0,0,1,21.252,12.157,20.336,20.336,0,0,1,1.308,4.809,1.657,1.657,0,1,1-3.277.479,15.452,15.452,0,0,0-1.171-4.2,16.224,16.224,0,0,0-12.575-9.876,16.6,16.6,0,0,0-8.073,32.093c.951.312,1.946.49,2.918.738a1.65,1.65,0,0,1,.559,2.96,1.689,1.689,0,0,1-1.384.248,19.733,19.733,0,0,1-15.589-13.192,17.483,17.483,0,0,1-1.023-4.918,2.252,2.252,0,0,0-.069-.319Z" fill="#fff"/>
      <path id="Path_8849" data-name="Path 8849" d="M422.5,608.542a27.934,27.934,0,0,1-2.8-.655,11.151,11.151,0,0,1,1.877-21.526,11.015,11.015,0,0,1,4.749.24,1.649,1.649,0,1,1-.846,3.186,7.861,7.861,0,1,0,5.621,9.194,1.66,1.66,0,1,1,3.287.438,11.168,11.168,0,0,1-9.746,9.05,2.54,2.54,0,0,0-.319.074Z" transform="translate(-162.306 -161.124)" fill="#fff"/>
      <path id="Path_8850" data-name="Path 8850" d="M349.214,466.749c0,2-.006,4,0,6a1.894,1.894,0,0,1-.566,1.412q-2.981,3.013-5.957,6.032a1.659,1.659,0,0,1-2.907-1.2,1.841,1.841,0,0,1,.6-1.186c1.747-1.762,3.485-3.533,5.234-5.292a.88.88,0,0,0,.286-.683q-.014-5.583,0-11.166a1.655,1.655,0,1,1,3.306,0Q349.218,463.709,349.214,466.749Z" transform="translate(-97.875 -47.904)" fill="#fff"/>
      <path id="Path_8851" data-name="Path 8851" d="M473.521,630.271a6.506,6.506,0,0,1,.467-.589q3.139-3.119,6.286-6.231a1.692,1.692,0,0,1,1.6-.558,1.653,1.653,0,0,1,.832,2.8c-.942.949-1.9,1.883-2.849,2.824q-2.116,2.1-4.232,4.19a2.907,2.907,0,0,1-4.361-.018q-1.085-1.079-2.164-2.164a1.665,1.665,0,1,1,2.352-2.329C472.109,628.851,472.758,629.507,473.521,630.271Z" transform="translate(-212.357 -193.722)" fill="#fff"/>
    </g>
  </g>
</svg>
