<svg id="satelliteantena" xmlns="http://www.w3.org/2000/svg" width="100.595" height="100.595" viewBox="0 0 100.595 100.595">
  <g id="Group_2300" data-name="Group 2300" opacity="0.2">
    <path id="Path_8869" data-name="Path 8869" d="M0,50.3a50.3,50.3,0,1,1,50.3,50.3A50.3,50.3,0,0,1,0,50.3Z" fill="#9ec5fd"/>
  </g>
  <g id="Group_2306" data-name="Group 2306" transform="translate(27.435 21.034)">
    <g id="Group_2301" data-name="Group 2301" transform="translate(31.2)">
      <path id="Path_8870" data-name="Path 8870" d="M77.271,27.708A16.275,16.275,0,0,0,64.9,23.016a.85.85,0,0,0,.072,1.7A14.42,14.42,0,0,1,80.265,40.008a.85.85,0,1,0,1.7.072,16.285,16.285,0,0,0-4.691-12.373Z" transform="translate(-64.117 -23)" fill="#396ab3"/>
    </g>
    <g id="Group_2302" data-name="Group 2302" transform="translate(30.955 4.28)">
      <path id="Path_8871" data-name="Path 8871" d="M64.7,27.693a.85.85,0,1,0,.071,1.7,10.553,10.553,0,0,1,11.2,11.2.85.85,0,0,0,.814.884l.037,0a.849.849,0,0,0,.848-.814A12.254,12.254,0,0,0,64.7,27.693Z" transform="translate(-63.849 -27.681)" fill="#396ab3"/>
    </g>
    <g id="Group_2303" data-name="Group 2303" transform="translate(30.775 8.56)">
      <path id="Path_8872" data-name="Path 8872" d="M72.486,42.054h.037a.85.85,0,0,0,.849-.814A8.387,8.387,0,0,0,64.5,32.369a.85.85,0,1,0,.072,1.7,6.689,6.689,0,0,1,7.1,7.1.85.85,0,0,0,.814.885Z" transform="translate(-63.652 -32.361)" fill="#396ab3"/>
    </g>
    <g id="Group_2304" data-name="Group 2304" transform="translate(0 44.559)">
      <path id="Path_8873" data-name="Path 8873" d="M32.265,83.493a.567.567,0,0,1-.565-.565,3.118,3.118,0,0,1,3.115-3.115H56.327a3.118,3.118,0,0,1,3.115,3.115.567.567,0,0,1-.566.565Zm24.063-5.38H53.184l-.46-1.659a.85.85,0,0,0-1.639.454l.335,1.2h-11.7l1.482-5.352a.85.85,0,0,0-1.637-.454l-1.61,5.806H34.816A4.82,4.82,0,0,0,30,82.928a2.268,2.268,0,0,0,2.265,2.265H58.877a2.268,2.268,0,0,0,2.265-2.265,4.819,4.819,0,0,0-4.815-4.815Z" transform="translate(-30 -71.726)" fill="#396ab3"/>
    </g>
    <g id="Group_2305" data-name="Group 2305" transform="translate(1.619 8.223)">
      <path id="Path_8874" data-name="Path 8874" d="M69.1,64.074A21.424,21.424,0,0,1,38.856,33.832a.405.405,0,0,1,.3-.137h.011a.407.407,0,0,1,.292.119L69.116,63.477a.412.412,0,0,1-.018.6ZM59,42a3.706,3.706,0,0,0,.251.482l-4.365,4.365-4.128-4.128Zm1.454,1.685a3.643,3.643,0,0,0,.482.251l-.72,8.241-4.128-4.128Zm1.93-5.11a1.979,1.979,0,1,1-1.98,1.978,1.981,1.981,0,0,1,1.98-1.978Zm-.6,15.172.83-9.522a3.679,3.679,0,1,0-3.906-3.9l-9.522.829-8.532-8.532a2.109,2.109,0,0,0-3.072.091A23.124,23.124,0,0,0,70.227,65.345a2.11,2.11,0,0,0,.091-3.07Z" transform="translate(-31.77 -31.992)" fill="#396ab3"/>
    </g>
  </g>
</svg>
