<svg xmlns="http://www.w3.org/2000/svg" width="1920" height="30" viewBox="0 0 1920 30">
  <path id="Path_9281" data-name="Path 9281" d="M809.967,1.78c43.388-.686,98.87.11,144.945,1.454,45.307,1.344,136.114,6.446,192.941,9.792,145.521,8.832,256.678,12.206,369.755,13.632,45.307.576,93.495.96,198.508-.686S1920,18.95,1920,18.95V31.529H0V8.308s138.226,8.942,304.1,8.366c75.256-.192,178.158-1.838,257.254-6.144,40.7-2.222,100.214-4.992,153.009-6.638C766.579,2.164,790.193,2.054,809.967,1.78Z" transform="translate(1920 31.529) rotate(180)" fill="#396ab3"/>
</svg>
