<svg xmlns="http://www.w3.org/2000/svg" width="35.697" height="35.696" viewBox="0 0 35.697 35.696">
  <g id="Group_2109" data-name="Group 2109" transform="translate(-96.637 -336.647)">
    <path id="Path_8765" data-name="Path 8765" d="M124.6,372.46a14.068,14.068,0,0,1-1.756-.4,7.062,7.062,0,0,1-4.828-5.471,7.678,7.678,0,0,1,.145-3.453.751.751,0,0,0-.236-.813q-5.521-5.5-11.014-11.023a.723.723,0,0,0-.784-.229,7.5,7.5,0,0,1-4.062.009,7.12,7.12,0,0,1-5.139-5.681,6.833,6.833,0,0,1,.1-3.071,1.044,1.044,0,0,1,1.836-.538c.889.869,1.758,1.759,2.641,2.634a2.115,2.115,0,0,0,2.547.476,2.045,2.045,0,0,0,.673-3.116c-.642-.747-1.374-1.417-2.067-2.121-.277-.281-.565-.553-.836-.84a1.047,1.047,0,0,1,.549-1.837,7.054,7.054,0,0,1,7.509,2.617,6.766,6.766,0,0,1,1.355,5.94,1.644,1.644,0,0,0,.539,1.785c3.56,3.506,7.081,7.052,10.6,10.6a.7.7,0,0,0,.756.218,7.517,7.517,0,0,1,4.592.152,7.156,7.156,0,0,1,4.61,5.431c.061.281.1.566.146.85v1.046c-.074.409-.143.819-.223,1.228a1.059,1.059,0,0,1-.739.887,1.045,1.045,0,0,1-1.109-.313c-.363-.36-.721-.724-1.085-1.083-.62-.611-1.213-1.255-1.874-1.819a2.056,2.056,0,0,0-2.849.284,2.082,2.082,0,0,0,.193,2.918c.872.885,1.754,1.761,2.635,2.638a1.067,1.067,0,0,1,.344,1.1,1.079,1.079,0,0,1-.936.776l-1.19.217Z" transform="translate(-0.145 -0.117)" fill="#396ab3"/>
    <path id="Path_8766" data-name="Path 8766" d="M100.329,566.816a5.106,5.106,0,0,1-2.005-.825,4.177,4.177,0,0,1-.611-6.151c.3-.326.615-.633.927-.945q4.434-4.436,8.868-8.872a3.371,3.371,0,0,0,.241-.3l6,6a1.589,1.589,0,0,0-.3.2c-2.976,2.97-5.961,5.932-8.915,8.924a5.707,5.707,0,0,1-3.225,1.968Zm1.884-4.165c.209.014.477-.2.73-.452q3.016-3.02,6.034-6.037a2.3,2.3,0,0,0,.276-.313,1.032,1.032,0,0,0-.615-1.6,1.1,1.1,0,0,0-1.092.38q-3.065,3.069-6.131,6.136a1.575,1.575,0,0,0-.227.263,1,1,0,0,0-.052,1.058A1.1,1.1,0,0,0,102.213,562.651Z" transform="translate(0 -194.473)" fill="#396ab3"/>
    <path id="Path_8767" data-name="Path 8767" d="M342.026,339.71c-1.154,1.946-2.3,3.9-3.467,5.834a1.023,1.023,0,0,1-1.664.208,8.551,8.551,0,0,1-.584-.68l-6.971,7.056-2.947-2.936,6.965-7.046a4.37,4.37,0,0,1-.433-.359,1.039,1.039,0,0,1,.212-1.691c.648-.408,1.312-.792,1.969-1.186q1.672-1,3.345-2.005a1.119,1.119,0,0,1,1.618.2c.462.458.934.908,1.375,1.385a7.793,7.793,0,0,1,.581.806Z" transform="translate(-209.692)" fill="#396ab3"/>
  </g>
</svg>
