<svg xmlns="http://www.w3.org/2000/svg" width="80" height="80" viewBox="0 0 80 80">
  <g id="Group_2814" data-name="Group 2814" transform="translate(-1396 -1124)">
    <circle id="Ellipse_12" data-name="Ellipse 12" cx="40" cy="40" r="40" transform="translate(1396 1124)" fill="#ff723b"/>
    <g id="Group_2291" data-name="Group 2291" transform="translate(1182.139 734.948)">
      <path id="Path_8859" data-name="Path 8859" d="M229.749,440.077a4.955,4.955,0,0,1,1.45-2.086c1.512-1.483,3-3,4.5-4.484a.5.5,0,0,0,.124-.682,19.767,19.767,0,1,1,37.323-12.41,19.044,19.044,0,0,1-1.263,12.406.506.506,0,0,0,.123.683q2.48,2.447,4.932,4.922a2.828,2.828,0,0,1-1.23,4.964c-1.8.552-3.593,1.107-5.4,1.642a.627.627,0,0,0-.489.484c-.487,1.653-1.037,3.289-1.481,4.953a3.373,3.373,0,0,1-2.436,2.7h-.942a4.226,4.226,0,0,1-2.024-1.293c-2.372-2.4-4.766-4.772-7.144-7.163a.828.828,0,0,0-.7-.262c-.813.034-1.63.041-2.443,0a.916.916,0,0,0-.78.292c-2.365,2.381-4.749,4.744-7.11,7.13a4.213,4.213,0,0,1-2.025,1.292H241.8a3.4,3.4,0,0,1-2.449-2.743c-.43-1.635-.976-3.239-1.451-4.863a.712.712,0,0,0-.548-.551c-1.8-.532-3.6-1.091-5.4-1.628a2.82,2.82,0,0,1-1.675-1.135,9.378,9.378,0,0,1-.534-1.134Zm7.139-15.313a16.964,16.964,0,1,0,17.018-16.988A16.977,16.977,0,0,0,236.888,424.764Zm5.385,25.48,6.421-6.419a19.912,19.912,0,0,1-11.213-8.01l-4.806,4.808c.086.033.2.082.309.116,1.768.537,3.53,1.091,5.306,1.6a3.044,3.044,0,0,1,2.275,2.268c.064.242.14.481.212.721C241.277,446.976,241.779,448.622,242.273,450.244Zm16.818-6.435,6.364,6.368c.012-.035.05-.137.082-.241q.842-2.763,1.683-5.526a2.829,2.829,0,0,1,2.008-1.992c1.828-.552,3.654-1.114,5.48-1.673.124-.038.243-.092.329-.124l-4.8-4.809A19.9,19.9,0,0,1,259.091,443.809Z" transform="translate(0 0)" fill="#fff"/>
      <path id="Path_8860" data-name="Path 8860" d="M309.057,464.034a14.128,14.128,0,1,1,14.182,14.178A14.167,14.167,0,0,1,309.057,464.034Zm2.827.171a11.3,11.3,0,1,0,11.261-11.416A11.293,11.293,0,0,0,311.884,464.2Z" transform="translate(-69.33 -39.363)" fill="#fff"/>
      <path id="Path_8861" data-name="Path 8861" d="M374.07,534.639l5.658-4.2c.189-.14.373-.287.568-.419a1.421,1.421,0,0,1,1.971.289,1.4,1.4,0,0,1-.291,1.969c-1.448,1.1-2.914,2.174-4.373,3.258-.906.673-1.809,1.348-2.719,2.016a1.444,1.444,0,0,1-2.133-.191q-1.406-1.486-2.8-2.984A1.417,1.417,0,1,1,372,532.44C372.684,533.154,373.355,533.877,374.07,534.639Z" transform="translate(-122.152 -109.112)" fill="#fff"/>
    </g>
  </g>
</svg>
