<svg xmlns="http://www.w3.org/2000/svg" width="35.68" height="34.809" viewBox="0 0 35.68 34.809">
  <g id="Group_2092" data-name="Group 2092" transform="translate(0.5 0.525)">
    <path id="Path_8756" data-name="Path 8756" d="M386.016,451.559v-21.4a6.462,6.462,0,0,1,.509-1.161,2.5,2.5,0,0,1,2.231-1.036c3.352.009,6.7,0,10.056,0h.435c-.1-.172-.162-.279-.226-.384q-1.717-2.816-3.433-5.633a2.971,2.971,0,0,1-.212-.384,1.135,1.135,0,0,1,1.063-1.584,1.227,1.227,0,0,1,1.073.706c1.422,2.342,2.852,4.68,4.271,7.023a.455.455,0,0,0,.453.261c.733-.015,1.467-.016,2.2,0a.507.507,0,0,0,.508-.287q2.1-3.473,4.221-6.935a2.857,2.857,0,0,1,.267-.39,1.131,1.131,0,0,1,1.265-.3,1.06,1.06,0,0,1,.714,1.077,1.849,1.849,0,0,1-.258.751c-1.15,1.913-2.317,3.817-3.477,5.724-.061.1-.116.2-.2.358h6.481c1.354,0,2.709-.008,4.063,0a2.525,2.525,0,0,1,2.676,2.706c0,.655,0,1.309,0,1.964q0,9.193,0,18.385a2.722,2.722,0,0,1-.529,1.744,2.651,2.651,0,0,1-2.259.994q-8.837-.012-17.674,0-5.722,0-11.444,0a2.743,2.743,0,0,1-1.987-.7A2.9,2.9,0,0,1,386.016,451.559Zm14.175-1.966h8.533a1.417,1.417,0,0,0,1.609-1.624q0-7.111,0-14.221a1.417,1.417,0,0,0-1.609-1.625H391.693a1.418,1.418,0,0,0-1.6,1.607q0,7.127,0,14.255a1.418,1.418,0,0,0,1.6,1.607Zm12.841-13.3a2.38,2.38,0,0,0,2.353,2.384,2.406,2.406,0,0,0,2.384-2.363,2.368,2.368,0,0,0-4.737-.021Zm2.373,11.482a2.382,2.382,0,0,0,2.364-2.373,2.408,2.408,0,0,0-2.383-2.364,2.383,2.383,0,0,0-2.354,2.383A2.359,2.359,0,0,0,415.406,447.776Z" transform="translate(-386.016 -419.974)" fill="#396ab3" stroke="#396ab3" stroke-width="1"/>
  </g>
</svg>
