<svg id="Group_1879" data-name="Group 1879" xmlns="http://www.w3.org/2000/svg" width="40.531" height="40.531" viewBox="0 0 40.531 40.531">
  <path id="Path_8522" data-name="Path 8522" d="M-79-130h2.533a2.249,2.249,0,0,0,.3.065,19.3,19.3,0,0,1,8.8,2.8,20,20,0,0,1,9.582,13.91c.137.736.209,1.484.311,2.226v2.533c-.032.26-.069.519-.1.78A19.927,19.927,0,0,1-62.01-96.966,19.949,19.949,0,0,1-74.2-89.783c-.749.136-1.508.211-2.263.314H-79c-.495-.061-.99-.114-1.484-.184A19.873,19.873,0,0,1-90.5-94.009,19.962,19.962,0,0,1-97.685-106.2c-.136-.749-.212-1.509-.315-2.265V-111c.058-.482.108-.966.176-1.447a19.925,19.925,0,0,1,4.875-10.658,19.875,19.875,0,0,1,11.763-6.589C-80.462-129.821-79.73-129.9-79-130Zm-7.284,22.383a4.5,4.5,0,0,0,1.071,1.8,4.789,4.789,0,0,0,3.257,1.447,9.673,9.673,0,0,1-6.717,1.967,1.925,1.925,0,0,0,.356.256,12.977,12.977,0,0,0,6.484,1.77A12.557,12.557,0,0,0-72-104.561a13.314,13.314,0,0,0,3.516-9.2.885.885,0,0,1,.345-.722c.6-.567,1.159-1.184,1.729-1.785a1.178,1.178,0,0,0,.138-.231l-2.361.644-.058-.105a4.661,4.661,0,0,0,1.839-2.336c-.866.3-1.721.6-2.572.906a.482.482,0,0,1-.557-.146,4.628,4.628,0,0,0-7.654,2.278,13.974,13.974,0,0,0-.173,2.175,13.256,13.256,0,0,1-9.451-4.835,4.5,4.5,0,0,0-.606,2.743,4.691,4.691,0,0,0,1.941,3.395l-.063.107-1.9-.533c-.242,1.787,1.24,3.7,3.518,4.59Z" transform="translate(98 130)" fill="#396ab3"/>
</svg>
