<svg xmlns="http://www.w3.org/2000/svg" width="155.639" height="27.047" viewBox="0 0 155.639 27.047">
  <g id="cleverping" transform="translate(0 -2.6)">
    <g id="Group_5" data-name="Group 5" transform="translate(33.028 2.6)">
      <path id="Path_22" data-name="Path 22" d="M61.33,26.325a9.043,9.043,0,0,1-4.187,1c-4.32,0-7.443-2.924-7.443-6.978,0-4.187,3.389-7.044,7.576-7.044a8.176,8.176,0,0,1,3.788.864v3.19a7.272,7.272,0,0,0-3.788-1.2,4.084,4.084,0,0,0-4.32,4.187c0,2.392,1.794,4.054,4.386,4.054a6.351,6.351,0,0,0,3.921-1.329v3.256Z" transform="translate(-49.7 -6.189)" fill="#020202"/>
      <path id="Path_23" data-name="Path 23" d="M71.1,2.6h3.323V23.4H71.1Z" transform="translate(-56.878 -2.6)" fill="#020202"/>
      <path id="Path_24" data-name="Path 24" d="M83.423,21.242c.4,2.259,2.193,3.389,4.453,3.389A8.069,8.069,0,0,0,92.461,23.1v3.057a9.829,9.829,0,0,1-4.918,1.263c-4.32,0-7.443-2.791-7.443-6.978A6.8,6.8,0,0,1,86.945,13.4c3.323,0,6.247,2.259,6.247,6.579a8.058,8.058,0,0,1-.066,1.329h-9.7Zm6.712-2.326a3.154,3.154,0,0,0-3.19-2.924,3.444,3.444,0,0,0-3.456,2.924Z" transform="translate(-59.897 -6.223)" fill="#020202"/>
      <path id="Path_25" data-name="Path 25" d="M100.3,13.8h3.456l1.927,4.918c.6,1.462,1.13,2.99,1.728,4.519h.066c.6-1.595,1.13-2.99,1.794-4.519l1.994-4.918h3.323l-5.516,13.424h-3.256Z" transform="translate(-66.673 -6.357)" fill="#020202"/>
      <path id="Path_26" data-name="Path 26" d="M125.423,21.242c.4,2.259,2.193,3.389,4.453,3.389a8.07,8.07,0,0,0,4.585-1.528v3.057a9.829,9.829,0,0,1-4.918,1.263c-4.32,0-7.443-2.791-7.443-6.978a6.8,6.8,0,0,1,6.845-7.044c3.323,0,6.247,2.259,6.247,6.579a8.057,8.057,0,0,1-.066,1.329h-9.7Zm6.712-2.326a3.154,3.154,0,0,0-3.19-2.924,3.444,3.444,0,0,0-3.456,2.924Z" transform="translate(-73.986 -6.223)" fill="#020202"/>
      <path id="Path_27" data-name="Path 27" d="M145.1,13.7h3.256V15.56h.066a4.68,4.68,0,0,1,3.921-2.06,2.262,2.262,0,0,1,.93.133v3.19a5.165,5.165,0,0,0-1.063-.133,4.358,4.358,0,0,0-3.721,1.994v8.44h-3.323V13.7Z" transform="translate(-81.701 -6.256)" fill="#020202"/>
      <path id="Path_28" data-name="Path 28" d="M163.923,32.971H160.6V13.632h3.256v.731h.066a6.552,6.552,0,0,1,3.589-1.063c3.522,0,6.38,2.725,6.38,6.911a6.807,6.807,0,0,1-6.978,7.111,7.1,7.1,0,0,1-2.924-.6h-.066Zm2.791-8.44a3.857,3.857,0,0,0,3.921-4.12c0-2.326-1.462-4.253-3.788-4.253a4.4,4.4,0,0,0-2.858,1v6.712A6.077,6.077,0,0,0,166.714,24.531Z" transform="translate(-86.901 -6.189)" fill="#020202"/>
      <path id="Path_29" data-name="Path 29" d="M185.36,4a2.06,2.06,0,1,1-2.06,2.06A2.029,2.029,0,0,1,185.36,4ZM183.7,10.513h3.323V23.937H183.7Z" transform="translate(-94.515 -3.07)" fill="#020202"/>
      <path id="Path_30" data-name="Path 30" d="M192.133,13.632h3.256v1.462h.066a6.725,6.725,0,0,1,4.386-1.794,4.508,4.508,0,0,1,3.522,1.4c.8.864,1.13,1.994,1.13,3.921v8.307h-3.323V19.215c0-1.2-.133-1.861-.532-2.259a2.251,2.251,0,0,0-1.794-.731,5.056,5.056,0,0,0-3.522,1.661v9.1H192V13.632Z" transform="translate(-97.434 -6.189)" fill="#020202"/>
      <path id="Path_31" data-name="Path 31" d="M216.028,29.016a8.032,8.032,0,0,0,4.32,1.329c2.259,0,3.788-1.263,3.788-3.522v-.864l-.066-.066a6.179,6.179,0,0,1-3.389,1,6.363,6.363,0,0,1-6.38-6.646,6.789,6.789,0,0,1,6.978-7.044,8.509,8.509,0,0,1,3.389.731l2.858-.465V26.757c0,4.054-2.791,6.446-6.978,6.446a9.712,9.712,0,0,1-4.386-1v-3.19Zm8.041-12.161a5.919,5.919,0,0,0-2.725-.731,3.715,3.715,0,0,0-3.788,3.987,3.774,3.774,0,0,0,3.788,4.054,4.592,4.592,0,0,0,2.725-.864Z" transform="translate(-104.914 -6.156)" fill="#020202"/>
    </g>
    <g id="Group_7" data-name="Group 7" transform="translate(0 9.578)">
      <g id="Group_6" data-name="Group 6">
        <path id="Path_32" data-name="Path 32" d="M7.111,13.1A7.092,7.092,0,0,0,0,20.078a7.02,7.02,0,0,0,6.978,6.978A6.978,6.978,0,1,0,7.111,13.1ZM7.044,23.8a3.722,3.722,0,1,1,.066-7.443,3.715,3.715,0,0,1,3.722,3.722A3.816,3.816,0,0,1,7.044,23.8Zm13.889-7.443V23.8h3.323V16.356Zm-5.051,10.7h3.323V13.1H15.883Z" transform="translate(0 -13.1)" fill="#3c69b2"/>
      </g>
    </g>
  </g>
</svg>
