<svg id="usbsign" xmlns="http://www.w3.org/2000/svg" width="100.595" height="100.595" viewBox="0 0 100.595 100.595">
  <g id="Group_2307" data-name="Group 2307" opacity="0.2">
    <path id="Path_8875" data-name="Path 8875" d="M0,50.3a50.3,50.3,0,1,1,50.3,50.3A50.3,50.3,0,0,1,0,50.3Z" fill="#9ec5fd"/>
  </g>
  <g id="Group_2313" data-name="Group 2313" transform="translate(38.409 21.033)">
    <g id="Group_2308" data-name="Group 2308" transform="translate(11.33 4.721)">
      <path id="Path_8876" data-name="Path 8876" d="M55.332,28.162a.943.943,0,0,0-.943.944v3.777a.944.944,0,0,0,1.888,0V29.106a.944.944,0,0,0-.944-.944Z" transform="translate(-54.389 -28.162)" fill="#396ab3"/>
    </g>
    <g id="Group_2309" data-name="Group 2309" transform="translate(7.553 4.721)">
      <path id="Path_8877" data-name="Path 8877" d="M51.2,28.162a.944.944,0,0,0-.944.944v3.777a.945.945,0,0,0,1.888,0V29.106a.943.943,0,0,0-.944-.944Z" transform="translate(-50.259 -28.162)" fill="#396ab3"/>
    </g>
    <g id="Group_2310" data-name="Group 2310" transform="translate(15.105 4.721)">
      <path id="Path_8878" data-name="Path 8878" d="M59.462,28.162a.944.944,0,0,0-.944.944v3.777a.945.945,0,1,0,1.888,0V29.106a.944.944,0,0,0-.945-.944Z" transform="translate(-58.517 -28.162)" fill="#396ab3"/>
    </g>
    <g id="Group_2311" data-name="Group 2311">
      <path id="Path_8879" data-name="Path 8879" d="M64.659,59.348a1.417,1.417,0,0,1-1.417,1.417H45.3a1.417,1.417,0,0,1-1.416-1.417V38.106h20.77Zm-8.5,7.081H52.385V62.652h3.777Zm-8.5-41.54H60.882V36.217H47.664Zm15.1,11.329V23.945A.944.944,0,0,0,61.826,23H46.721a.944.944,0,0,0-.945.944V36.217H42.944a.944.944,0,0,0-.944.944V59.348a3.308,3.308,0,0,0,3.3,3.3H50.5v4.721a.944.944,0,0,0,.944.944H53.33v8.5a.944.944,0,0,0,1.888,0v-8.5h1.888a.943.943,0,0,0,.944-.944v-4.72h5.193a3.308,3.308,0,0,0,3.3-3.3V37.163a.945.945,0,0,0-.945-.945Z" transform="translate(-42 -23)" fill="#396ab3"/>
    </g>
    <g id="Group_2312" data-name="Group 2312" transform="translate(11.33 55.702)">
      <path id="Path_8880" data-name="Path 8880" d="M55.332,83.91a.943.943,0,0,0-.943.944V85.8a.944.944,0,1,0,1.888,0v-.944a.944.944,0,0,0-.944-.944Z" transform="translate(-54.389 -83.91)" fill="#396ab3"/>
    </g>
  </g>
</svg>
