<svg xmlns="http://www.w3.org/2000/svg" width="80" height="80" viewBox="0 0 80 80">
  <g id="Group_2815" data-name="Group 2815" transform="translate(-1079 -1124)">
    <circle id="Ellipse_11" data-name="Ellipse 11" cx="40" cy="40" r="40" transform="translate(1079 1124)" fill="#ff723b"/>
    <g id="Group_2290" data-name="Group 2290" transform="translate(870.13 739.923)">
      <path id="Path_8857" data-name="Path 8857" d="M244.236,443.2h-1.046a2.443,2.443,0,0,0-.239-.079,3.65,3.65,0,0,1-2.915-3.542,11.273,11.273,0,0,1,.188-1.527c-.526,0-1.084.006-1.642,0a3.68,3.68,0,0,1-1.507-7.041.383.383,0,0,0,.263-.474c-.176-1.607-.332-3.215-.492-4.824q-.391-3.916-.778-7.832-.4-3.971-.8-7.942c-.091-.9-.183-1.8-.278-2.733h-4.125a1.12,1.12,0,0,1-1.12-1.12h0a1.12,1.12,0,0,1,1.12-1.12h6.153l.521,5.147h.445q6.366,0,12.732.007a.568.568,0,0,0,.594-.364,8.764,8.764,0,0,1,10.3-4.428,8.451,8.451,0,0,1,6.162,6.662,8.344,8.344,0,0,1-2.928,8.507,2.759,2.759,0,0,0-1.1,2.083c-.2,2.628-.5,5.249-.768,7.873-.039.387-.078.774-.118,1.164a1.438,1.438,0,0,1-1.43,1.293h-2.285c-7.754,0-12.447,0-20.2,0a3.549,3.549,0,0,0-.595.033,1.429,1.429,0,0,0-1.214,1.543,1.46,1.46,0,0,0,1.6,1.327H261.6a1.119,1.119,0,0,1,1.118,1.119h0a1.12,1.12,0,0,1-1.12,1.12H260.01c.04.133.071.238.1.342a3.7,3.7,0,0,1-2.642,4.7c-.13.033-.259.071-.389.107h-.971c-.081-.025-.161-.055-.244-.075a3.712,3.712,0,0,1-2.68-5.056h-6.05c.037.137.065.255.1.37a3.693,3.693,0,0,1-2.4,4.585C244.636,443.086,244.435,443.14,244.236,443.2Zm6.179-30.823h-12.65l1.827,18.264h21.118l.831-8.319a8.895,8.895,0,0,1-11.126-9.945Zm8.746,8.014a6.593,6.593,0,1,0-6.605-6.591A6.605,6.605,0,0,0,259.161,420.39Zm-1.115,19.166a1.452,1.452,0,1,0-1.491,1.4A1.467,1.467,0,0,0,258.046,439.556Zm-12.9-.041a1.444,1.444,0,1,0-1.451,1.442A1.449,1.449,0,0,0,245.151,439.516Z" transform="translate(0 0)" fill="#fff"/>
      <rect id="Rectangle_853" data-name="Rectangle 853" width="2.183" height="2.196" rx="1.091" transform="translate(243.899 425.551)" fill="#fff"/>
      <rect id="Rectangle_854" data-name="Rectangle 854" width="2.191" height="2.19" rx="1.095" transform="translate(249.045 425.554)" fill="#fff"/>
      <rect id="Rectangle_855" data-name="Rectangle 855" width="2.195" height="2.175" rx="1.087" transform="translate(254.203 425.565)" fill="#fff"/>
      <path id="Path_8858" data-name="Path 8858" d="M489.028,474.506l-1.914-1.91a1.073,1.073,0,0,1,0-1.519l.016-.015a1.073,1.073,0,0,1,1.522.006l1.112,1.129,2.616-2.657a1.073,1.073,0,0,1,1.526,0l.044.045a1.073,1.073,0,0,1,0,1.514l-3.4,3.409A1.073,1.073,0,0,1,489.028,474.506Z" transform="translate(-231.406 -57.853)" fill="#fff"/>
    </g>
  </g>
</svg>
