<svg id="fiberoptic" xmlns="http://www.w3.org/2000/svg" width="110" height="110" viewBox="0 0 110 110">
  <g id="Group_2298" data-name="Group 2298" opacity="0.2">
    <path id="Path_8867" data-name="Path 8867" d="M0,55a55,55,0,1,1,55,55A55,55,0,0,1,0,55Z" fill="#9ec5fd"/>
  </g>
  <g id="Group_2299" data-name="Group 2299">
    <path id="Path_8868" data-name="Path 8868" d="M63.69,51.589H60.723c1.149-5.477,4.268-12.267,12.4-16.042l.462,1.1a.858.858,0,0,0,.049.116l.605,1.439A19.194,19.194,0,0,0,63.691,51.589ZM65.9,57.954H44.955v-3.3a1.237,1.237,0,0,1,1.237-1.238l18.467,0A1.239,1.239,0,0,1,65.9,54.659ZM64.659,85.242H46.192a1.238,1.238,0,0,1-1.237-1.237V59.785H65.9v24.22a1.239,1.239,0,0,1-1.238,1.237ZM36.911,38.2l.542-1.288v0l.574-1.365c8.125,3.774,11.247,10.563,12.4,16.04H47.486A19.1,19.1,0,0,0,36.91,38.2ZM53.567,28.95h3.717V51.589H53.567Zm26.261,5.22a.916.916,0,0,0-1.069-.73,10.347,10.347,0,0,0-3.912,1.5l-.4-.952h0a.915.915,0,0,0-1.2-.489A23.851,23.851,0,0,0,59.114,50.42V28.034a.915.915,0,0,0-.916-.915H56.341v-3.2a.915.915,0,1,0-1.831,0v3.2H52.652a.915.915,0,0,0-.915.915V49.31A23.669,23.669,0,0,0,37.9,33.492a.914.914,0,0,0-1.2.488l-.467,1.108A9.977,9.977,0,0,0,32.1,33.436l-.021,0a.916.916,0,1,0-.324,1.8,8.385,8.385,0,0,1,3.752,1.584l-.63,1.5a.916.916,0,0,0,.488,1.2A17.463,17.463,0,0,1,45.641,51.643a3.073,3.073,0,0,0-2.517,3.016V84a3.07,3.07,0,0,0,3.068,3.068H64.659A3.071,3.071,0,0,0,67.727,84V54.66a3.072,3.072,0,0,0-2.182-2.936,17.34,17.34,0,0,1,10.237-12.2.916.916,0,0,0,.489-1.2l-.7-1.667A8.6,8.6,0,0,1,79.1,35.239a.915.915,0,0,0,.731-1.068Z" fill="#396ab3"/>
  </g>
</svg>
