<svg id="Group_1880" data-name="Group 1880" xmlns="http://www.w3.org/2000/svg" width="40.531" height="40.531" viewBox="0 0 40.531 40.531">
  <path id="Path_8523" data-name="Path 8523" d="M-80-130h2.533a2.249,2.249,0,0,0,.3.065,19.3,19.3,0,0,1,8.8,2.8,20,20,0,0,1,9.582,13.91c.137.736.209,1.483.311,2.226v2.533c-.033.26-.069.519-.1.78A19.925,19.925,0,0,1-63.01-96.966,19.949,19.949,0,0,1-75.2-89.783c-.749.136-1.508.211-2.263.314H-80c-.495-.061-.99-.114-1.484-.184A19.873,19.873,0,0,1-91.5-94.009,19.963,19.963,0,0,1-98.685-106.2c-.136-.749-.212-1.509-.315-2.265V-111c.032-.26.067-.519.1-.779A19.949,19.949,0,0,1-93.948-123.1a19.857,19.857,0,0,1,11.762-6.589C-81.462-129.821-80.73-129.9-80-130Zm3.042,30.622c0-1.275,0-2.513,0-3.752.006-1.675,0-3.35.036-5.024a2.543,2.543,0,0,1,1.24-2.1,2.374,2.374,0,0,1,3.7,1.332,6.619,6.619,0,0,1,.211,1.717c.022,2.466.009,4.933.009,7.4v.413h4.917c.006-.13.016-.234.016-.338,0-2.7.006-5.408,0-8.111a14.189,14.189,0,0,0-.105-1.616,5.3,5.3,0,0,0-4.886-5.063,4.91,4.91,0,0,0-4.927,2.112,2.738,2.738,0,0,1-.206.221c0-.611-.015-1.135.006-1.658.012-.293-.078-.386-.378-.383-1.411.015-2.822.006-4.234.008a2.938,2.938,0,0,0-.3.03v14.81Zm-7.679,0c.009-.1.019-.165.019-.228q0-7.143.007-14.287c0-.307-.138-.335-.384-.334-1.4.007-2.8,0-4.195,0-.114,0-.229.017-.345.026v14.818Zm-5.2-19.427a2.562,2.562,0,0,0,2.758,2.566,2.6,2.6,0,0,0,2.79-2.552,2.581,2.581,0,0,0-2.752-2.583A2.569,2.569,0,0,0-89.843-118.8Z" transform="translate(99 130)" fill="#396ab3"/>
</svg>
