<svg xmlns="http://www.w3.org/2000/svg" width="137.041" height="135.837" viewBox="0 0 137.041 135.837">
  <g id="Group_2781" data-name="Group 2781" transform="translate(0 -0.85)">
    <g id="Group_2780" data-name="Group 2780">
      <g id="Group_2768" data-name="Group 2768">
        <g id="Group_2640" data-name="Group 2640" opacity="0.1">
          <path id="Path_9135" data-name="Path 9135" d="M17.93,136.687,0,126.335,80.322,79.961,98.618,90.1Z"/>
        </g>
        <g id="Group_2658" data-name="Group 2658">
          <g id="Group_2641" data-name="Group 2641">
            <path id="Path_9136" data-name="Path 9136" d="M13.08,72.146l76.392-44.1,3.056,1.764a3.191,3.191,0,0,1,1.438,2.49V88.647a3.191,3.191,0,0,1-1.437,2.49L19.012,133.58a3.186,3.186,0,0,1-2.875,0l-1.62-.935a3.187,3.187,0,0,1-1.436-2.489Z" fill="#577afa"/>
          </g>
          <g id="Group_2642" data-name="Group 2642" opacity="0.2">
            <path id="Path_9137" data-name="Path 9137" d="M13.08,72.146l76.392-44.1,3.056,1.764a3.191,3.191,0,0,1,1.438,2.49V88.647a3.191,3.191,0,0,1-1.437,2.49L19.012,133.58a3.186,3.186,0,0,1-2.875,0l-1.62-.935a3.187,3.187,0,0,1-1.436-2.489Z"/>
          </g>
          <g id="Group_2643" data-name="Group 2643">
            <path id="Path_9138" data-name="Path 9138" d="M89.05,23.088l.313-.17-1.188-.69h0a2.016,2.016,0,0,0-.314-.15L54.24,9.62a2.316,2.316,0,0,0-2.582.821L14.051,65.362a6.506,6.506,0,0,0-.97,3.136v3.647l1.165.677,75.226-44.78V24.393a2.46,2.46,0,0,0-.422-1.305Z" fill="#577afa"/>
          </g>
          <g id="Group_2644" data-name="Group 2644" opacity="0.1">
            <path id="Path_9139" data-name="Path 9139" d="M53.216,10.708a1.9,1.9,0,0,0-.39.412L15.216,66.039a5.835,5.835,0,0,0-.7,1.569l-1.168-.676a7.414,7.414,0,0,1,.3-.83c.006-.012.006-.018.012-.024q.075-.168.16-.332c.011-.017.017-.034.029-.051a2.944,2.944,0,0,1,.2-.332l37.6-54.919a1.813,1.813,0,0,1,.19-.23q.1-.1.2-.182Z"/>
          </g>
          <g id="Group_2645" data-name="Group 2645" opacity="0.35">
            <path id="Path_9140" data-name="Path 9140" d="M89.35,22.912a1.848,1.848,0,0,0-.321-.155L55.4,10.3a2.306,2.306,0,0,0-2.188.413l-1.168-.676a2.331,2.331,0,0,1,2.193-.413l33.62,12.457a1.794,1.794,0,0,1,.314.155Z" fill="#fff"/>
          </g>
          <g id="Group_2655" data-name="Group 2655">
            <g id="Group_2646" data-name="Group 2646">
              <path id="Path_9141" data-name="Path 9141" d="M13.85,65.693a3.763,3.763,0,0,1,.2-.331" fill="#577afa"/>
            </g>
            <g id="Group_2647" data-name="Group 2647">
              <path id="Path_9142" data-name="Path 9142" d="M51.848,10.215a2.071,2.071,0,0,1,.2-.183" fill="#577afa"/>
            </g>
            <g id="Group_2648" data-name="Group 2648">
              <path id="Path_9143" data-name="Path 9143" d="M13.347,66.933a7.4,7.4,0,0,1,.305-.833" fill="#577afa"/>
            </g>
            <g id="Group_2649" data-name="Group 2649">
              <path id="Path_9144" data-name="Path 9144" d="M13.662,66.077c.051-.116.106-.224.162-.33" fill="#577afa"/>
            </g>
            <g id="Group_2650" data-name="Group 2650" opacity="0.2">
              <path id="Path_9145" data-name="Path 9145" d="M13.652,66.1l.01-.023"/>
            </g>
            <g id="Group_2651" data-name="Group 2651" opacity="0.2">
              <path id="Path_9146" data-name="Path 9146" d="M13.347,66.934Z"/>
            </g>
            <g id="Group_2652" data-name="Group 2652" opacity="0.2">
              <path id="Path_9147" data-name="Path 9147" d="M52.05,10.032"/>
            </g>
            <g id="Group_2653" data-name="Group 2653" opacity="0.2">
              <path id="Path_9148" data-name="Path 9148" d="M13.823,65.748c.01-.018.018-.038.027-.055"/>
            </g>
            <g id="Group_2654" data-name="Group 2654" opacity="0.2">
              <path id="Path_9149" data-name="Path 9149" d="M51.659,10.441a1.934,1.934,0,0,1,.189-.226"/>
            </g>
          </g>
          <g id="Group_2656" data-name="Group 2656">
            <path id="Path_9150" data-name="Path 9150" d="M52.825,11.118,15.217,66.04a6.506,6.506,0,0,0-.97,3.136v3.647L90.638,28.716V25.07a2.65,2.65,0,0,0-1.612-2.316L55.406,10.3a2.312,2.312,0,0,0-2.581.82Z" fill="#577afa"/>
          </g>
          <g id="Group_2657" data-name="Group 2657" opacity="0.05">
            <path id="Path_9151" data-name="Path 9151" d="M90.637,25.07a2.456,2.456,0,0,0-.408-1.284L14.517,67.608l-.008.012a5.739,5.739,0,0,0-.263,1.555v3.647L90.638,28.715Z"/>
          </g>
        </g>
        <g id="Group_2666" data-name="Group 2666">
          <g id="Group_2659" data-name="Group 2659">
            <path id="Path_9152" data-name="Path 9152" d="M87.375,9.59a.875.875,0,0,0-.359-.8c-.224-.132-2.107-1.216-2.331-1.345a.87.87,0,0,0-.877.087L21.15,43.706a2.74,2.74,0,0,0-1.24,2.148v75.04a.874.874,0,0,0,.363.8L22.6,123.04a.872.872,0,0,0,.877-.087l62.66-36.175a2.742,2.742,0,0,0,1.24-2.147Z" fill="#577afa"/>
          </g>
          <g id="Group_2660" data-name="Group 2660" opacity="0.95">
            <path id="Path_9153" data-name="Path 9153" d="M87.375,9.59a.875.875,0,0,0-.359-.8c-.224-.132-2.107-1.216-2.331-1.345a.87.87,0,0,0-.877.087L21.15,43.706a2.74,2.74,0,0,0-1.24,2.148v75.04a.874.874,0,0,0,.363.8L22.6,123.04a.872.872,0,0,0,.877-.087l62.66-36.175a2.742,2.742,0,0,0,1.24-2.147Z" fill="#fff"/>
          </g>
          <g id="Group_2661" data-name="Group 2661">
            <path id="Path_9154" data-name="Path 9154" d="M23.476,122.953l62.66-36.175a2.742,2.742,0,0,0,1.24-2.147V9.591c0-.791-.556-1.112-1.24-.717L23.475,45.05a2.744,2.744,0,0,0-1.24,2.148v75.04c0,.79.555,1.111,1.24.716Z" fill="#577afa"/>
          </g>
          <g id="Group_2662" data-name="Group 2662" opacity="0.8">
            <path id="Path_9155" data-name="Path 9155" d="M23.476,122.953l62.66-36.175a2.742,2.742,0,0,0,1.24-2.147V9.591c0-.791-.556-1.112-1.24-.717L23.475,45.05a2.744,2.744,0,0,0-1.24,2.148v75.04c0,.79.555,1.111,1.24.716Z" fill="#fff"/>
          </g>
          <g id="Group_2663" data-name="Group 2663">
            <path id="Path_9156" data-name="Path 9156" d="M22.234,122.236a.936.936,0,0,0,.292.757c-.418-.235-2.045-1.18-2.25-1.295a.864.864,0,0,1-.368-.8V45.852a2.489,2.489,0,0,1,.367-1.22l2.325,1.34a2.506,2.506,0,0,0-.366,1.226Z" fill="#577afa"/>
          </g>
          <g id="Group_2664" data-name="Group 2664" opacity="0.7">
            <path id="Path_9157" data-name="Path 9157" d="M22.234,122.236a.936.936,0,0,0,.292.757c-.418-.235-2.045-1.18-2.25-1.295a.864.864,0,0,1-.368-.8V45.852a2.489,2.489,0,0,1,.367-1.22l2.325,1.34a2.506,2.506,0,0,0-.366,1.226Z" fill="#fff"/>
          </g>
          <g id="Group_2665" data-name="Group 2665" opacity="0.05">
            <path id="Path_9158" data-name="Path 9158" d="M22.234,122.236a.936.936,0,0,0,.292.757c-.418-.235-2.045-1.18-2.25-1.295a.864.864,0,0,1-.368-.8V45.852a2.489,2.489,0,0,1,.367-1.22l2.325,1.34a2.506,2.506,0,0,0-.366,1.226Z"/>
          </g>
        </g>
        <g id="Group_2688" data-name="Group 2688">
          <g id="Group_2667" data-name="Group 2667">
            <path id="Path_9159" data-name="Path 9159" d="M45.1,65.523c-.276,6.98.194,21.94.194,21.94s7.4,2.236,12.43,1.4,15.789-8.454,15.789-8.454l-1.793-16.19Z" fill="#37474f"/>
          </g>
          <g id="Group_2668" data-name="Group 2668">
            <path id="Path_9160" data-name="Path 9160" d="M62.281,87.209l1.2-11.4A15.3,15.3,0,0,0,69.734,69.1c-4.292,5.62-8.77,4.711-8.77,4.711v14q.645-.277,1.317-.6Z" fill="#263238"/>
          </g>
          <g id="Group_2669" data-name="Group 2669">
            <path id="Path_9161" data-name="Path 9161" d="M74.677,44.49c1.2-6.076,1.742-14.15-3.544-15.632a21.6,21.6,0,0,0-4.882-.118l-5.7.283c-3.173.405-7.625,1.036-8.791,1.322C48.7,31.1,47.79,36.1,46.417,47.182a145.784,145.784,0,0,0-1.59,19.11c5.6,5.02,23.1,3.043,27.08-.222.166-7.655.583-10.495,2.77-21.58Z" fill="#455a64"/>
          </g>
          <g id="Group_2673" data-name="Group 2673">
            <g id="Group_2670" data-name="Group 2670">
              <path id="Path_9162" data-name="Path 9162" d="M59.585,26.953c-.055,1.11,1.222,2.982,3.176,4.3s3.637,1.847,3.852,2.4a3.169,3.169,0,0,0-2.456,2.225c-.659,1.52-.653,1.569-2.908,0s-4.272-5.17-4.267-6.37,1.772-3.52,2.64-3.323Z" fill="#37474f"/>
            </g>
            <g id="Group_2671" data-name="Group 2671">
              <path id="Path_9163" data-name="Path 9163" d="M66.612,33.646a7.783,7.783,0,0,0,1.367-3.32l.289-2.844a1.5,1.5,0,0,1,.78.506,11.137,11.137,0,0,1,1.4,4.234,10.542,10.542,0,0,1-.831,4.048c-.469.79-.782-.6-1.088-1.144a2.358,2.358,0,0,0-1.92-1.48Z" fill="#37474f"/>
            </g>
            <g id="Group_2672" data-name="Group 2672">
              <path id="Path_9164" data-name="Path 9164" d="M65.72,35.235a54.071,54.071,0,0,1-.352,7.664,8.145,8.145,0,0,0,2.976-.08s-.763.94-3.56.507A81.018,81.018,0,0,0,65.72,35.235Z" fill="#37474f"/>
            </g>
          </g>
          <g id="Group_2687" data-name="Group 2687">
            <g id="Group_2678" data-name="Group 2678">
              <g id="Group_2674" data-name="Group 2674">
                <path id="Path_9165" data-name="Path 9165" d="M77.564,12.133a7.94,7.94,0,0,0-15.845-.6L58.113,8.965a2.819,2.819,0,0,0-2.321.855c-.988,1.04-.38,4.24.914,7.363a64.769,64.769,0,0,0,1.805,6.636A2.593,2.593,0,0,0,60.026,25l-.125-3.47L74.324,20.5,72.9,19.483a7.939,7.939,0,0,0,4.667-7.35Z" fill="#263238"/>
              </g>
              <g id="Group_2675" data-name="Group 2675">
                <path id="Path_9166" data-name="Path 9166" d="M59.691,17.4c-.456.282-.872-.683-1.7-1.177-.706-.42-2.29-1.159-3.335.591C53.53,18.7,55.573,21.309,57,21.846a2.118,2.118,0,0,0,2.877-.865l-.437,8.829c2.885,5.255,11.446,4.916,8.535.516l.35-3.405a15.839,15.839,0,0,0,3.389.124c1.843-.313,2.984-1.788,3.515-3.8.852-3.225,1.156-5.824.3-12.13-.939-6.91-8.993-6.864-13.3-4.062S59.691,17.4,59.691,17.4Z" fill="#ffa8a7"/>
              </g>
              <g id="Group_2676" data-name="Group 2676">
                <path id="Path_9167" data-name="Path 9167" d="M77.29,4.667a2.968,2.968,0,0,0-1.948-.224,2.356,2.356,0,0,0-1.412-2.37,2.73,2.73,0,0,0-2.984.4A1.4,1.4,0,0,0,69.791.9a3.791,3.791,0,0,0-2.125.35c-1.012.386-2.01.817-3.038,1.16a26.476,26.476,0,0,0-5.38,1.934,3.337,3.337,0,0,0-1.025.87,2.848,2.848,0,0,0-.464,1.8,3.865,3.865,0,0,0,.088.618,1.556,1.556,0,0,0-.43-.335,1.532,1.532,0,0,0-2.1.727l2.73,1.414c-.068.55-.135,1.1-.191,1.651a14.9,14.9,0,0,0-.1,4.6,1.09,1.09,0,0,0,.177.486,8.565,8.565,0,0,1,1.42,1.381c.212.258.467.673.81.774a.82.82,0,0,0,.943-.43,1.5,1.5,0,0,0,.031-.644l-.265-2.691a1.534,1.534,0,0,1,.044-.714,2.027,2.027,0,0,1,.658-.7A3.113,3.113,0,0,0,62.651,11a3.374,3.374,0,0,1,.072-.772c.056-.19.206-.486.423-.487.421,0,2.707.5,3.282.575,2.991.41,6.205.49,8.843-.978,1.028-.572,2.76-1.757,2.939-3.028a1.694,1.694,0,0,0-.92-1.64Z" fill="#263238"/>
              </g>
              <g id="Group_2677" data-name="Group 2677">
                <path id="Path_9168" data-name="Path 9168" d="M68.329,26.92a31.637,31.637,0,0,1-5.59-1.514,4.753,4.753,0,0,1-2.022-1.942,6.506,6.506,0,0,0,1.167,2.309c1.074,1.332,6.332,2.245,6.332,2.245Z" fill="#f28f8f"/>
              </g>
            </g>
            <g id="Group_2686" data-name="Group 2686">
              <g id="Group_2679" data-name="Group 2679">
                <path id="Path_9169" data-name="Path 9169" d="M68.152,16.662a.775.775,0,1,1-.786-.8A.788.788,0,0,1,68.152,16.662Z" fill="#263238"/>
              </g>
              <g id="Group_2680" data-name="Group 2680">
                <path id="Path_9170" data-name="Path 9170" d="M66.646,13.774l-1.817.882a1.06,1.06,0,0,1,.485-1.384.985.985,0,0,1,1.332.5Z" fill="#263238"/>
              </g>
              <g id="Group_2681" data-name="Group 2681">
                <path id="Path_9171" data-name="Path 9171" d="M66.667,21.5l3.282,1.178a1.712,1.712,0,0,1-2.2,1.114A1.825,1.825,0,0,1,66.667,21.5Z" fill="#b16668"/>
              </g>
              <g id="Group_2682" data-name="Group 2682">
                <path id="Path_9172" data-name="Path 9172" d="M68.74,23.834a1.712,1.712,0,0,0-1.917-1.461,1.6,1.6,0,0,0-.21.049,1.782,1.782,0,0,0,1.135,1.37,1.652,1.652,0,0,0,.991.042Z" fill="#f28f8f"/>
              </g>
              <g id="Group_2683" data-name="Group 2683">
                <path id="Path_9173" data-name="Path 9173" d="M75.256,14.374,73.5,13.458a.955.955,0,0,1,1.308-.414A1.008,1.008,0,0,1,75.256,14.374Z" fill="#263238"/>
              </g>
              <g id="Group_2684" data-name="Group 2684">
                <path id="Path_9174" data-name="Path 9174" d="M74.364,16.53a.775.775,0,1,1-.787-.795.788.788,0,0,1,.787.795Z" fill="#263238"/>
              </g>
              <g id="Group_2685" data-name="Group 2685">
                <path id="Path_9175" data-name="Path 9175" d="M70.412,16.05l.155,5.01,2.954-.687Z" fill="#f28f8f"/>
              </g>
            </g>
          </g>
        </g>
        <g id="Group_2706" data-name="Group 2706">
          <g id="Group_2689" data-name="Group 2689">
            <path id="Path_9176" data-name="Path 9176" d="M92.027,89.4a.7.7,0,0,1-.08.115L60.115,79.419a5.483,5.483,0,0,0-6.88,2.118l-34.03,50.58-1.26.727-.01.006a1.03,1.03,0,0,1-.975.109l35-52.138A5.5,5.5,0,0,1,58.845,78.7Z" fill="#577afa"/>
          </g>
          <g id="Group_2690" data-name="Group 2690" opacity="0.4">
            <path id="Path_9177" data-name="Path 9177" d="M50.1,86.5l.08-.069L19.2,132.12l-1.26.727-.012.006a1.039,1.039,0,0,1-.973.109L48.875,85.768Z" fill="#fff"/>
          </g>
          <g id="Group_2691" data-name="Group 2691" opacity="0.4">
            <path id="Path_9178" data-name="Path 9178" d="M92.03,89.4a.7.7,0,0,1-.08.115l-31.838-10.1a5.481,5.481,0,0,0-6.879,2.119l-1.26-.733a5.5,5.5,0,0,1,6.873-2.108Z" fill="#fff"/>
          </g>
          <g id="Group_2692" data-name="Group 2692">
            <path id="Path_9179" data-name="Path 9179" d="M93.94,31.935h-.007c-.069-.412-.286-.527-.567-.332a1.657,1.657,0,0,0-.366.378l-.161.223L61.425,79.964,56.735,86.5a2.675,2.675,0,0,1-2.583.968L50.1,86.5l-30.91-11.38a1.573,1.573,0,0,0-.63-.023,1.12,1.12,0,0,0-.234.075l1.165-.674L49.127,85.363l3.9,1.393a2.661,2.661,0,0,0,2.583-.968l4.69-6.53,31.57-47.982a1.256,1.256,0,0,1,.354-.326l-2.732-1.575,1.146-.658L92.53,29.8a3.28,3.28,0,0,1,1.41,2.13Z" fill="#577afa"/>
          </g>
          <g id="Group_2693" data-name="Group 2693" opacity="0.4">
            <path id="Path_9180" data-name="Path 9180" d="M61.423,79.96l-4.69,6.535a2.674,2.674,0,0,1-2.584.968L50.1,86.5l.08-.069.195-.309,2.652.63a2.66,2.66,0,0,0,2.583-.968l4.645-6.46Z" fill="#fff"/>
          </g>
          <g id="Group_2694" data-name="Group 2694" opacity="0.1">
            <path id="Path_9181" data-name="Path 9181" d="M92.528,29.8l-1.89-1.088-1.145.659,2.732,1.575.006,0,0,0a1.255,1.255,0,0,0-.355.326L60.3,79.256l-.046.063v.006l1.168.636L92.837,32.2l.16-.223a1.666,1.666,0,0,1,.367-.379c.28-.194.5-.08.567.333h.006a3.273,3.273,0,0,0-1.41-2.13Z"/>
          </g>
          <g id="Group_2695" data-name="Group 2695">
            <path id="Path_9182" data-name="Path 9182" d="M19.82,76.039l-6.74-3.893v58.011a3.191,3.191,0,0,0,1.437,2.49l1.62.934a3.184,3.184,0,0,0,2.874,0l.808-.466Z" fill="#577afa"/>
          </g>
          <g id="Group_2696" data-name="Group 2696" opacity="0.15">
            <path id="Path_9183" data-name="Path 9183" d="M19.82,76.039l-6.74-3.893v58.011a3.191,3.191,0,0,0,1.437,2.49l1.62.934a3.184,3.184,0,0,0,2.874,0l.808-.466Z"/>
          </g>
          <g id="Group_2697" data-name="Group 2697">
            <path id="Path_9184" data-name="Path 9184" d="M93.967,32.3v56.35a2.926,2.926,0,0,1-.446,1.455,3.143,3.143,0,0,1-.842.945l-.057.029a.946.946,0,0,1-.092.063L19.015,133.577l-.011.006a1.027,1.027,0,0,1-.98.114.875.875,0,0,1-.43-.687,1.818,1.818,0,0,1-.017-.258V76.4a1.25,1.25,0,0,1,1.616-1.272L50.1,86.5l4.049.962a2.673,2.673,0,0,0,2.582-.968l4.691-6.535L92.84,32.2l.16-.223c.533-.739.968-.6.968.315Z" fill="#577afa"/>
          </g>
          <g id="Group_2698" data-name="Group 2698">
            <path id="Path_9185" data-name="Path 9185" d="M92.53,91.138a.919.919,0,0,0,.094-.06l.054-.034a3.068,3.068,0,0,0,.841-.94,2.953,2.953,0,0,0,.446-1.43l-32.538-8.71,21.79,16.55Z" fill="#577afa"/>
          </g>
          <g id="Group_2699" data-name="Group 2699" opacity="0.2">
            <path id="Path_9186" data-name="Path 9186" d="M92.531,91.138a.831.831,0,0,0,.1-.06l.055-.034a3.078,3.078,0,0,0,.84-.94,2.942,2.942,0,0,0,.446-1.43L61.43,79.964l21.79,16.55Z"/>
          </g>
          <g id="Group_2700" data-name="Group 2700">
            <path id="Path_9187" data-name="Path 9187" d="M17.576,132.75a.992.992,0,0,0,.448.946,1.027,1.027,0,0,0,.98-.111l.01-.005,25.31-14.613L50.1,86.5,17.577,131.813Z" fill="#577afa"/>
          </g>
          <g id="Group_2701" data-name="Group 2701" opacity="0.15">
            <path id="Path_9188" data-name="Path 9188" d="M53.222,81.53,18.022,133.7a.993.993,0,0,1-.446-.945v-.937L51.962,80.82c0-.006.006-.012.011-.017Z"/>
          </g>
          <g id="Group_2702" data-name="Group 2702">
            <path id="Path_9189" data-name="Path 9189" d="M93.52,90.1a3.083,3.083,0,0,1-.842.94l-.054.033-73.61,42.5-.01.005a1.024,1.024,0,0,1-.98.11l35.2-52.173A5.532,5.532,0,0,1,60.149,79.4Z" fill="#577afa"/>
          </g>
          <g id="Group_2703" data-name="Group 2703" opacity="0.15">
            <path id="Path_9190" data-name="Path 9190" d="M13.349,66.932l1.168.676a5.719,5.719,0,0,0-.27,1.57V72.82l-1.168-.676V68.5a5.717,5.717,0,0,1,.27-1.564Z"/>
          </g>
          <g id="Group_2704" data-name="Group 2704">
            <path id="Path_9191" data-name="Path 9191" d="M19.493,74.5l-1.165.673-1.18-.682-2.9-1.672,1.128-.67Z" fill="#577afa"/>
          </g>
          <g id="Group_2705" data-name="Group 2705" opacity="0.1">
            <path id="Path_9192" data-name="Path 9192" d="M19.544,74.525l-4.172-2.373-1.128.67,2.9,1.673,1.18.681.012-.007a1.2,1.2,0,0,1,.22-.07,1.592,1.592,0,0,1,.63.023l2.35.866,26.982,9.934.422-.626Z"/>
          </g>
        </g>
        <g id="Group_2710" data-name="Group 2710">
          <g id="Group_2707" data-name="Group 2707">
            <path id="Path_9193" data-name="Path 9193" d="M51.76,30.345c-3.745.27-6.313,1.161-8.727,6.96-1.56,3.75-7.677,17.221-8.27,19.448-.7,2.615-2.259,22.491-2.259,22.491l3.575,1.341s-1.225,4.278-2.26,6.722c-1.191,2.818,4.63,2.227,6.5-.335s3.143-5.99,2.122-7.192A16.8,16.8,0,0,0,39.6,77.156l3.914-17.733,8.2-17.444s4.117-8.574.038-11.634Z" fill="#ffa8a7"/>
          </g>
          <g id="Group_2708" data-name="Group 2708">
            <path id="Path_9194" data-name="Path 9194" d="M39.6,77.156a7.7,7.7,0,0,0-3.626-1.035,6.974,6.974,0,0,1,3.8,0Z" fill="#f28f8f"/>
          </g>
          <g id="Group_2709" data-name="Group 2709">
            <path id="Path_9195" data-name="Path 9195" d="M52.61,30.173c-2.1-.017-6.027-.111-8.57,4.48S37.9,47.969,37.9,47.969,39.4,51.644,47.4,52.412l6.126-13.036s1.492-5.982-.913-9.2Z" fill="#37474f"/>
          </g>
        </g>
        <g id="Group_2767" data-name="Group 2767">
          <g id="Group_2766" data-name="Group 2766">
            <g id="Group_2711" data-name="Group 2711">
              <path id="Path_9196" data-name="Path 9196" d="M79.747,33.184c3.16,2.49,8.291,6.408,10.785,7.977,1.886-2.282,5.354-6.9,6.2-7.907a26.519,26.519,0,0,1,4.45-3.384l1.275,5.118s-6.407,11.82-8.728,14.007c-2.447,2.305-4.217,1.35-9-.842-4.517-2.07-9.42-4.636-9.42-4.636.972-8.59.313-13.244-3.79-14.693,2.758.343,5.578,2.27,8.229,4.36Z" fill="#ffa8a7"/>
            </g>
            <g id="Group_2712" data-name="Group 2712">
              <path id="Path_9197" data-name="Path 9197" d="M88,39.432c-1.652.453-5.066,5.31-4.443,8.384l-8.7-4.3c1.053-5.93,1.28-13.255-3.727-14.658a6.854,6.854,0,0,0-1.465-.186,8.041,8.041,0,0,1,6.734,1.79C79.015,32.426,88,39.432,88,39.432Z" fill="#37474f"/>
            </g>
            <g id="Group_2713" data-name="Group 2713">
              <path id="Path_9198" data-name="Path 9198" d="M90.532,41.16c-1.246,1.093-1.649,3.063-1.89,3.843a6.856,6.856,0,0,1,1.17-4.311Z" fill="#f28f8f"/>
            </g>
            <g id="Group_2765" data-name="Group 2765">
              <g id="Group_2720" data-name="Group 2720">
                <g id="Group_2714" data-name="Group 2714">
                  <path id="Path_9199" data-name="Path 9199" d="M102.642,24.143l2.98-1.809.354,16.61a1.774,1.774,0,0,0,.626,1.034l-2.98,1.806a1.769,1.769,0,0,1-.627-1.032l-.353-16.61Z" fill="#37474f"/>
                </g>
                <g id="Group_2715" data-name="Group 2715">
                  <path id="Path_9200" data-name="Path 9200" d="M105.765,29.039s.856.2,1.184,1.532.492,3.865-.27,4.7a2.415,2.415,0,0,1-2.5.9c-1.295-.563-.9-3.19.137-3.8,1.658-.968,1.46-2.035,1.46-2.035Z" fill="#ffa8a7"/>
                </g>
                <g id="Group_2716" data-name="Group 2716">
                  <path id="Path_9201" data-name="Path 9201" d="M98.972,24.191l1.307,1.594.235,11.345-1.327,2.217,4.434,2.437a1.62,1.62,0,0,1-.626-1.033l-.309-14.52Z" fill="#455a64"/>
                </g>
                <g id="Group_2717" data-name="Group 2717">
                  <path id="Path_9202" data-name="Path 9202" d="M99.186,39.347l.015.7,4.435,2.437-.015-.7Z" fill="#577afa"/>
                </g>
                <g id="Group_2718" data-name="Group 2718">
                  <path id="Path_9203" data-name="Path 9203" d="M103.636,42.481l2.98-1.806-.014-.7-2.981,1.806Z" fill="#577afa"/>
                </g>
                <g id="Group_2719" data-name="Group 2719" opacity="0.1">
                  <path id="Path_9204" data-name="Path 9204" d="M103.636,42.481l2.98-1.806-.014-.7-2.981,1.806Z"/>
                </g>
              </g>
              <g id="Group_2744" data-name="Group 2744">
                <g id="Group_2735" data-name="Group 2735">
                  <g id="Group_2721" data-name="Group 2721">
                    <path id="Path_9205" data-name="Path 9205" d="M99.84,16.318a1.976,1.976,0,0,0-1.874.767l-.023.024a6.251,6.251,0,0,0-1.276,5.506l.01.032a1.95,1.95,0,0,0,1.388,1.52l2.578.621,1.58-7.894Z" fill="#577afa"/>
                  </g>
                  <g id="Group_2722" data-name="Group 2722" opacity="0.7">
                    <path id="Path_9206" data-name="Path 9206" d="M99.84,16.318a1.976,1.976,0,0,0-1.874.767l-.023.024a6.251,6.251,0,0,0-1.276,5.506l.01.032a1.95,1.95,0,0,0,1.388,1.52l2.578.621,1.58-7.894Z" fill="#fff"/>
                  </g>
                  <g id="Group_2723" data-name="Group 2723" opacity="0.05">
                    <path id="Path_9207" data-name="Path 9207" d="M98.065,24.167l2.578.621.524-2.617-4.691-1.087a4.983,4.983,0,0,0,.191,1.53l.01.033a1.95,1.95,0,0,0,1.388,1.52Z"/>
                  </g>
                  <g id="Group_2724" data-name="Group 2724">
                    <path id="Path_9208" data-name="Path 9208" d="M105.065,16.54h0a2.345,2.345,0,0,0-2.1.749,4.724,4.724,0,0,0-.472.51,5.53,5.53,0,0,0-.379.533,7.161,7.161,0,0,0-.572,1.106,8.526,8.526,0,0,0-.642,3.373,6.042,6.042,0,0,0,.244,1.6,2.517,2.517,0,0,0,1.608,1.878l-2.453-.567v0a2.82,2.82,0,0,1-1.94-1.952,5.938,5.938,0,0,1-.24-1.529,8.5,8.5,0,0,1,.639-3.447,7.072,7.072,0,0,1,.572-1.106,5.341,5.341,0,0,1,.628-.823c.073-.078.148-.15.225-.219a2.8,2.8,0,0,1,2.377-.681v0l.069.015c.028.007.058.013.087.022Z" fill="#577afa"/>
                  </g>
                  <g id="Group_2725" data-name="Group 2725" opacity="0.1">
                    <path id="Path_9209" data-name="Path 9209" d="M100.3,25.727v0a2.82,2.82,0,0,1-1.94-1.952,5.934,5.934,0,0,1-.24-1.529l2.78.571a6,6,0,0,0,.244,1.6,2.517,2.517,0,0,0,1.609,1.878Z"/>
                  </g>
                  <g id="Group_2726" data-name="Group 2726">
                    <path id="Path_9210" data-name="Path 9210" d="M106.73,18.434a7.824,7.824,0,0,1-1.6,6.9,2.475,2.475,0,0,1-2.337.965.293.293,0,0,1-.04-.01,2.52,2.52,0,0,1-1.61-1.877,7.835,7.835,0,0,1,1.6-6.906,2.16,2.16,0,0,1,3.987.924Z" fill="#577afa"/>
                  </g>
                  <g id="Group_2727" data-name="Group 2727" opacity="0.2">
                    <path id="Path_9211" data-name="Path 9211" d="M106.73,18.434a7.824,7.824,0,0,1-1.6,6.9,2.475,2.475,0,0,1-2.337.965.293.293,0,0,1-.04-.01,2.52,2.52,0,0,1-1.61-1.877,7.835,7.835,0,0,1,1.6-6.906,2.16,2.16,0,0,1,3.987.924Z"/>
                  </g>
                  <g id="Group_2728" data-name="Group 2728">
                    <path id="Path_9212" data-name="Path 9212" d="M116.953,14.706s-2.884,2.8-4.263,8.747a24.038,24.038,0,0,0-.526,3.244,16.42,16.42,0,0,0,.508,6.487,20.278,20.278,0,0,0-6.553-5.719,33.678,33.678,0,0,0-3.262-1.381v0a2.281,2.281,0,0,1-1.5-1.732,6.139,6.139,0,0,1-.224-2.108,8.218,8.218,0,0,1,.2-1.419,7.027,7.027,0,0,1,1.572-3.156,2.281,2.281,0,0,1,2.106-.9v0a33.411,33.411,0,0,0,3.537.194,20.292,20.292,0,0,0,8.4-2.253Z" fill="#577afa"/>
                  </g>
                  <g id="Group_2729" data-name="Group 2729" opacity="0.7">
                    <path id="Path_9213" data-name="Path 9213" d="M116.953,14.706s-2.884,2.8-4.263,8.747a24.038,24.038,0,0,0-.526,3.244,16.42,16.42,0,0,0,.508,6.487,20.278,20.278,0,0,0-6.553-5.719,33.678,33.678,0,0,0-3.262-1.381v0a2.281,2.281,0,0,1-1.5-1.732,6.139,6.139,0,0,1-.224-2.108,8.218,8.218,0,0,1,.2-1.419,7.027,7.027,0,0,1,1.572-3.156,2.281,2.281,0,0,1,2.106-.9v0a33.411,33.411,0,0,0,3.537.194,20.292,20.292,0,0,0,8.4-2.253Z" fill="#fff"/>
                  </g>
                  <g id="Group_2730" data-name="Group 2730" opacity="0.05">
                    <path id="Path_9214" data-name="Path 9214" d="M112.164,26.7a16.42,16.42,0,0,0,.508,6.487,20.278,20.278,0,0,0-6.553-5.719,33.644,33.644,0,0,0-3.262-1.381v0a2.281,2.281,0,0,1-1.5-1.732,6.139,6.139,0,0,1-.224-2.108C104.124,22.748,109.047,23.863,112.164,26.7Z"/>
                  </g>
                  <g id="Group_2731" data-name="Group 2731">
                    <path id="Path_9215" data-name="Path 9215" d="M124.884,17.622a16.649,16.649,0,0,1,.285,7.565h0a17.757,17.757,0,0,1-4.094,8.865c-3.67,3.93-7.918,2.946-9.486-2.2a14.293,14.293,0,0,1-.578-3.81,20.087,20.087,0,0,1,2.362-9.773,15.5,15.5,0,0,1,1.024-1.63h0a12.688,12.688,0,0,1,1-1.218c3.672-3.93,7.92-2.948,9.488,2.2Z" fill="#577afa"/>
                  </g>
                  <g id="Group_2732" data-name="Group 2732" opacity="0.1">
                    <path id="Path_9216" data-name="Path 9216" d="M125.169,25.188a17.757,17.757,0,0,1-4.094,8.865c-3.671,3.93-7.918,2.946-9.486-2.2a14.293,14.293,0,0,1-.578-3.81c.5.574,1.878,1.193,2.16.38a12.905,12.905,0,0,0,.518,3.377,5.786,5.786,0,0,0,2,3.161,2.76,2.76,0,0,0,2.476.341,6.42,6.42,0,0,0,2.684-1.839,16.4,16.4,0,0,0,3.662-7.6s.349.15.653-.672Z"/>
                  </g>
                  <g id="Group_2733" data-name="Group 2733">
                    <path id="Path_9217" data-name="Path 9217" d="M124.42,18.077a16.014,16.014,0,0,1,.1,7.783,16.4,16.4,0,0,1-3.662,7.6A6.42,6.42,0,0,1,118.17,35.3a2.763,2.763,0,0,1-2.476-.34,5.789,5.789,0,0,1-2-3.162,12.9,12.9,0,0,1-.518-3.377c-.014-.453-.008-.913.017-1.377a19.9,19.9,0,0,1,1.492-6.5c0-.01.009-.02.012-.03a16.581,16.581,0,0,1,.81-1.66,14.315,14.315,0,0,1,.977-1.511,11.505,11.505,0,0,1,.774-.927,6.438,6.438,0,0,1,2.686-1.844c1.956-.6,3.631.714,4.481,3.5Z" fill="#577afa"/>
                  </g>
                  <g id="Group_2734" data-name="Group 2734" opacity="0.3">
                    <path id="Path_9218" data-name="Path 9218" d="M124.42,18.077a16.014,16.014,0,0,1,.1,7.783,16.4,16.4,0,0,1-3.662,7.6A6.42,6.42,0,0,1,118.17,35.3a2.763,2.763,0,0,1-2.476-.34,5.789,5.789,0,0,1-2-3.162,12.9,12.9,0,0,1-.518-3.377c-.014-.453-.008-.913.017-1.377a19.9,19.9,0,0,1,1.492-6.5c0-.01.009-.02.012-.03a16.581,16.581,0,0,1,.81-1.66,14.315,14.315,0,0,1,.977-1.511,11.505,11.505,0,0,1,.774-.927,6.438,6.438,0,0,1,2.686-1.844c1.956-.6,3.631.714,4.481,3.5Z"/>
                  </g>
                </g>
                <g id="Group_2737" data-name="Group 2737">
                  <g id="Group_2736" data-name="Group 2736">
                    <path id="Path_9219" data-name="Path 9219" d="M117.95,21.431l-1.22,6.148c-.886-.057-2.378-.124-3.56-.07a19.8,19.8,0,0,1,1.51-6.961l.012-.03c.055-.127.109-.254.166-.379a19.135,19.135,0,0,0,3.091,1.292Z" fill="#577afa"/>
                  </g>
                </g>
                <g id="Group_2739" data-name="Group 2739" opacity="0.4">
                  <g id="Group_2738" data-name="Group 2738" opacity="0.4">
                    <path id="Path_9220" data-name="Path 9220" d="M117.95,21.431l-1.22,6.148c-.886-.057-2.378-.124-3.56-.07a19.8,19.8,0,0,1,1.51-6.961l.012-.03c.055-.127.109-.254.166-.379a19.135,19.135,0,0,0,3.091,1.292Z" fill="#fff"/>
                  </g>
                </g>
                <g id="Group_2741" data-name="Group 2741">
                  <g id="Group_2740" data-name="Group 2740">
                    <path id="Path_9221" data-name="Path 9221" d="M116.962,27.493c-.64.195-1.18-.206-1.443-1.071l-.008-.027a4.942,4.942,0,0,1,1.008-4.352l.02-.02a1.9,1.9,0,0,1,.808-.55c.64-.195,1.179.206,1.443,1.071l.008.027a4.943,4.943,0,0,1-1.009,4.352l-.019.02A1.923,1.923,0,0,1,116.962,27.493Z" fill="#577afa"/>
                  </g>
                </g>
                <g id="Group_2743" data-name="Group 2743" opacity="0.7">
                  <g id="Group_2742" data-name="Group 2742" opacity="0.7">
                    <path id="Path_9222" data-name="Path 9222" d="M116.962,27.493c-.64.195-1.18-.206-1.443-1.071l-.008-.027a4.942,4.942,0,0,1,1.008-4.352l.02-.02a1.9,1.9,0,0,1,.808-.55c.64-.195,1.179.206,1.443,1.071l.008.027a4.943,4.943,0,0,1-1.009,4.352l-.019.02A1.923,1.923,0,0,1,116.962,27.493Z" fill="#fff"/>
                  </g>
                </g>
              </g>
              <g id="Group_2763" data-name="Group 2763" opacity="0.1">
                <g id="Group_2746" data-name="Group 2746" opacity="0.1">
                  <g id="Group_2745" data-name="Group 2745" opacity="0.1">
                    <path id="Path_9223" data-name="Path 9223" d="M115.477,11.678a.665.665,0,0,1-.83-.443L112.77,5.081a.665.665,0,0,1,1.273-.388l1.877,6.154a.666.666,0,0,1-.443.831Z"/>
                  </g>
                </g>
                <g id="Group_2748" data-name="Group 2748" opacity="0.1">
                  <g id="Group_2747" data-name="Group 2747" opacity="0.1">
                    <path id="Path_9224" data-name="Path 9224" d="M110.334,14.886a.665.665,0,0,1-.649-.15l-4.7-4.392a.666.666,0,1,1,.91-.972l4.7,4.391a.666.666,0,0,1-.259,1.123Z"/>
                  </g>
                </g>
                <g id="Group_2750" data-name="Group 2750" opacity="0.1">
                  <g id="Group_2749" data-name="Group 2749" opacity="0.1">
                    <path id="Path_9225" data-name="Path 9225" d="M113.55,46.324a.665.665,0,0,1-.841-.788l1.451-6.267a.666.666,0,0,1,1.3.3L114,45.837a.665.665,0,0,1-.455.487Z"/>
                  </g>
                </g>
                <g id="Group_2752" data-name="Group 2752" opacity="0.1">
                  <g id="Group_2751" data-name="Group 2751" opacity="0.1">
                    <path id="Path_9226" data-name="Path 9226" d="M125.228,43.665a.665.665,0,0,1-.83-.443l-1.877-6.155a.666.666,0,1,1,1.274-.388l1.876,6.155a.666.666,0,0,1-.443.83Z"/>
                  </g>
                </g>
                <g id="Group_2754" data-name="Group 2754" opacity="0.1">
                  <g id="Group_2753" data-name="Group 2753" opacity="0.1">
                    <path id="Path_9227" data-name="Path 9227" d="M132.153,35.265a.665.665,0,0,1-.649-.15l-4.7-4.392a.666.666,0,1,1,.91-.973l4.7,4.392a.666.666,0,0,1-.26,1.123Z"/>
                  </g>
                </g>
                <g id="Group_2756" data-name="Group 2756" opacity="0.1">
                  <g id="Group_2755" data-name="Group 2755" opacity="0.1">
                    <path id="Path_9228" data-name="Path 9228" d="M136.568,26.976a.66.66,0,0,1-.344.012l-6.268-1.453a.666.666,0,0,1,.3-1.3l6.268,1.453a.665.665,0,0,1,.044,1.285Z"/>
                  </g>
                </g>
                <g id="Group_2758" data-name="Group 2758" opacity="0.1">
                  <g id="Group_2757" data-name="Group 2757" opacity="0.1">
                    <path id="Path_9229" data-name="Path 9229" d="M136.248,17.588l-6.154,1.877a.666.666,0,0,1-.389-1.273l6.155-1.877a.665.665,0,1,1,.388,1.273Z"/>
                  </g>
                </g>
                <g id="Group_2760" data-name="Group 2760" opacity="0.1">
                  <g id="Group_2759" data-name="Group 2759" opacity="0.1">
                    <path id="Path_9230" data-name="Path 9230" d="M126.886,14.321a.666.666,0,0,1-.68-1.09l4.39-4.7a.665.665,0,0,1,.973.908l-4.391,4.7a.657.657,0,0,1-.292.182Z"/>
                  </g>
                </g>
                <g id="Group_2762" data-name="Group 2762" opacity="0.1">
                  <g id="Group_2761" data-name="Group 2761" opacity="0.1">
                    <path id="Path_9231" data-name="Path 9231" d="M121.535,11.472a.666.666,0,0,1-.842-.787l1.452-6.269a.666.666,0,0,1,1.3.3l-1.452,6.268a.665.665,0,0,1-.455.487Z"/>
                  </g>
                </g>
              </g>
              <g id="Group_2764" data-name="Group 2764">
                <path id="Path_9232" data-name="Path 9232" d="M96.727,33.254c1.27-1.61,1.319-2.618,2.308-3.406a3.428,3.428,0,0,1,3.458-.418c1.11.319,2.412.16,2.862.572.127.085-.072.8-.593,1.055a6.175,6.175,0,0,1-2.387.236c-1.7.01-.307,1.678-1.945,3.372-.7,1.214-3.7-1.411-3.7-1.411Z" fill="#ffa8a7"/>
              </g>
            </g>
          </g>
        </g>
      </g>
      <g id="Group_2779" data-name="Group 2779">
        <g id="Group_2769" data-name="Group 2769" opacity="0.1">
          <path id="Path_9233" data-name="Path 9233" d="M92.737,132.731a3.63,3.63,0,0,1-1.793-.45L69.733,120.033a2.195,2.195,0,0,1,0-3.926l35.124-20.279a3.782,3.782,0,0,1,3.586,0l21.21,12.247a2.194,2.194,0,0,1,0,3.926L94.529,132.28A3.615,3.615,0,0,1,92.737,132.731Z"/>
        </g>
        <g id="Group_2778" data-name="Group 2778">
          <g id="Group_2770" data-name="Group 2770">
            <path id="Path_9234" data-name="Path 9234" d="M69.548,115.8v.394a2.186,2.186,0,0,0,.99,1.713l21.21,12.246a2.186,2.186,0,0,0,1.977,0l35.125-20.279a2.185,2.185,0,0,0,.989-1.712v-.394a2.184,2.184,0,0,0-.99-1.713l-21.21-12.246a2.188,2.188,0,0,0-1.978,0l-35.124,20.28a2.18,2.18,0,0,0-.989,1.711Z" fill="#577afa"/>
          </g>
          <g id="Group_2771" data-name="Group 2771">
            <path id="Path_9235" data-name="Path 9235" d="M69.548,115.8v.394a2.186,2.186,0,0,0,.99,1.713l21.21,12.246a2.186,2.186,0,0,0,1.977,0l35.125-20.279a2.185,2.185,0,0,0,.989-1.712v-.394a2.184,2.184,0,0,0-.99-1.713l-21.21-12.246a2.188,2.188,0,0,0-1.978,0l-35.124,20.28a2.18,2.18,0,0,0-.989,1.711Z" fill="#577afa"/>
          </g>
          <g id="Group_2772" data-name="Group 2772" opacity="0.2">
            <path id="Path_9236" data-name="Path 9236" d="M92.737,101.274l-22.2,12.817a2.185,2.185,0,0,0-.989,1.712v.394a2.186,2.186,0,0,0,.99,1.713l21.21,12.246a2.015,2.015,0,0,0,.989.237Z"/>
          </g>
          <g id="Group_2773" data-name="Group 2773" opacity="0.15">
            <path id="Path_9237" data-name="Path 9237" d="M92.737,101.274l-22.2,12.817a2.185,2.185,0,0,0-.989,1.712v.394a2.186,2.186,0,0,0,.99,1.713l21.21,12.246a2.015,2.015,0,0,0,.989.237Z"/>
          </g>
          <g id="Group_2774" data-name="Group 2774" opacity="0.2">
            <path id="Path_9238" data-name="Path 9238" d="M128.85,106.058,107.639,93.812a2.188,2.188,0,0,0-1.978,0l-12.924,7.462v29.119a2.011,2.011,0,0,0,.988-.237l35.125-20.278a2.189,2.189,0,0,0,.989-1.713v-.394a2.184,2.184,0,0,0-.99-1.713Z"/>
          </g>
          <g id="Group_2775" data-name="Group 2775">
            <path id="Path_9239" data-name="Path 9239" d="M88.352,125.518,70.537,115.233a.6.6,0,0,1,0-1.142l35.124-20.28a2.194,2.194,0,0,1,1.978,0l21.21,12.247a.6.6,0,0,1,0,1.142l-5.826,3.364-2.04,1.177L93.725,127.479a2.186,2.186,0,0,1-1.977,0l-1.728-1Z" fill="#577afa"/>
          </g>
          <g id="Group_2776" data-name="Group 2776" opacity="0.15">
            <path id="Path_9240" data-name="Path 9240" d="M104.524,108.431l24.326-2.373-24.112,1.365,2.9-13.611a2.055,2.055,0,0,0-1.076-.227l-4.55,18.4-31.877,2.628a.663.663,0,0,0,.4.62l25.743-1.5-3.543,13.977,4.53-14.034,4.4-.255a2.378,2.378,0,0,0,1.45-.607h0v0a2.394,2.394,0,0,0,.743-1.276Z"/>
          </g>
          <g id="Group_2777" data-name="Group 2777" opacity="0.3">
            <path id="Path_9241" data-name="Path 9241" d="M77.741,113.986l24.271-2,.87-3.478.478-1.936,3.205-12.985a1.982,1.982,0,0,0-.9.227L88.1,103.952,70.537,114.09a.716.716,0,0,0-.4.522l4.869-.4Z" fill="#fff"/>
          </g>
        </g>
      </g>
    </g>
  </g>
</svg>
