<svg xmlns="http://www.w3.org/2000/svg" width="928.229" height="545.182" viewBox="0 0 928.229 545.182">
  <g id="Group_2120" data-name="Group 2120" transform="translate(-70.709 -60.54)">
    <g id="color" transform="translate(70.709 60.54)">
      <g id="hawaii" transform="translate(255.527 467.725)">
        <g id="Group_2188" data-name="Group 2188">
          <path id="Path_8586" data-name="Path 8586" d="M589.819,835.834c2.744.458,7.774,2.173,9.776,3.945s4,2.8,5.374,5.545,1.772,3.258,3.03,3.887,1.943,1.087,1.772,2.058a7.373,7.373,0,0,1-4.745,4.745c-2.973.857-4.459.343-5.488.857s-4.059,4.688-4.916,5.488a2.807,2.807,0,0,1-4.173-.057,6.886,6.886,0,0,1-1.544-4.574c0-.743.286-3.83-.629-5.545S586.1,847.9,586.1,846.7s.285-1.54,1.258-2.458c1.029-.972,2.858-2.687,2.458-4.4a13.15,13.15,0,0,1-.743-2.972C589.133,836.063,589.526,835.786,589.819,835.834Z" transform="translate(-503.242 -794.528)" fill="#4c8ef0"/>
          <path id="Path_8587" data-name="Path 8587" d="M566.77,812.109c.743-.915,1.658-1.143,4.173.171s6.954,3.041,7.547,3.545c.928.788,1.513,2.3-.114,3.258-1.516.9-4.168,1.928-5.488,1.372-2.173-.915-6.289-5.889-6.289-6.8A6.462,6.462,0,0,1,566.77,812.109Z" transform="translate(-496.544 -786.125)" fill="#4c8ef0"/>
          <path id="Path_8588" data-name="Path 8588" d="M554.844,814.5a7.263,7.263,0,0,1,3.259.629c1.029.685,1.83,1.943,1.087,3.2s-2.572-.343-3.43-1.544S555.3,814.733,554.844,814.5Z" transform="translate(-492.506 -787.204)" fill="#4c8ef0"/>
          <path id="Path_8589" data-name="Path 8589" d="M549.272,807.906a56.871,56.871,0,0,0,6,1.486c1.372.114,4.059-.115,4.4-1.773C557.675,807.277,551.387,806.534,549.272,807.906Z" transform="translate(-490.593 -784.665)" fill="#4c8ef0"/>
          <path id="Path_8590" data-name="Path 8590" d="M524.159,790.267s1.86,3.939,3.063,5.143,3.283,2.079,3.174,2.955-1.97.985-3.174.766a8.212,8.212,0,0,1-2.845-1.641s-1.095,1.423-2.188.766-3.392-3.611-3.283-4.924C521.423,791.69,524.159,790.267,524.159,790.267Z" transform="translate(-480.163 -778.881)" fill="#4c8ef0"/>
          <path id="Path_8591" data-name="Path 8591" d="M480.663,773.259c1.1.368,1.2,5.253.548,6.456s-2.517.219-3.5-.219-4.6-1.313-3.283-4.049S478.693,772.6,480.663,773.259Z" transform="translate(-464.79 -772.925)" fill="#4c8ef0"/>
          <path id="Path_8592" data-name="Path 8592" d="M461.874,780.267s2.079.985.657,2.408a3.231,3.231,0,0,1-2.626,1.2S459.686,781.142,461.874,780.267Z" transform="translate(-459.899 -775.446)" fill="#4c8ef0"/>
          <path id="Path_8593" data-name="Path 8593" d="M569.817,826s-.279-.479-1.356,0-2.233.8-2.113,1.2,1.794,1.117,2.631,1.077,1.675-.8,1.555-1.316A2.057,2.057,0,0,0,569.817,826Z" transform="translate(-496.454 -791.078)" fill="#4c8ef0"/>
        </g>
      </g>
      <g id="alaska" transform="translate(0 396.911)">
        <path id="Path_8594" data-name="Path 8594" d="M227.035,683.76s-2.26-4.675-5.688-5.22-6.233,1.247-7.168.7-2.1-1.4-1.636-2.571c-2.727.779-4.052,1.792-6.623-.156s-2.181-3.506-5.532-3.429-5.61,1.013-7.168-1.169-.467-3.583-.467-3.583a5.444,5.444,0,0,0-4.753,1.48,5.107,5.107,0,0,0-3.194-4.207,9.312,9.312,0,0,0-6-.077c-1.87.623-2.882,1.169-4.518.935a4.014,4.014,0,0,0-3.195.467c-.857.545-1.48,1.169-2.337.935s-2.883-.935-4.207-.39A4.385,4.385,0,0,0,161.9,670.2c-.546,1.4-2.025,4.6-3.662,5.3s-5.532,3.35-11.531.935c2.337,4.675,7.168,15.115,7.869,17.686s2.571,6.7,1.481,7.558-2.337.545-3.428.234a40.239,40.239,0,0,1-4.675-2.416s1.324-2.025.545-2.883-2.1-1.792-6.622.546c-3.818-.312-6.545-.546-9.272.546,1.87,2.727,2.1,3.272,2.571,6s.078,5.3,2.883,6.934,10.129,4.364,12.232,3.818a10.42,10.42,0,0,0,3.194-1.324,2.465,2.465,0,0,1,.935,2.1c-.234,1.169-1.636,6.311-2.883,7.168s-12.154,3.194-12.154,3.194l-.077-2.1a12.166,12.166,0,0,0-6.623,2.8c-3.428,2.727-6.389,6.311-6.155,8.571a7.48,7.48,0,0,0,1.481,3.74s-2.1,6-.389,9.193,4.675,4.987,7.168,4.052,2.571-1.4,2.571-1.4.546,6.388.234,7.089-1.324,1.481-1.636,2.571a16.893,16.893,0,0,0,0,4.052s3.428-1.558,6.233.156a10.115,10.115,0,0,1,3.818,5.3s2.571-3.272,5.532-1.792c2.8-.234,4.753-.468,4.364.156s-5.532,9.817-6.545,10.674-4.753,2.026-4.519,5.22c-5.064.468-9.973,2.026-12.232,5.142-2.882-1.4-5.064-1.792-10.051,1.091s-8.336,1.169-8.336,1.169-4.752.935-4.6,2.649,1.636,1.558,4.052,1.324,9.505-.7,14.18-2.337,10.44-3.428,13.089-1.091c3.116-3.117,6-5.3,12.465-7.168,6.623-3.194,15.817-8.258,16.985-10.362s0-2.494-.623-4.285-1.4-2.883,2.727-5.064,6.311-6.311,7.246-7.324,9.428-7.168,11.531-.546l-.623.857s-1.87-1.325-3.506-.624-6.623,7.168-5.065,9.272c-2.337,2.1-3.506,3.35-3.506,3.35s1.247,1.792,2.961,1.325,8.336-4.675,9.817-5.3,3.272-1.558,5.765.7c3.506-.545,4.675-.468,4.6-1.48s-1.091-1.636-3.662-1.013c-1.013-3.74-.312-5.064.623-5.922s4.207-2.415,6.155-.156a17.026,17.026,0,0,0,5.843,4.83,58.447,58.447,0,0,0,13.323,4.6c5.376,1.012,8.726,1.792,10.6,3.9s7.87,10.129,14.492,9.739a23.343,23.343,0,0,0-.935,3.195,12.131,12.131,0,0,1,3.662,7.635c3.584,2.8,6.233,5.3,6.467,6.778l.156-6.077s2.649,6,2.415,7.557a35.618,35.618,0,0,1,1.948-3.583s1.324,5.765.234,9.973c1.87-.779,1.947-.467,1.947-.467l3.506,4.207s0-2.883.779-3.194,3.039,1.792,3.039,1.792-1.091-3.584.234-4.675,6.622,5.22,6.622,5.22a6.15,6.15,0,0,0,2.727-6.233c-.546-4.441-2.494-6.311-4.753-7.323s-5.453-1.091-6.388-2.493-8.259-11.843-10.441-14.492-5.532-6.545-7.09-7.713-2.337-1.714-4.207-.312-1.325,4.441-2.649,5.142-2.649-.078-3.9-2.259-3.272-2.416-4.052-3.74-3.584-5.454-3.584-5.454a3.426,3.426,0,0,1-3.194,1.636c-2.025-.312-4.285-1.247-4.285-4.908s-.156-31.71-.156-35.45S227.035,683.76,227.035,683.76Z" transform="translate(-84.072 -665.07)" fill="#3664a8"/>
        <path id="Path_8595" data-name="Path 8595" d="M202.023,842.744s1.721,2.582,1.339,3.155-3.251,1.626-4.494,2.487-4.208,3.06-5.069,1.721a5.981,5.981,0,0,1,.382-6.6c1.817-2.2,4.208-1.339,6.216-.765S202.023,842.744,202.023,842.744Z" transform="translate(-112.703 -725.864)" fill="#3664a8"/>
        <path id="Path_8596" data-name="Path 8596" d="M203.838,835.765s2.008,1.339,2.964.861,2.391-1.722,1.435-2.486-1.626-.956-2.582-.191A14.24,14.24,0,0,0,203.838,835.765Z" transform="translate(-116.431 -722.902)" fill="#3664a8"/>
        <path id="Path_8597" data-name="Path 8597" d="M87.678,861.3s4.3,1.243,3.729,3.155-5.26,1.244-5.26,1.244Z" transform="translate(-76.011 -732.461)" fill="#3664a8"/>
        <path id="Path_8598" data-name="Path 8598" d="M77.307,864.619v1.339s-5.164.383-6.6,1.626C72.717,865.289,74.63,864.332,77.307,864.619Z" transform="translate(-70.709 -733.585)" fill="#3664a8"/>
        <path id="Path_8599" data-name="Path 8599" d="M125.232,784.1s.765,1.722,0,2.582-4.3,1.53-5.356-.861.191-3.06,1.148-2.773S124.18,784.766,125.232,784.1Z" transform="translate(-87.457 -705.566)" fill="#3664a8"/>
        <path id="Path_8600" data-name="Path 8600" d="M114.1,728.457s4.59,3.634,5.642,6.216,0,3.156-.573,2.869-1.339-2.1-2.3-2.773-4.017-2.964-3.921-4.112A4.229,4.229,0,0,1,114.1,728.457Z" transform="translate(-85.215 -686.839)" fill="#3664a8"/>
      </g>
      <g id="states" transform="translate(57.697)">
        <g id="Michigan" transform="translate(526.079 64.621)">
          <path id="Michigan-2" data-name="Michigan" d="M1107.144,309.374a1.953,1.953,0,0,1-.61-2.02c.078-.774,2.36-4.334,3.715-6.308a5.043,5.043,0,0,1,1.935-6.889c.929-5.65,5.07-7.354,5.07-7.354s.31-4.373.5-7.275c-1.471-1.122-2.632-6.966-3.482-10.333s-2.477-7.585-5.767-8.4-5.263,1.471-6,1.935-1.509,8.707-6.115,7.082-3.444-5.457-3.1-6.23,1.664-1.2,2.941-1.471a7.29,7.29,0,0,1,4.1-6.656s.039-5.922.039-8.824-1.548-4.064-2.593-5.147a2.019,2.019,0,0,1-.7-2.012s1.122-.658,2.283-1.393c-2.012-.58-2.593-2.941-3.406-4.76a18.579,18.579,0,0,1-11.106-3.212,2.674,2.674,0,0,0-2.206-.5c-4.141.542-5.728-2.052-5.728-2.052s-.232.155-3.018,1.664-2.554,2.129-2.477,3.019,3.251,3.754,3.251,3.754a13.25,13.25,0,0,1-4.412,1.9c-2.438.5-1.664,2.941-1.51,4.605a33.152,33.152,0,0,0,1.393,5.225s-3.792,1.974-4.683,1.9-.967-1.354-1.006-2.438,1.509-5.186,1.819-6.115c-.5-.542-1.819-.077-1.819-.077s-.7,2.438-1.2,3.909c-2.322.5-4.179,3.212-4.179,3.212a3.566,3.566,0,0,1,.387,2.748c-.387,1.664-2.864,1.432-2.864,1.432a18.545,18.545,0,0,1,.658,4.18c0,1.857-.852,4.063-1.586,6.811s.116,6.115.116,7.353-2.205,5.34.581,9.365,5.379,7.9,5.921,11.494-.271,7.778-2.09,12.81a52.588,52.588,0,0,1-5.418,10.217s7.182-.246,12.1-.808c5.578-.638,18.647-2.072,18.647-2.072C1094.622,310.655,1101.495,310.135,1107.144,309.374Z" transform="translate(-992.456 -182.52)" fill="#4c8ef0"/>
          <path id="Path_8601" data-name="Path 8601" d="M1051.237,202.191c-.427-.6-.641-1.537-.769-4.569s-.171-2.092-.555-2.776a30.394,30.394,0,0,1-7.046,2.391c-2.691.6-4.868-.256-5.338-.9s-.214-3.075-.427-4.314-1.025-.854-1.879-.683-5.124,3.117-5.978,3.544-5.125.256-6.833.427-6.107,3.715-7.558,4.569-2.776,1.281-3.929.3a3.394,3.394,0,0,0-3.5-.725c-1.452.341-3.032.512-4.014-.086s-2.349-3.587-5.466-5.85a8.16,8.16,0,0,0-6.277-1.836c-1.238.043-3.117,3.032-4.1,3.245s-.812-.9-.726-1.622a20.561,20.561,0,0,1,2.135-4.527c.812-1.324,2.307-2.818,2.733-3.8s1.537-2.477,2.477-2.605,1.538-.64,1.495-1.238-.47-.726-2.392-.641-5.935,3.246-8.028,4.911-4.441,5.381-5.124,6.192a21.551,21.551,0,0,1-5.21,3.587,10.122,10.122,0,0,1-5.679,1.11c-1.41,0-1.879,2.007-3.2,3.417s-3.715,1.238-4.954,1.537a2.423,2.423,0,0,0-1.242,1.213,2.985,2.985,0,0,0,.726-.25,34.425,34.425,0,0,1,3.6,4.335,24.493,24.493,0,0,1,12.036,2.283,46.265,46.265,0,0,0,14.435,3.444c2.438.232,4.528,1.084,4.566,3.1.813.039,2.825.348,3.367,1.006-.039,1.354-.968,8.321.657,8.166a2.766,2.766,0,0,0,1.227-.27c-.044.727-.112,3.846,1.831,5.107-.108.273-.3.69-.545,1.186.341-.06.531-.1.531-.1a26.759,26.759,0,0,1,1.215-2.615c.769-1.452,4.4-10.975,4.868-12.256s.769-2.819,2.391-2.819a32.084,32.084,0,0,0,4.826-.3c1.153-.213,1.665.043,3.459.512,2.306-5.509,6.534-4.74,8.37-4.7s3.16-1.58,3.587-2.178c.47-.213,10.206.128,11.872.213s10.59-1.238,10.59-1.794S1051.664,202.789,1051.237,202.191Z" transform="translate(-959.849 -166.351)" fill="#4c8ef0"/>
          <path id="Path_8602" data-name="Path 8602" d="M1108.007,214.313s.388,3.473,2.307,3.516a2.5,2.5,0,0,0,2.453-1.37C1113.114,215.578,1111.8,214.14,1108.007,214.313Z" transform="translate(-1010.732 -177.967)" fill="#4c8ef0"/>
          <path id="Path_8603" data-name="Path 8603" d="M993.728,158.963a57.2,57.2,0,0,1-6.3,3.8c-1.848.761-4.346,1.739-3.477,3.043s2.282,1.63,4.346-.217S994.814,159.615,993.728,158.963Z" transform="translate(-968.065 -158.963)" fill="#4c8ef0"/>
        </g>
        <g id="Maine" transform="translate(810.067 28.848)">
          <g id="Group_2189" data-name="Group 2189">
            <path id="Maine-2" data-name="Maine" d="M1452.1,145.964c-1.067-1.723-3.72-2.511-3.72-2.511-1.019,1.529-2.421,1.656-4.078.255s-1.4-5.479-1.784-6.371-5.1-.509-5.862-1.146-8.028-26.251-8.792-27.652-6.116-3.186-7.646-3.95-3.569,2.675-4.843,3.823-1.656,1.02-3.44,1.4-2.8-1.784-4.715-3.7c-1.911,2.675-5.224,12.87-6.117,16.31s-.255,6.117-.509,7.646-1.02,1.274-1.529,4.715,1.784,4.842,1.911,6.244,0,2.166-2.549,6.371-1.529,10.322-1.529,10.322a13.044,13.044,0,0,0-3.313-.638,1.594,1.594,0,0,0-1.2.754c1.294,3.974,3.011,9.451,4.11,13.748,1.957,7.648,5.514,21.521,6.4,22.944s3.389,1.894,4.278,2.96c.859,1.03.156,3.253,3.427,3.164h0c.221-.173.464-.324.464-.324s.164-4.924.452-6.237,1.067-3.939,1.477-5.293a8.236,8.236,0,0,0,.369-2.544c.041-.574-.779-1.437-.779-1.437a.829.829,0,0,1,.164-.41c.164-.246,2.955-2.79,2.955-2.79a2.675,2.675,0,0,0,1.887.985c1.4.205,3-1.149,4.719-2.5s2.052-3.775,2.38-3.981a6.561,6.561,0,0,0,2.668-1.723c.739-1.067.656-5.95.615-7.427a2.084,2.084,0,0,1-1.026-1.231,5.358,5.358,0,0,1,2.462-1.683c.2,1.108.41,2.626,1.764,2.38,1.288-.234,1.519,2.75,1.559,3.652a2.555,2.555,0,0,0,1.477-2.708,13.341,13.341,0,0,1-.41-2.544c-.082-1.149,2.44-2.841,3.652-3.447.246-.123,1.846-.9,2.339.657s1.559.657,2.093.657,2.5-3.078,4.1-4.719a22.871,22.871,0,0,1,4.1-3.447,6.149,6.149,0,0,0,2.339-3.488A5.889,5.889,0,0,0,1452.1,145.964Z" transform="translate(-1392.387 -104.479)" fill="#4c8ef0"/>
            <path id="Path_8604" data-name="Path 8604" d="M1450.539,204.708s2.505,2.326.317,3.832C1448.8,207.924,1448.805,204.9,1450.539,204.708Z" transform="translate(-1411.924 -138.901)" fill="#4c8ef0"/>
            <path id="Path_8605" data-name="Path 8605" d="M1461.893,194.495s2.19,2.942-.752,3.763c-1.369-.068-1.748-.748-1.2-2.254A2.191,2.191,0,0,1,1461.893,194.495Z" transform="translate(-1415.505 -135.394)" fill="#4c8ef0"/>
          </g>
        </g>
        <g id="New_Hampshire" data-name="New Hampshire" transform="translate(801.119 82.212)">
          <g id="Group_2190" data-name="Group 2190">
            <path id="New_Hampshire-2" data-name="New Hampshire" d="M1404.925,233.064c-.018-.045-.04-.093-.056-.137-.574-1.6.575-3.857.779-4.1a1.92,1.92,0,0,1,.276-.251c-3.271.089-2.568-2.134-3.427-3.164-.889-1.067-3.388-1.538-4.278-2.96s-4.446-15.3-6.4-22.944c-1.1-4.3-2.816-9.774-4.11-13.748a7.064,7.064,0,0,0-.964,2.05,2.585,2.585,0,0,0-1.912-1.911c-1.656,2.039-2.039,6.881-2.039,6.881s-.389,3.842.38,5.251,2.05,2.947.512,5.893a13.055,13.055,0,0,1-4.356,4.74c-.512.384-.769,0-.384,3.715a135.234,135.234,0,0,1,.128,14.349c-.128,3.2-.513,7.43.256,11.145a35.753,35.753,0,0,0,1.061,3.807h0a55.052,55.052,0,0,1,6.358-1.6c2.882-.288,6.917-.288,9.944-1.586a64.275,64.275,0,0,0,8.236-5.423Z" transform="translate(-1378.759 -185.756)" fill="#4179cc"/>
          </g>
        </g>
        <g id="Vermont" transform="translate(779.105 89.231)">
          <g id="Group_2191" data-name="Group 2191">
            <path id="Vermont-2" data-name="Vermont" d="M1354.074,200.907c-1.729.391-5.094,1.416-8.844,2.445h0c.517,2.178,1,4.307,1.567,6.078,1.208,3.758,2.013,8.992,1.879,10.468s-.94,2.55.134,4.3,1.477,4.832,1.342,7.113a5.911,5.911,0,0,1,4.3,4.026,82.87,82.87,0,0,1,2.55,13.555c0,.029,0,.066,0,.1,2.759-.876,7.751-2.442,11.875-3.637a35.75,35.75,0,0,1-1.061-3.807c-.769-3.715-.384-7.942-.256-11.145a135.234,135.234,0,0,0-.128-14.349c-.385-3.715-.128-3.331.384-3.715a13.054,13.054,0,0,0,4.356-4.74c1.538-2.947.256-4.484-.512-5.893s-.38-5.251-.38-5.251S1358.024,200.015,1354.074,200.907Z" transform="translate(-1345.23 -196.447)" fill="#3d71bf"/>
          </g>
        </g>
        <g id="Massachusets" transform="translate(790.613 129.519)">
          <path id="Massachusets-2" data-name="Massachusets" d="M1404.174,285.044c.082-.574,1.4-4.227,2.914-3.981s1.436,3.611,1.436,3.611a33.084,33.084,0,0,1,5.95-4.1,10.453,10.453,0,0,1,4.554-.779,9.777,9.777,0,0,0,.082-2.38c-.082-1.683-.533-2.75-2.257-4.6a2.836,2.836,0,0,0-3.488-.821s2.626,1.477,3,2.544-.656,2.339-1.929,3.488-4.514.041-5.17-.369-2.3-4.391-3.2-5.581-2.339-1.026-3.652-1.149-2.052-1.108-2.75-2.134-.287-2.3.041-3.365a18.249,18.249,0,0,1,2.544-3.611,19.118,19.118,0,0,1-2.817-4.009,64.271,64.271,0,0,1-8.236,5.423c-3.027,1.3-7.062,1.3-9.944,1.586-2.264.227-13.514,3.744-18.231,5.241-.016,2.259-.659,9.739.136,12.653.243.892.584,2.064.945,3.345-.173-.615-.343-1.208-.5-1.754a91.575,91.575,0,0,0,9.578-1.182c4.323-.865,15.277-3.459,15.277-3.459l7.061-1.873s.577.865,2.018,2.594a81.088,81.088,0,0,1,5.461,6.66c.475-.314.828-.544.934-.6C1404.3,286.234,1404.092,285.618,1404.174,285.044Z" transform="translate(-1362.757 -257.809)" fill="#4c8ef0"/>
          <path id="Path_8606" data-name="Path 8606" d="M1435.552,301.937a3.415,3.415,0,0,0-2.059.056c-.667.418-1.224,1.224-.945,1.419A2.673,2.673,0,0,0,1435.552,301.937Z" transform="translate(-1386.7 -272.914)" fill="#4c8ef0"/>
          <path id="Path_8607" data-name="Path 8607" d="M1443.686,301.978l2.782-2.337s1.7.445,1.669,1.391S1443.686,301.978,1443.686,301.978Z" transform="translate(-1390.551 -272.176)" fill="#4c8ef0"/>
        </g>
        <path id="Delaware" d="M1331.69,379.711c-2.066-1.476-4.92,1.181-4.92,1.181s3.051,10.431,3.641,13.58,2.952,14.171,2.952,14.171,2.264-.3,4.625-.59,3.823-.4,5.4-3.74c0,0-4.186-4.842-5.539-7.715a47.278,47.278,0,0,0-2.832-5.13c-1.026-1.313-3.775-3.159-4.1-4.144s-.821-3.529.246-3.857A7.887,7.887,0,0,1,1331.69,379.711Z" transform="translate(-559.785 -170.002)" fill="#4c8ef0"/>
        <g id="Rhode_Island" data-name="Rhode Island" transform="translate(816.311 149.498)">
          <g id="Group_2192" data-name="Group 2192" transform="translate(0 0)">
            <path id="Rhode_Island-2" data-name="Rhode Island" d="M1410.976,290.832c-1.441-1.729-2.018-2.594-2.018-2.594l-7.061,1.873s3.138,3.96,2.908,14.266c2.808-1.225,5.349-2.4,5.589-2.523.492-.246.575-.861,1.929-1.682.966-.586,2.93-1.9,4.113-2.68A81.106,81.106,0,0,0,1410.976,290.832Z" transform="translate(-1401.897 -288.238)" fill="#3d71bf"/>
          </g>
        </g>
        <g id="New_York" data-name="New York" transform="translate(695.013 96.136)">
          <g id="Group_2193" data-name="Group 2193">
            <path id="New_York-2" data-name="New York" d="M1332.953,284.939c-1.313.7-7.14,4.391-8.371,4.6a35.2,35.2,0,0,1-4.966-.082s-3.447,4.1-4.268,4.555-.533-2.708-.533-2.708l1.613-1.72a3.132,3.132,0,0,1-1.134-2.185c0-.806,2.416-1.879,2.416-1.879a7,7,0,0,1-1.611-1.745c-.4-.806,0-3.892-.134-6.711s-2.014-8.858-2.819-11.811-.134-10.6-.134-12.75a82.857,82.857,0,0,0-2.55-13.555,5.911,5.911,0,0,0-4.3-4.026c.135-2.282-.269-5.369-1.342-7.113s-.269-2.819-.134-4.3-.671-6.71-1.879-10.468c-.569-1.771-1.05-3.9-1.567-6.078-4.819,1.323-10.274,2.653-13.714,2.653-6.116,0-7.784,2.276-7.784,2.276-3.986,1.819-6.153,5.65-7.7,8.088a136.848,136.848,0,0,1-8.631,10.952c-2.515,2.9-.774,4.566-.774,4.566a4.563,4.563,0,0,1,2.322.89,9.936,9.936,0,0,1-.271,4.412s1.548,1.819,1.239,3.444-.929,1.741-3.29,2.554a23.149,23.149,0,0,1-6.618,6.385c-1.509.774-4.219.349-5.65.349s-3.174,2.09-4.064,2.167-2.051-1.2-7.739-.735-10.333,2.979-13.274,4.644c-.735,2.438,1.277,3.87,2.129,4.566a24.082,24.082,0,0,1,2.631,3.406s-5.108,6.618-9.21,11.03c-1.33,1.43-2.548,2.626-3.7,3.687l.4,5.665s13.35-1.095,23.2-2.846,30.64-7,35.454-8.316,6.785-1.094,11.381-.876,5.449,7.959,6.128,8.1c3.905.8,5.034,2.407,5.034,2.407a72.129,72.129,0,0,0,7.438,2.677c2.821.731,6.163,1.358,5.955,3.865s-.4,1.959.792,4.113c0,0,2.544.288,4.021.288s8.494-3.078,10.013-3.611,3.939-3.611,3.939-3.611,6.4-4.309,7.8-6.073C1336.687,282.887,1334.266,284.242,1332.953,284.939Z" transform="translate(-1217.151 -206.963)" fill="#3664a8"/>
          </g>
        </g>
        <g id="Connecticut" transform="translate(791.456 151.371)">
          <g id="Group_2194" data-name="Group 2194" transform="translate(0 0)">
            <path id="Connecticut-2" data-name="Connecticut" d="M1373.619,294.55a91.575,91.575,0,0,1-9.578,1.182c.9,3.175,2.259,7.842,2.372,10.221.134,2.819-.269,5.905.134,6.711a7,7,0,0,0,1.611,1.745s-2.416,1.073-2.416,1.879a3.131,3.131,0,0,0,1.133,2.185l.849-.906s6.238-5.54,8.043-6.853,6.319-2.052,8.658-2.5a57.115,57.115,0,0,0,7.378-2.853c.23-10.306-2.908-14.266-2.908-14.266S1377.942,293.685,1373.619,294.55Z" transform="translate(-1364.041 -291.091)" fill="#4179cc"/>
          </g>
        </g>
        <g id="New_Jersey" data-name="New Jersey" transform="translate(770.697 175.603)">
          <g id="Group_2195" data-name="Group 2195">
            <path id="New_Jersey-2" data-name="New Jersey" d="M1349.069,343.5l3.447-4.842c-1.194-2.154-1-1.606-.792-4.113s-3.134-3.134-5.955-3.865a72.126,72.126,0,0,1-7.438-2.677l-3.064,1.751c.656,3.721,0,4.377-2.188,7.441,1.97,3.064-.657,4.377-.657,4.377s.437,1.97.657,3.283,1.97,1.532,3.063,2.845,3.283,2.626,7.441,5.472c-3.064,1.094-9.953,8.937-9.953,8.937a7.886,7.886,0,0,0-.525,3.756c-.041,2.708,3.652,4.268,4.637,5.047a11.36,11.36,0,0,0,4.842,1.723c1.477.123,2.462.206,3,1.067-.164,2.134-.287,4.391-.287,4.391a5.563,5.563,0,0,0,2.093-.821c.452-.492.616-4.678.821-5.786s3.9-7.1,4.432-7.879,1.313-4.226,1.683-6.032.164-4.719.246-7.756-.041-4.35-1.108-5.5S1349.069,343.5,1349.069,343.5Z" transform="translate(-1332.423 -327.998)" fill="#3d71bf"/>
          </g>
        </g>
        <g id="Pensilvania" transform="translate(685.156 164.933)">
          <g id="Group_2196" data-name="Group 2196">
            <path id="Pensilvania-2" data-name="Pensilvania" d="M1249.622,366.364c5.117-.984,25.094-4.625,27.259-5.314a39.708,39.708,0,0,0,4.822-1.574,9.359,9.359,0,0,0,2.263-1.771s2.854-2.657,4.92-1.181c0,0,6.889-7.843,9.953-8.937-4.158-2.846-6.347-4.159-7.441-5.472s-2.845-1.532-3.063-2.845-.656-3.283-.656-3.283,2.626-1.313.656-4.377c2.188-3.064,2.845-3.72,2.188-7.441l3.064-1.751s-1.129-1.607-5.034-2.407c-.678-.139-1.532-7.879-6.128-8.1s-6.565-.437-11.381.876-25.606,6.566-35.454,8.316-23.2,2.846-23.2,2.846l-.4-5.665c-2.4,2.214-4.48,3.834-6.6,5.717a30.214,30.214,0,0,1-3.259,2.427h0c.743,5.108,2.127,14.391,2.7,16.67.8,3.188,1.753,11.475,1.753,11.475l2.5,18.944,16.285-2.882S1244.5,367.348,1249.622,366.364Z" transform="translate(-1202.138 -311.746)" fill="#4179cc"/>
          </g>
        </g>
        <g id="Maryland" transform="translate(708.395 210.89)">
          <path id="Path_8608" data-name="Path 8608" d="M1299.662,415.205l-.043-.028Z" transform="translate(-1258.856 -393.226)" fill="#3664a8"/>
          <path id="Path_8609" data-name="Path 8609" d="M1350.105,435.719h-.005c-.082.289-.159.581-.249.858C1349.941,436.3,1350.026,436.01,1350.105,435.719Z" transform="translate(-1276.107 -400.28)" fill="#3664a8"/>
          <path id="Path_8610" data-name="Path 8610" d="M1300.193,415.614c-.054-.046-.108-.092-.165-.136C1300.084,415.522,1300.139,415.567,1300.193,415.614Z" transform="translate(-1258.996 -393.329)" fill="#3664a8"/>
          <path id="Path_8611" data-name="Path 8611" d="M1312.746,405.164c-1.582,3.345-3.043,3.445-5.4,3.74s-4.625.59-4.625.59-2.362-11.022-2.952-14.171-3.641-13.58-3.641-13.58a9.363,9.363,0,0,1-2.263,1.771,39.722,39.722,0,0,1-4.822,1.574c-2.165.689-22.142,4.33-27.259,5.314s-24.245,4.272-24.245,4.272,1,5.888,1.377,10.147c1.5-.5,4.134-3.382,6.264-5.762,2.255,0,2.631-2.129,3.256-2.881s5.637-2,10.4-2.631a10.884,10.884,0,0,1,7.766,1.754s-.06.935-.156,2.1l0-.037c1.351-.184,3.517-.286,4.411.7,1.253,1.377.376,3.257,1.879,3.757a23.343,23.343,0,0,1,4.7,1.387c.2-.157.2-.219.2-.219a6.751,6.751,0,0,1,1.939-1.51c.5.678,2.552,3.357,2.552,3.357a3.439,3.439,0,0,1-2.155,1.965c0,2.238-1.773,4.246-1.982,5.292-.251,1.253,1.253,4.134,2.881,4.635a17.056,17.056,0,0,0,3.229.629,13.16,13.16,0,0,1,1.231-.533c.574-.206,4.145,1.067,5.458.779s1.026-1.682.492-3.857-1.4-3.037-2.914-5.786-.533-3.365-.328-6.032-.739-1.928-.287-5.868,5.211-5.376,6.155-5.088c-3.242,1.928-3.078,6.36-3.078,6.36s2.052,0,2.462,1.724-.164,3.775-.985,5.786c2.5.2,2.914,2.872,2.914,2.872a2.41,2.41,0,0,1-1.683.123c-.451,1.724,2.3,9.438,7.468,5.622,1.4,2.487,3.132,5.092,3.935,6.2a7.621,7.621,0,0,1,6.578-2.471c.379-1.383.653-2.865.895-4.1A56.046,56.046,0,0,0,1312.746,405.164Z" transform="translate(-1237.533 -381.743)" fill="#3664a8"/>
          <path id="Path_8612" data-name="Path 8612" d="M1301.307,416.848a3.278,3.278,0,0,0-.2-.289A3.278,3.278,0,0,1,1301.307,416.848Z" transform="translate(-1259.367 -393.7)" fill="#3664a8"/>
          <path id="Path_8613" data-name="Path 8613" d="M1302.108,419c-.009-.071-.018-.142-.031-.213C1302.09,418.855,1302.1,418.925,1302.108,419Z" transform="translate(-1259.7 -394.464)" fill="#3664a8"/>
          <path id="Path_8614" data-name="Path 8614" d="M1301.829,417.848a3.912,3.912,0,0,1,.125.436A3.645,3.645,0,0,0,1301.829,417.848Z" transform="translate(-1259.615 -394.143)" fill="#3664a8"/>
          <path id="Path_8615" data-name="Path 8615" d="M1301.723,417.621a3.121,3.121,0,0,0-.2-.435A3.157,3.157,0,0,1,1301.723,417.621Z" transform="translate(-1259.509 -393.915)" fill="#3664a8"/>
          <path id="Path_8616" data-name="Path 8616" d="M1300.541,415.918a3.842,3.842,0,0,1,.29.311A3.716,3.716,0,0,0,1300.541,415.918Z" transform="translate(-1259.172 -393.48)" fill="#3664a8"/>
        </g>
        <g id="North_Carolina" data-name="North Carolina" transform="translate(643.337 278.363)">
          <path id="Path_8617" data-name="Path 8617" d="M1358.836,509.574a34.353,34.353,0,0,1,.8,6.081c-.16,1.494-.481,3.1-1.975,4.11s-3.844,2.3-4.377,2.989a1.554,1.554,0,0,0-.427,1.174s4.449-2.192,6.352-4.216a8.917,8.917,0,0,0,2.081-5.925C1361.347,512.538,1360.542,511.074,1358.836,509.574Z" transform="translate(-1212.078 -493.118)" fill="#3664a8"/>
          <path id="Path_8618" data-name="Path 8618" d="M1280.48,503.816c.889-1.477-.616-4.391-.616-4.391s2.9.069,3.228-.588c.12-.24-.259-.833-.876-1.592-.24-.241-.5-.5-.8-.791-1.512.1-1.908,1.137-4.912,1.665-.6.105-3.059-.747-4.466.121-3.289,2.03-4.582-.286-4.06-.487,2.111-.812,3.7-3.058,6.251-4.265,1.934-.917,2.922.255,4.18-.5-.081-.093-.163-.188-.24-.278-1.86-2.188-4.351-8.2-4.351-8.2s-9.9,2.425-14.347,3.234-36.98,7.275-51.732,9.5-29.75,4.648-29.75,4.648.625,2.814,0,4.065-3.44,3.283-3.909,7.035c-2.345.313-4.378-.156-7.973,2.971-2.345-.782-4.378-.313-5.316,1.095s-1.407,5.159-1.407,5.159a6.549,6.549,0,0,0-4.221,1.407c-1.876,1.563-3.283,3.909-5.628,4.221s-6.411.938-6.723,6.1c-2.97,1.876-4.065,1.719-4.065,1.719a19.324,19.324,0,0,0-.141,5.7c4.62-.517,8.747-.93,10.708-1a77.236,77.236,0,0,0,9.562-.869s8.155-4.99,11.022-5.826a34.727,34.727,0,0,1,10.274-1.792c5.376-.239,12.663-1.434,15.172-.239s3.465,3.823,3.823,5.256a93.956,93.956,0,0,1,10.633-1.792c3.106-.359,9.438-1.195,9.438-1.195s19.764,12.383,22.206,14.444h0c.485-.187,1.007-.359,1.547-.518a36.519,36.519,0,0,1,7.7-1.451s1.4-6.812,3.9-10.833c.225-.361.452-.7.681-1.039.159-.281.316-.536.468-.752a17.989,17.989,0,0,1,2.948-3.236,16.566,16.566,0,0,1,4.274-2.81,25.354,25.354,0,0,1,5.9-1.552c2.186-.479,4.081-.94,4.82-1.813a30.329,30.329,0,0,0,2.467-4.013c.374-.762.76-1.525,1.171-2.224a12.747,12.747,0,0,1-2.3,2.153,15.35,15.35,0,0,1-1.512,1.089,4.915,4.915,0,0,0-1.081-1.568,6.82,6.82,0,0,0-3.844-.607l1.764-7.017c-1.7-.369-2.462-1.053-2.9-3.023,1.2,1.97,5.471,2.408,7.769,1.313s1.86-4.486,2.845-5.266S1279.591,505.293,1280.48,503.816Z" transform="translate(-1138.443 -484.51)" fill="#4179cc"/>
        </g>
        <g id="Virginia" transform="translate(652.364 226.312)">
          <path id="Virginia-2" data-name="Virginia" d="M1274.655,450.163a12.4,12.4,0,0,1-5.129.985c1.6-3.529-.78-5.5-1.847-6.894a5.4,5.4,0,0,1-1.354-2.914c.082-.287,2.5.123,2.5.123s-2.3-4.268-1.724-6.607a10.985,10.985,0,0,0,.492-3.077c-.68-1.549-1.6-1.641-2.955-2.011a9.062,9.062,0,0,1-3.283-1.723c-1.272-.9-2.913-.985-4.432-1.436a4.571,4.571,0,0,1-2.134-1.19,17.064,17.064,0,0,1-3.229-.629c-1.628-.5-3.132-3.382-2.881-4.635s2.756-3.883,1.754-6.639-5.512-3.131-7.015-3.633-.626-2.38-1.879-3.758c-.894-.984-3.06-.882-4.411-.7a23.92,23.92,0,0,1-.6,4.455c-.376.626-6.013-3.382-7.892-4.635-1.377-.25-1.127,2.631-1.127,4.134a5.85,5.85,0,0,1-1.5,4.134,84.555,84.555,0,0,0-5.386,7.266c-3.006-.877-2.881,3.507-3.006,5.512s-.251,3.006-3.132,3.131-3.883-3.006-3.883-3.006a19.854,19.854,0,0,1-1.879,4.885c-1.127,1.754-6.013,13.654-6.138,15.283s.626,3.382-.751,4.76-4.009,1.754-7.641,2.756c-.752,2.255-1,3.257-3.006,4.509s-5.262-.5-5.262-.5a7.411,7.411,0,0,1-5.511,2.38c-3.383-.125-4.447-4.228-4.447-4.228a74.43,74.43,0,0,1-7.016,6.368,26.982,26.982,0,0,0-5.073,4.318,5.646,5.646,0,0,0-.971,3.453c.107.756-.432,1.187-1.728,2.05a96.881,96.881,0,0,1-8.989,6.261c2.961-.337,5.18-.606,6.285-.768,6.41-.938,24.233-3.283,24.233-3.283s15-2.425,29.75-4.648,47.286-8.689,51.732-9.5,14.347-3.234,14.347-3.234-.919-2.671-1.175-3.673C1276.913,451.845,1276.789,449.3,1274.655,450.163Z" transform="translate(-1152.192 -405.233)" fill="#3d71bf"/>
          <path id="virginia-3" data-name="virginia" d="M1342.117,443.393c.082-1.97,1.149-2.872,2.339-4.6a10.568,10.568,0,0,0,1.288-3.124,7.621,7.621,0,0,0-6.586,2.471c.169.233.3.4.374.489.9,1.026-2.38,7.3-2.38,11.736,0,1.97.082,5.581,2.092,5.581.989,0,2.093-2.3,2.421-3.611S1342.035,445.362,1342.117,443.393Z" transform="translate(-1215.714 -415.657)" fill="#3d71bf"/>
        </g>
        <g id="West_Virginia" data-name="West Virginia" transform="translate(663.404 207.76)">
          <g id="Group_2197" data-name="Group 2197">
            <path id="West_Virginia-2" data-name="West Virginia" d="M1235.294,391.911c-4.76.626-9.771,1.879-10.4,2.631s-1,2.881-3.257,2.881c-2.129,2.38-4.76,5.261-6.264,5.762-.376-4.258-1.378-10.147-1.378-10.147l-16.285,2.882-2.5-18.944s-2.232.8-2.391,1.753.318,3.028.478,7.172.478,10.519-4.3,16.575-5.1,2.072-5.1,2.072-2.869,2.231-3.506,5.1-1.275,7.491-1.275,7.491l-3.028-2.71a10.579,10.579,0,0,0-2.55,5.1c-.319,2.709.478,4.941-1.275,6.853s-3.253,1.611-3.253,1.611c.108,3.886,0,4.749.54,5.936s2.59,1.3,3.346,2.591,2.266,5.18,4.425,6.908a51.174,51.174,0,0,0,4.425,3.13s1.064,4.1,4.447,4.228a7.411,7.411,0,0,0,5.511-2.38s3.257,1.754,5.262.5,2.255-2.255,3.006-4.509c3.632-1,6.263-1.378,7.641-2.756s.626-3.132.751-4.76,5.011-13.529,6.138-15.283a19.854,19.854,0,0,0,1.879-4.885s1,3.132,3.883,3.006,3.006-1.127,3.132-3.131,0-6.388,3.006-5.512a84.561,84.561,0,0,1,5.386-7.266,5.85,5.85,0,0,0,1.5-4.134c0-1.5-.25-4.384,1.127-4.134,1.879,1.253,7.516,5.261,7.892,4.635s.752-6.514.752-6.514A10.884,10.884,0,0,0,1235.294,391.911Z" transform="translate(-1169.007 -376.976)" fill="#4c8ef0"/>
          </g>
        </g>
        <g id="Ohio" transform="translate(619.163 179.614)">
          <g id="Group_2198" data-name="Group 2198" transform="translate(0)">
            <path id="Ohio-2" data-name="Ohio" d="M1169.677,364.007c.159-.957,2.391-1.753,2.391-1.753s-.957-8.288-1.753-11.475c-.57-2.279-1.954-11.562-2.7-16.67-3.34,2.219-7.582,4.531-10.054,6.048-3.406,2.09-7.624,7.353-8.166,7.778-.852-.348-4.1.31-5.147.465s-6.037,2.4-7.2,2.167-2.09-2.284-5.186-2.129-5.379-.077-7.508-1.548a7.723,7.723,0,0,1-1.131-.922c-5.649.761-12.521,1.282-21.6,2.26,0,0,2.391,25.182,3.188,32.353s2.522,23.083,2.522,23.083a35.846,35.846,0,0,1,4.749.324c1.943.324,4.965.108,5.4,5.613,3.454-.216,5.073-.972,7.016.647s4.533-.108,6.152.108a18.862,18.862,0,0,1,3.885,1.188l5.073-3.346s-.216,3.993,6.26,5.073c0,0,1.5.3,3.253-1.611s.956-4.144,1.275-6.853a10.577,10.577,0,0,1,2.55-5.1l3.028,2.71s.638-4.622,1.275-7.491,3.506-5.1,3.506-5.1.319,3.985,5.1-2.072,4.463-12.431,4.3-16.575S1169.518,364.962,1169.677,364.007Z" transform="translate(-1101.624 -334.108)" fill="#3664a8"/>
          </g>
        </g>
        <g id="Indiana" transform="translate(575.441 193.734)">
          <g id="Group_2199" data-name="Group 2199" transform="translate(0)">
            <path id="Indiana-2" data-name="Indiana" d="M1044.639,359.384c-1.587,1.123-2.825,2.825-3.947,2.438-.857-.3-2.659-1-3.74-1.467l.039.017c0,1.025.064,2.148.11,3.632,0,0,1.909,32.349,2.4,40.228s1.313,20.518.985,22.487a15.437,15.437,0,0,1-3.447,7.222c-1.805,1.806-2.134,2.134-1.97,3.611,0,0,.16,5.737.114,6.476,0,0,3.3-3.622,5.243-2.65s1.834,1.295,1.834,1.295,1.3-3.13,4.318-1.727a23.964,23.964,0,0,1,3.562,1.835s3.67-4.641,5.073-4.318a7.166,7.166,0,0,0,3.346,2.591c.216-2.482.54-6.368,4.318-6.368l.863,3.13a46.49,46.49,0,0,0,5.828-.54,37.136,37.136,0,0,0,.324-6.152s5.828-4.1,6.368-6.584a15.571,15.571,0,0,0,.431-3.993s3.994-.216,5.5-1.4,2.375-2.05,1.727-4.641.54-3.454.54-3.454-1.725-15.911-2.522-23.083-3.187-32.353-3.187-32.353-13.069,1.435-18.647,2.072c-4.919.562-12.1.808-12.1.808A5.206,5.206,0,0,0,1044.639,359.384Z" transform="translate(-1035.032 -355.614)" fill="#3d71bf"/>
          </g>
        </g>
        <g id="South_Carolina" data-name="South Carolina" transform="translate(661.304 324.955)">
          <g id="Group_2200" data-name="Group 2200" transform="translate(0)">
            <path id="South_Carolina-2" data-name="South Carolina" d="M1219.2,559.461a93.964,93.964,0,0,0-10.633,1.792c-.359-1.434-1.314-4.062-3.823-5.256s-9.8,0-15.172.239a34.73,34.73,0,0,0-10.274,1.792c-2.867.837-11.022,5.826-11.022,5.826s-3.477,2.608-2.173,5.216,3.912,4.346,8.475,4.129c0,0,2.687,5.49,5.095,7.569s6.784,5.472,9.192,7.66,5.362,5.362,6.784,6.894a14.681,14.681,0,0,0,4.924,3.721,7.885,7.885,0,0,1,5.143,5.362,11.888,11.888,0,0,1,.328,5.034,4.548,4.548,0,0,1,3.283,1.641c.985,1.532,2.955,5.362,3.721,6.237a5.614,5.614,0,0,0,3.83,1.313h.22a6.739,6.739,0,0,0,.026-1.6s3.488-3.077,4.555-3.9.944-1.231,1.354-2.38-.9-3-.9-3l2.832.246a49.1,49.1,0,0,0,3.816-3.2c3.119-2.749,6.279-8.043,6.894-9.274s1.354-1.231,2.544-1.313c.9-2.831,4.309-3.693,4.309-3.693a31.845,31.845,0,0,1,.2-4.226,15.586,15.586,0,0,1,6.073-12.516,8.375,8.375,0,0,1,2.042-1.067c-2.442-2.062-22.206-14.444-22.206-14.444S1222.305,559.1,1219.2,559.461Z" transform="translate(-1165.808 -555.474)" fill="#3d71bf"/>
          </g>
        </g>
        <g id="Florida" transform="translate(595.758 416.446)">
          <g id="Group_2201" data-name="Group 2201">
            <path id="Path_8619" data-name="Path 8619" d="M1289.073,854.65a18.916,18.916,0,0,0-2.722,4.356c-1.089,2.489-2.878,6.688-4.822,8.245s-7.623,4.977-7.545,5.6.156,1.867,2.567.622,7.466-6.456,8.633-8.478S1289.384,856.205,1289.073,854.65Z" transform="translate(-1137.414 -749.713)" fill="#3664a8"/>
            <path id="Path_8620" data-name="Path 8620" d="M1261.623,883.2a3.3,3.3,0,0,1,2.178,3.111,47.844,47.844,0,0,0-7.466,1.945C1259.523,885.144,1261.623,883.2,1261.623,883.2Z" transform="translate(-1131.352 -759.518)" fill="#3664a8"/>
            <path id="Path_8621" data-name="Path 8621" d="M1212.915,768.582c-2.134-2.955-14.075-27.165-14.075-27.165s.37-.41,1.929-2.175c-3.612-5.1-9.741-17.916-10.931-20.419s-6.531-10.247-6.531-10.247-5.68-8.741-7.291-13.754l-.051.01c-3.1.307-6.486.65-7.272.762-1.532.219.219-.875-2.408,3.5,1.532,6.346.219,5.69.219,5.69l-2.407-.219-.438-3.5s-3.283.219-7,.437-37.2,2.408-40.269,2.626c-1.094-1.313-3.5-5.253-3.5-5.253s-15.32,1.094-21.448,1.313-22.542,2.626-24.074,2.626-1.75,3.283-.875,4.6,3.064,1.313,3.283,3.064c.143,1.144.1,4.714.052,7.237l.047-.013.55-.159.039-.011.594-.167.079-.022.6-.163.108-.029.6-.158.221-.057.537-.139.226-.057.561-.142.373-.092.467-.114.876-.21c9.725-2.3,12.639-1.806,16.989-1.272s15.019,5.786,16.66,6.524a38.159,38.159,0,0,0,.9,5.17,49.113,49.113,0,0,1,7.55-1.888c2.708-.369,2.052-3,3.775-4.021s4.39-.985,5.745-1.231a2.839,2.839,0,0,1,1.354-3.652c1.4-.821,3.652-.9,5.745-.821s5.827,1.928,6.032,3.2,1.231,2.708,4.021,4.555c.615,3.406,2.421,3.611,3.611,4.063a10.2,10.2,0,0,1,2.872,2.092c.657.575,3.98,1.272,6.278,1.847.78,4.186,4.76,7.755,4.76,7.755s.124,2.5.124,3.9-.9,12.393-1.026,14.4.41,3,1.806,5.5c1.313-1.436,1.108-3.57.739-4.8s-.328-1.723.452-1.929,4.391,1.806,4.391,1.806c-.2,2.955-4.391,8.166-4.391,8.166a44.809,44.809,0,0,1,6.2,7.8c2.79,4.514,3.2,7.181,4.966,9.848s3.323,1.723,5.047.246c4.1,2.544,4.432,7.427,4.884,8.33s.328,3.078,5.663,3.488,7.058,5.047,7.837,6.36,1.519,5.581,1.519,5.581c1.108,3.57,4.35,1.97,6.032-.41,8.659,2.175,8.043-8.822,8.289-10.71s1.272-2.093,2.339-2.462c.615-4.432-1.477-20.477-1.641-21.42S1215.049,771.537,1212.915,768.582Z" transform="translate(-1065.976 -694.822)" fill="#3664a8"/>
          </g>
        </g>
        <g id="Georgia" transform="translate(623.131 333.335)">
          <g id="Group_2202" data-name="Group 2202">
            <path id="Georgia-2" data-name="Georgia" d="M1190.284,651.358c-.008-.079-.016-.159-.023-.236-.41-5.088,2.052-15.019,2.955-17.973a81.094,81.094,0,0,1,3.57-8.986,3.669,3.669,0,0,0,.343-1.148h-.22a5.614,5.614,0,0,1-3.83-1.313c-.766-.875-2.736-4.706-3.721-6.237a4.548,4.548,0,0,0-3.283-1.641,11.888,11.888,0,0,0-.328-5.034,7.885,7.885,0,0,0-5.143-5.362,14.681,14.681,0,0,1-4.924-3.721c-1.423-1.532-4.377-4.706-6.784-6.894s-6.785-5.581-9.192-7.66-5.095-7.569-5.095-7.569c-4.564.217-7.172-1.521-8.475-4.129s2.173-5.216,2.173-5.216a77.225,77.225,0,0,1-9.562.869c-5.868.217-31.076,3.477-31.076,3.477,2.173,8.693,3.912,17.386,5.868,23.905s6.085,22.6,9.127,27.382,3.042,5.433,3.042,5.433-1.955,3.694-2.825,5.65-.217,3.911.435,6.084,1.087,1.956.435,4.781,1.087,5.433,1.739,6.737a28.632,28.632,0,0,0,1.716,2.846s2.407,3.939,3.5,5.253c3.064-.219,36.549-2.407,40.269-2.626s7-.437,7-.437l.438,3.5,2.407.219s1.313.656-.219-5.69c2.626-4.377.875-3.283,2.408-3.5.786-.112,4.167-.455,7.272-.762Z" transform="translate(-1107.668 -568.237)" fill="#4c8ef0"/>
          </g>
        </g>
        <g id="Kentucky" transform="translate(556.476 249.171)">
          <g id="Group_2203" data-name="Group 2203" transform="translate(0)">
            <path id="Kentucky-2" data-name="Kentucky" d="M1007.338,499.5a11.976,11.976,0,0,1-1.192,1.59c5.067-.134,13.337-.4,15.09-.4,2.5,0,6.254-.313,6.254-.313l.156-3.126s10.475-.626,20.481-1.251c8.281-.517,39.689-3.712,53.908-5.33a96.9,96.9,0,0,0,8.989-6.261c1.3-.863,1.835-1.295,1.727-2.05a5.646,5.646,0,0,1,.971-3.454,26.982,26.982,0,0,1,5.073-4.318,74.424,74.424,0,0,0,7.016-6.368,51.183,51.183,0,0,1-4.425-3.13c-2.159-1.727-3.669-5.613-4.425-6.908s-2.806-1.4-3.346-2.591-.432-2.05-.54-5.936c-6.476-1.079-6.26-5.073-6.26-5.073l-5.073,3.346a18.865,18.865,0,0,0-3.885-1.188c-1.619-.215-4.209,1.511-6.152-.108s-3.562-.863-7.016-.647c-.431-5.5-3.453-5.289-5.4-5.613a35.851,35.851,0,0,0-4.749-.324s-1.188.863-.54,3.454-.216,3.454-1.728,4.641-5.5,1.4-5.5,1.4a15.569,15.569,0,0,1-.431,3.993c-.54,2.482-6.368,6.584-6.368,6.584a37.122,37.122,0,0,1-.324,6.152,46.489,46.489,0,0,1-5.828.54l-.863-3.13c-3.778,0-4.1,3.886-4.318,6.368a7.166,7.166,0,0,1-3.346-2.591c-1.4-.324-5.073,4.318-5.073,4.318a23.967,23.967,0,0,0-3.562-1.835c-3.022-1.4-4.318,1.727-4.318,1.727s.108-.324-1.834-1.295-5.243,2.65-5.243,2.65a28.709,28.709,0,0,1-1.015,3.322c-.277,1.015-1.061,2.676.138,4.291-1.8-.139-3.645-.553-4.891,1.523s.138,5.49.184,6.09-.184,1.476-1.845.784-3.645-2.445-6.136-2.029-2.4.738-3.091,1.845c-.336.537-.877,1.67-1.345,2.695C1010.423,492.777,1008.634,497.234,1007.338,499.5Z" transform="translate(-1006.146 -440.048)" fill="#4179cc"/>
          </g>
        </g>
        <g id="Illinois" transform="translate(517.01 181.95)">
          <g id="Group_2204" data-name="Group 2204" transform="translate(0)">
            <path id="Illinois-2" data-name="Illinois" d="M1009.922,420.556c.328-1.97-.492-14.608-.985-22.487s-2.4-40.228-2.4-40.228c-.046-1.484-.108-2.607-.11-3.632-.354-.154-.636-.284-.788-.369-.619-.349-1.471-1.858-2.167-3.213s-3.947-6.811-3.947-6.811.155-1.006.464-3.522a13.139,13.139,0,0,0,0-2.628c.035.419.055.822.058,1.2-8.1.486-27.334,1.621-32.476,1.75-4.621.116-8.909.068-11.391-.027.938,1.394,1.16,2.355,1.71,2.576.737.295,1.622.148,2.212,1.475s.442,2.211,2.506,4.423a7.026,7.026,0,0,1,1.179,8.256c-1.474,3.243-2.653,5.307-6.192,6.192s-6.192,2.358-6.339,3.685.442,2.359,1.179,3.686a6.26,6.26,0,0,1,.295,4.865c-.59,1.179-2.211,2.506-2.359,3.538a5.652,5.652,0,0,0,.148,2.064,1.752,1.752,0,0,0-2.211.884c-.884,1.475-1.032,5.013-2.211,6.045,0,0-.443,6.192,1.031,10.025a14.266,14.266,0,0,0,6.045,7.519c2.8,1.917,6.044,3.833,6.929,7.224s1.179,4.128,1.917,4.276,1.769-2.212,4.717-.3,2.507,2.949,2.507,2.949-1.769,5.308-2.359,7.961-.148,6.044,2.654,7.961,7.519,3.539,9.288,5.308,3.243,3.243,3.686,6.192-.421,7.444,3.953,8.915c.056.019.1.047.152.067.469-1.025,1.01-2.157,1.345-2.694.692-1.107.6-1.43,3.091-1.845s4.475,1.337,6.136,2.029,1.892-.184,1.845-.784-1.43-4.014-.184-6.09,3.091-1.661,4.891-1.523c-1.2-1.615-.416-3.276-.138-4.291a28.715,28.715,0,0,0,1.015-3.322c.046-.739-.114-6.476-.114-6.476-.164-1.477.164-1.806,1.97-3.611A15.439,15.439,0,0,0,1009.922,420.556Z" transform="translate(-946.036 -337.666)" fill="#4c8ef0"/>
          </g>
        </g>
        <g id="Wisconsin" transform="translate(491.437 93.066)">
          <g id="Group_2205" data-name="Group 2205" transform="translate(0)">
            <path id="Wisconsin-2" data-name="Wisconsin" d="M992.261,232.809s-4.954,7.2-6.115,8.824a81.375,81.375,0,0,1-5.186,7.044c-1.664,1.78-1.974-1.509-1.548-2.477s4.1-7.662,4.76-9.326c-1.943-1.261-1.874-4.381-1.83-5.107a2.768,2.768,0,0,1-1.227.27c-1.625.155-.7-6.811-.657-8.166-.542-.658-2.555-.967-3.367-1.006-.038-2.012-2.128-2.864-4.566-3.1a46.265,46.265,0,0,1-14.435-3.444,24.493,24.493,0,0,0-12.036-2.283,34.43,34.43,0,0,0-3.6-4.335,4.3,4.3,0,0,1-1.431.387c-1.045.155-3.29-1.509-3.754-1.741a3.282,3.282,0,0,1-2.4.658c-1.819-.039-1.2-2.245-.735-2.941s2.786-3.444,2.786-3.444-.812-1.24-5.3,1.045c-4.775,2.43-6.923,3.727-9.481,3.986-2.67.271-2.593.349-5.069-.619.308-1.328,2.186-3.125,4.153-4.725-.1.056-.2.119-.289.17-1.532.875-3.283,3.173-4.432,4.486s-1.97,4.6-2.189,6.456.548,5.252.383,6.128-2.079,3.283-3.995,5.033-3.666,3.885-3.611,5.417,3.119,2.79,3.611,5.69c-1.2,2.243-1.586,7.058-1.313,9.137s.164,4.7,1.313,6.018,2.408,1.095,4.1.383a7.065,7.065,0,0,0,5.034,3.556c1.313,1.641,2.79,5.417,4.87,6.785s7.769,3.775,8.371,6.237a38.774,38.774,0,0,1,.492,7.331s.331,3.106,2.542,3.7c-1.327,4.128-1.769,6.339-1.032,8.7s3.243,4.423,6.487,5.013a12.342,12.342,0,0,1,1.238,1.552c2.482.1,6.77.142,11.391.027,5.142-.129,24.374-1.264,32.476-1.75a30.082,30.082,0,0,0-1.919-9.179,16.692,16.692,0,0,1,2.09-15.945,35.278,35.278,0,0,1-1.316-6c-.116-2.09,1.316-3.676,1.742-4.915s-.116-7.314.271-9.6,3.793-7.973,4.837-9.869A4.679,4.679,0,0,0,992.261,232.809Z" transform="translate(-907.087 -202.287)" fill="#4179cc"/>
          </g>
        </g>
        <g id="Minessota" transform="translate(427.672 45.221)">
          <g id="Group_2206" data-name="Group 2206" transform="translate(0)">
            <path id="Minnesotta" d="M919.156,153.794c-1.645-.522-5.872.481-6.63.734-.821.274-.876-.274-1.7-1.423s-6.839-.328-9.508.3c-1.247-2.761-2.911-2.984-3.841-2.492-.364.193-1.066.781-1.915,1.427a7.471,7.471,0,0,1-2.642,1.761c-.064.012-.131.022-.2.033a4.035,4.035,0,0,1-1.482.39c-2.188.054-4.924-2.243-4.924-2.243a7.106,7.106,0,0,1-2.134-.437c-1.28-.372-1.345-2.113-1.3-2.946a2.331,2.331,0,0,1,.033-.409c-.047.158-.416.762-3.276.619a5.521,5.521,0,0,1-.586-.064c-.078,0-.156.008-.234.01-2.134.055-7.585-5-10.833-5.417-1.6-.207-3.277.873-4.918,1.639a16.248,16.248,0,0,1-5.532.877c-.389-.043-.437-1.482-.439-2.087l-1.75.117a7.262,7.262,0,0,1-2.343-.164,11.682,11.682,0,0,1-1.487,0c-.6-.11-.11-1.477-.11-1.477a8.808,8.808,0,0,1-2.956-.032c-.272-.007-.533-.014-.764-.023a3.237,3.237,0,0,1-2.9-2.408c-.492-1.423-2.079-10.669-2.079-10.669h-3.283l-.657,7.058H837.3c-3.1,0-10.177-.012-12.21-.054-2.626-.055-15.127-.181-15.127-.181a30.858,30.858,0,0,1,.9,7.51,83.215,83.215,0,0,0-.107,10.429c.322,2.365,2.795,7.956,3.225,10.106a75.478,75.478,0,0,1,1.183,10.322c0,2.58.538,8.064.86,11.4s1.72,5.7,2.9,7.957.1,6.678.1,6.678a6.3,6.3,0,0,1-1.271,2.773c-.924.925-2.427,2.543-2.2,4.045s2.542,3.467,3.351,4.622,1.387.693,1.5,5.085-.809,34.437-.809,34.437,5.369.1,10.786.1,47.82-.875,47.82-.875c6.948-.055,21.995-.712,21.995-.712a38.772,38.772,0,0,0-.492-7.331c-.6-2.462-6.292-4.87-8.371-6.237s-3.557-5.144-4.87-6.785a7.065,7.065,0,0,1-5.034-3.556c-1.7.711-2.954.93-4.1-.383s-1.039-3.939-1.313-6.018.11-6.894,1.313-9.137c-.492-2.9-3.556-4.158-3.611-5.69s1.7-3.666,3.611-5.417,3.83-4.158,3.995-5.033-.6-4.268-.383-6.128,1.04-5.143,2.189-6.456,2.9-3.611,4.432-4.486c.089-.051.193-.114.289-.17,1.988-1.616,4.067-3.032,4.71-3.557,1.277-1.045,3.56-5.573,3.56-5.573a3.315,3.315,0,0,1,.238-.449,8.142,8.142,0,0,1,1.161-1.686,20.919,20.919,0,0,1,4.045-3.368,12.169,12.169,0,0,1,1.058-.651c.092-.049.2-.1.3-.154a27.745,27.745,0,0,1,3.845-1.737c.191-.07.385-.145.578-.219.584-.237,1.146-.461,1.657-.661a85.458,85.458,0,0,0,10.493-5.278A2.521,2.521,0,0,0,919.156,153.794Z" transform="translate(-809.967 -129.415)" fill="#3d71bf"/>
          </g>
        </g>
        <g id="Iowa" transform="translate(435.702 165.919)">
          <g id="Group_2207" data-name="Group 2207" transform="translate(0)">
            <path id="Iowa-2" data-name="Iowa" d="M920.079,340.68c-2.064-2.211-1.917-3.1-2.506-4.423s-1.475-1.18-2.212-1.475-.884-1.917-2.949-4.128c-3.243-.59-5.75-2.654-6.487-5.013s-.295-4.57,1.032-8.7c-2.211-.59-2.542-3.7-2.542-3.7s-15.046.657-21.995.712c0,0-42.4.875-47.82.875s-10.786-.1-10.786-.1H822.2s0,4.16,2.2,6.471c.231,3.12-.924,9.129-2.08,10.632a24.459,24.459,0,0,1,2.534,4.718c1.261,5.464,2.312,8.2,4.413,10.086a15.143,15.143,0,0,0,1.367,7.655,41.6,41.6,0,0,1,2.89,9.841c.6,3.53.056,7.9,1.333,12.316,11.263-.334,29.3-1.144,39.232-1.424,10.468-.3,25.211-.148,25.211-.148s2.506,3.1,4.276,5.013c1.179-1.032,1.327-4.57,2.211-6.045a1.752,1.752,0,0,1,2.211-.884,5.649,5.649,0,0,1-.148-2.064c.148-1.032,1.769-2.359,2.359-3.538a6.259,6.259,0,0,0-.295-4.865c-.737-1.327-1.327-2.359-1.179-3.686s2.8-2.8,6.339-3.685,4.718-2.949,6.192-6.192A7.026,7.026,0,0,0,920.079,340.68Z" transform="translate(-822.197 -313.248)" fill="#3664a8"/>
          </g>
        </g>
        <g id="Mossouri" transform="translate(447.559 224.607)">
          <g id="Group_2208" data-name="Group 2208" transform="translate(0)">
            <path id="Missouri" d="M950.138,478.629c-4.374-1.471-3.511-5.967-3.953-8.915s-1.917-4.423-3.686-6.192-6.487-3.39-9.288-5.308-3.243-5.307-2.654-7.961,2.359-7.961,2.359-7.961.442-1.031-2.507-2.949-3.981.442-4.717.3-1.032-.885-1.917-4.276-4.128-5.308-6.929-7.224a14.266,14.266,0,0,1-6.045-7.519c-1.474-3.833-1.031-10.025-1.031-10.025-1.769-1.917-4.276-5.013-4.276-5.013s-14.743-.148-25.211.148c-9.936.28-27.969,1.091-39.232,1.424a23.548,23.548,0,0,1-.791-4.519h0a18.573,18.573,0,0,0,2.972,9.2c3.993,5.883,5.453,7.232,5.453,7.232a24.95,24.95,0,0,0,2.626,1.125c1.126.376,4.315,1.5,3.939,4.5s-2.438,2.626-2.438,2.626a13.52,13.52,0,0,0,2.251,6.191c2.064,3,6.378,4.877,6.378,4.877s-.75,13.131-.938,19.322-.681,25.3-.681,25.3-.207,4.547,0,7.646a28.464,28.464,0,0,0,.386,2.853c12.845-.215,46.535-.806,52.832-1.163,7.813-.442,18.626-.57,23.606-.722,1.558,4.98-1.9,5.474-3.433,8.6a15.3,15.3,0,0,1,9.288.147c2.507-2.439,3.47-6.858,3.952-8.1.913-2.356,3.092-4.187,3.915-5.625C951.683,484.347,953.523,479.769,950.138,478.629Z" transform="translate(-840.257 -402.635)" fill="#3d71bf"/>
          </g>
        </g>
        <g id="Missispi" transform="translate(524.159 341.166)">
          <g id="Group_2209" data-name="Group 2209">
            <path id="Missisppi" d="M1013.825,678.485s-1.806-23.965-2.626-34.305-.328-35.783.328-43.826S1013,580.165,1013,580.165s-18.254,1.266-23.726,1.7c-3.058.245-8.579.516-12.856.708a.938.938,0,0,0-.288.694,4.474,4.474,0,0,1-1.9,3.411c-1.349.749-3,1.048-3.147,2.847s.6,4.345-.3,5.694-3.446,3.3-4.795,5.545-1.8,4.345-3.6,4.645c-.15,6.143-.449,15.733-.15,18.43l.3,2.7s.888,8.68,4.517,13.157c-1.815,5.444-1.694,6.776-3.872,9.558s-5.444,6.292-6.05,10.284a33.542,33.542,0,0,0,.242,8.954s10.768-.605,15-.605h17.665s-.968,5.323-.726,6.776a18.419,18.419,0,0,0,2.662,5.687c.756,1.092,1.628,2.59,2.09,3.406a56.158,56.158,0,0,0,3.7-4.819,14.119,14.119,0,0,0,2.667.41c1.477.082,4.637-1.231,6.689-1.313s1.846.41,4.062.7a10.386,10.386,0,0,0,2.655-.087Z" transform="translate(-956.925 -580.165)" fill="#4179cc"/>
          </g>
        </g>
        <g id="Alabama" transform="translate(578.003 337.681)">
          <path id="alabama-2" data-name="alabama" d="M1060.582,676.5l-.047.013c.047-2.523.091-6.093-.052-7.237-.219-1.751-2.408-1.751-3.283-3.064s-.656-4.6.875-4.6,17.946-2.407,24.074-2.626,21.448-1.313,21.448-1.313a28.628,28.628,0,0,1-1.716-2.846c-.652-1.3-2.391-3.912-1.739-6.737s.217-2.608-.435-4.781-1.3-4.128-.435-6.084,2.824-5.65,2.824-5.65,0-.652-3.042-5.433-7.172-20.863-9.128-27.382-3.694-15.213-5.868-23.905c-9.779,1.087-42.892,3.485-42.892,3.485s-.821,12.146-1.477,20.189-1.149,33.485-.328,43.826,2.626,34.305,2.626,34.305l.029.16a44.618,44.618,0,0,0,4.813-1.062c1.929-.492,1.4-2.708,1.929-4.063s.861-2.01,2.216-1.724,3.775,3.981,4.432,5.376-.9,3.406-.9,3.406S1055.756,677.908,1060.582,676.5Z" transform="translate(-1038.934 -574.857)" fill="#3d71bf"/>
        </g>
        <g id="Tennessee" transform="translate(543.657 295.741)">
          <g id="Group_2210" data-name="Group 2210">
            <path id="Path_8622" data-name="Path 8622" d="M1125.847,510.979s-17.823,2.345-24.233,3.283-50.186,5.472-60.192,6.1-20.481,1.251-20.481,1.251l-.156,3.126s-3.752.313-6.254.313c-1.753,0-10.022.266-15.09.4a15.076,15.076,0,0,0-2.723,4.036c-.482,1.245-1.444,5.664-3.952,8.1,0,0,1.557.758.358,3.305s-1.8,5.095-2.847,6.143a5.631,5.631,0,0,0-2.1,3.9c0,1.648.537,4.6-.362,6.252a7.183,7.183,0,0,1-1.195,1.63c4.277-.192,9.8-.464,12.856-.708,5.471-.437,23.726-1.7,23.726-1.7s33.113-2.4,42.892-3.485c0,0,11.168-1.444,20.368-2.474a19.319,19.319,0,0,1,.141-5.7s1.094.156,4.065-1.719c.313-5.159,4.378-5.785,6.723-6.1s3.752-2.658,5.628-4.221a6.549,6.549,0,0,1,4.221-1.407s.469-3.752,1.407-5.159,2.971-1.876,5.316-1.095c3.6-3.127,5.628-2.658,7.973-2.971.469-3.752,3.284-5.784,3.909-7.035S1125.847,510.979,1125.847,510.979Z" transform="translate(-986.622 -510.979)" fill="#3664a8"/>
          </g>
        </g>
        <g id="Arkansas" transform="translate(467.507 313.602)">
          <g id="Group_2211" data-name="Group 2211" transform="translate(0)">
            <path id="Arkansas-2" data-name="Arkansas" d="M952.934,546.931a15.3,15.3,0,0,0-9.288-.147c1.532-3.129,4.991-3.622,3.432-8.6-4.98.152-15.793.28-23.606.722-6.3.357-39.987.947-52.832,1.163.572,3.264,1.578,7.482,1.887,9.96.414,3.306,2.067,19.425,1.654,27.9-.325,6.654-.14,18.4-.045,23.141a27.217,27.217,0,0,0,6.78.65c.144,2.3.274,6.883.378,11.71,8.21-.345,25.041-1.043,29.743-1.155,6.294-.15,21.877-.15,21.877-.15l-.3-2.7c-.3-2.7,0-12.287.15-18.43,1.8-.3,2.248-2.4,3.6-4.645s3.9-4.2,4.795-5.545.15-3.9.3-5.694,1.8-2.1,3.147-2.847a4.473,4.473,0,0,0,1.9-3.411c0-.749.584-.676,1.482-2.324s.362-4.6.362-6.252a5.632,5.632,0,0,1,2.1-3.9c1.049-1.049,1.648-3.6,2.847-6.143S952.934,546.931,952.934,546.931Z" transform="translate(-870.64 -538.182)" fill="#4c8ef0"/>
          </g>
        </g>
        <g id="Louisiana" transform="translate(478.161 387.541)">
          <g id="Group_2213" data-name="Group 2213" transform="translate(39.44 71.626)">
            <g id="Group_2212" data-name="Group 2212">
              <path id="Path_8623" data-name="Path 8623" d="M946.937,760.707s1.815-1.452,2.9-.484a2.574,2.574,0,0,1,.968,2.057S947.422,762.038,946.937,760.707Z" transform="translate(-946.937 -759.89)" fill="#3d71bf"/>
            </g>
          </g>
          <path id="Path_8624" data-name="Path 8624" d="M980.819,727.2c-1.4-2.134-4.432-2.462-7.14-2.708s-3.529-1.888-5.253-4.021a6.6,6.6,0,0,0,1.888-4.021c2.462.41,3.529-.821,3.611-2.3s-.492-3.529-1.724-4.35-1.806,2.216-2.462,4.268c-1.231.492-4.6-1.847-4.6-1.847a26.543,26.543,0,0,1,3.488-2.913,8.154,8.154,0,0,0,1.387-1.3c-.463-.815-1.335-2.314-2.09-3.406a18.418,18.418,0,0,1-2.662-5.687c-.242-1.452.726-6.776.726-6.776H948.327c-4.235,0-15,.605-15,.605a33.544,33.544,0,0,1-.242-8.954c.605-3.993,3.872-7.5,6.05-10.284s2.057-4.114,3.872-9.558c-3.63-4.477-4.517-13.157-4.517-13.157s-15.584,0-21.877.15c-4.7.112-21.533.81-29.743,1.155.161,7.449.263,15.485.263,16.65,0,1.921-.183,3.385.549,4.392s2.836,2.2,3.293,3.568.458,3.294,1.647,5.764,3.385,5.123,3.934,7.136,1.281,2.928.458,6.13-2.653,7.135-2.653,8.6a6.881,6.881,0,0,0,.732,2.836,2.616,2.616,0,0,0-.458,2.287c.274,1.555.64,2.928,0,4.117a12.867,12.867,0,0,0-1.709,8.037,51.4,51.4,0,0,1,15.1-1.149c4.186.328,7.632,2.708,11.079,3.037s4.514-.739,5.253-1.724c-.985-.739-1.97-3.119.246-3.857s4.6,1.806,4.6,1.806a7.931,7.931,0,0,1,3.611-.082c2.052.41,2.626,3.939,2.626,3.939s.246.082,3.365.657,2.216,2.544,1.477,4.186c8.617,5.991,10.177,4.268,11.818,3.775s1.067-2.79,1.067-2.79a6.785,6.785,0,0,0,2.3,0c.739-.246,1.4-1.723,3.119-1.806,1.888,1.559.41,4.35.41,4.35l.821.739c1.888-.739,2.3-6.894,2.544-7.715s4.021-2.79,4.021-2.79l.575,3.939a24.13,24.13,0,0,1,4.924,1.149c1.724.739,3.037,2.462,5.088,2.38a3.823,3.823,0,0,1,2.79.657l1.805-2.872Zm-23.046-17.568c-1.426-.252-1.762-.839-1.846-2.1s.335-2.6,3.272-3.188,7.046,2.517,7.046,2.517c.923.587-.084,1.761-1.594,2.935S959.2,709.884,957.773,709.633Z" transform="translate(-886.866 -650.798)" fill="#3d71bf"/>
        </g>
        <g id="Nebraska" transform="translate(317.446 172.811)">
          <g id="Group_2214" data-name="Group 2214">
            <path id="Nebraska-2" data-name="Nebraska" d="M775.168,384.743c-3.992-5.883-2.7-12.216-3.51-17a41.6,41.6,0,0,0-2.89-9.841,15.143,15.143,0,0,1-1.367-7.655c-2.1-1.891-3.151-4.622-4.413-10.086-4.956.191-4.833-3.572-5.043-4.412s-8.615-2.732-10.927-3.362-5.72,1.437-8.6.808c-3.785-.826-9.7-5.506-9.7-5.506s-17.4-.2-25.809-.619-24.387-.777-35.314-1.617c-8.143-.627-17.333-1.37-21.489-1.708-.137,1.382-.259,2.565-.364,3.482-.75,6.56-2.418,26.637-3.351,38.084l-.3-.026c2.672.23,4.989.432,6.734.591,9.028.821,25.278,1.806,25.278,1.806s-.807,13.724-1.262,21.161c3.7.2,8.938.476,13.057.693,0,0,42.583,1.688,52.712,2.063s42.02.376,42.02.376S779.161,390.627,775.168,384.743Z" transform="translate(-642.083 -323.746)" fill="#4179cc"/>
          </g>
        </g>
        <g id="South_Dakota" data-name="South Dakota" transform="translate(321.464 111.001)">
          <g id="Group_2215" data-name="Group 2215" transform="translate(0 0)">
            <path id="South_Dakota-2" data-name="South Dakota" d="M648.2,291.414c4.155.338,13.345,1.081,21.489,1.708,10.927.84,26.909,1.2,35.314,1.617s25.809.619,25.809.619,5.918,4.68,9.7,5.506c2.882.628,6.291-1.439,8.6-.808s10.717,2.521,10.927,3.362.087,4.6,5.043,4.412a24.457,24.457,0,0,0-2.534-4.718c1.156-1.5,2.311-7.512,2.08-10.632-2.2-2.311-2.2-6.471-2.2-6.471h1.618s.924-30.046.809-34.437-.693-3.93-1.5-5.085-3.12-3.12-3.351-4.622,1.271-3.12,2.2-4.045a6.3,6.3,0,0,0,1.271-2.773s-16.987-.693-21.957-.924-33.628-1.733-38.944-1.964-30.393-1.387-37.442-1.849c-4.731-.311-9.3-.569-11.8-.7-.594,7.3-1.144,14.373-1.49,19.3,0,0-2.392,29.811-3.646,42.521Z" transform="translate(-648.203 -229.604)" fill="#4c8ef0"/>
          </g>
        </g>
        <g id="North_Dakota" data-name="North Dakota" transform="translate(326.599 48.167)">
          <g id="Group_2216" data-name="Group 2216">
            <path id="North_Dakota-2" data-name="North Dakota" d="M707.935,136.537c-12.8-.328-32.007-1.477-46.123-2.626l-.1-.008c-.958,10.416-2.632,28.538-3.242,34.642-.53,5.3-1.54,17.006-2.45,28.192,2.5.136,7.069.394,11.8.7,7.049.462,32.126,1.618,37.442,1.849s33.975,1.733,38.944,1.964,21.957.924,21.957.924,1.081-4.42-.1-6.678-2.581-4.624-2.9-7.957-.86-8.816-.86-11.4a75.477,75.477,0,0,0-1.183-10.322c-.43-2.15-2.9-7.742-3.225-10.106A83.215,83.215,0,0,1,758,145.289a30.858,30.858,0,0,0-.9-7.51c-6.543-.053-12.32-.093-14.693-.093C735.675,137.686,720.738,136.865,707.935,136.537Z" transform="translate(-656.025 -133.903)" fill="#3664a8"/>
          </g>
        </g>
        <g id="Kansas" transform="translate(344.458 237.909)">
          <g id="Group_2217" data-name="Group 2217">
            <path id="Kansas-2" data-name="Kansas" d="M801.13,440.471a13.52,13.52,0,0,1-2.251-6.191s2.064.376,2.438-2.626-2.813-4.126-3.939-4.5a24.944,24.944,0,0,1-2.626-1.125s-31.89,0-42.02-.376-52.712-2.063-52.712-2.063c-4.119-.217-9.361-.5-13.057-.693-.087,1.434-.162,2.637-.215,3.46-.328,5.088-3.447,50.227-3.447,53.51,0,1.538-.036,4.123-.074,6.435,16.623.882,39.914,2.1,44.341,2.228,7.026.207,62.2,1.033,66.749,1.24s11.573.207,11.573.207.494-19.113.681-25.3.938-19.322.938-19.322S803.194,443.472,801.13,440.471Z" transform="translate(-683.226 -422.895)" fill="#4c8ef0"/>
          </g>
        </g>
        <g id="Texas" transform="translate(246.986 311.533)">
          <g id="Group_2218" data-name="Group 2218">
            <path id="Path_8625" data-name="Path 8625" d="M708.557,759.663s-3.693-12.311-4.35-16.332a15.547,15.547,0,0,1,.9-8.453c.656-1.888,2.462-10.423,2.462-10.423a59.419,59.419,0,0,0,4.582-4.023c-.575-1.477-.84-1.484-.84-1.484s-3.178-1.3.049-2.423c2.127-.742,5.362-2.756,6.726-5.094.346-.594,2.967-.247,2.967-.247s1.434-1.533-.248-5.637a15.785,15.785,0,0,0,6.627-1.187c3.314,1.335,1.015,4.364,2.077,3.808,3.447-1.806,5.226-2.917,7.524-3.984s6.976-5.253,8.043-6.237,5.581-4.186,6.319-5.253c1.888-.575,5.088-5.253,5.088-5.253s10.505-4.35,15.511-5.581a12.866,12.866,0,0,1,1.709-8.037c.64-1.19.274-2.562,0-4.117a2.617,2.617,0,0,1,.458-2.287,6.88,6.88,0,0,1-.732-2.836c0-1.464,1.83-5.4,2.653-8.6s.091-4.117-.458-6.13-2.744-4.666-3.934-7.136-1.189-4.392-1.647-5.764-2.561-2.561-3.293-3.568-.549-2.471-.549-4.392-.274-22.506-.641-28.361c-7.227.091-9.972-1.739-11.71-2.745s-4.3-3.659-6.679-3.933a8.317,8.317,0,0,0-4.757,1.28c-1.464.092-1.372-.549-2.47-1.1s-3.385,1.921-5.4,1.372c-4.544-1.239-6.221,1.647-6.221,1.647a66.565,66.565,0,0,0-7.593-1.922c-5.581-1.189-5.764.366-7.227,1.739-1.19.366-4.117-.915-6.862-2.653s-5.489-.183-6.862.183c-.366-1.739-2.47-4.209-4.025-5.124s-3.111-.64-6.953.183c-3.843-2.287-9.149-2.562-11.619-3.111.549-4.208-1.007-4.483-2.653-5.214-.549.915-1.1.731-2.2.183s-1.555.092-2.562.366-2.1-.823-3.293-1.921a6.333,6.333,0,0,0-2.454-1.42s0-5.946.517-12.15.775-28.953.775-28.953-31.28-1.293-38-1.551c-4.121-.158-9.6-.511-13.222-.76q-.04.459-.082.911c-.5,5.523-6.862,92.549-6.862,92.549s-17.74-.67-26.275-2.008-26.442-2.511-36.986-3.515c0,1.363-.13,2.854-.236,4.058-2.169-.226-5.415-.572-8.89-.945l.089.009.116.013,1,.108.559.06.328.035.73.078.643.068.545.058.408.043.657.07.54.057.464.049.609.064.332.035.509.054.468.049.233.024.618.065.079.008.6.062.384.039.225.024.336.033.212.022.217.022.2.02.3.028c1.417.873,2.726,4.2,3.217,5.343s.654,3.217,3.053,4.362,2.944,2.18,4.744,4.689a73.151,73.151,0,0,0,6.851,7.2c.9,1.231,4.842,1.559,5.335,3.447s.821,1.559,1.97,2.052c0,4.76,4.268,8.617,4.268,8.617l-.164,8.453s4.6,10.751,9.848,12.228,6.073,3.939,6.073,3.939l8.207,4.021s5.745-6.73,6.484-7.633.985-4.432,4.35-8.125a10.514,10.514,0,0,0,6.812-2.38,22.721,22.721,0,0,0,2.872,2.3c.821.41,4.268,0,11.49.985s5.253,4.842,5.253,4.842,5.581,5.417,7.14,6.73.739,1.724,2.052,3.365a9.524,9.524,0,0,1,1.888,4.924c.164,1.4,3.693,8.946,4.432,10.833-.492,2.955-.082,3.447.575,4.1s2.954,1.559,4.924,3.2,3.775,7.14,5.827,8.207,3.939,2.38,4.186,3.037-1.067,5.088-1.067,5.088-.246,0,1.477.985c.985,2.462-.41,5.827-.41,5.827l3.857,3.119c.739,10.259,9.52,11.9,15.347,12.639,4.021,3.939,6.894,2.872,9.438,2.955s4.021,1.641,6.894,3.611A3.945,3.945,0,0,0,708.557,759.663Z" transform="translate(-534.767 -535.031)" fill="#4179cc"/>
            <path id="Path_8626" data-name="Path 8626" d="M814.21,806.483c.993.234.89,3.66-3.807,7.468s-5.094,4.253-4.945,3.215a20.459,20.459,0,0,1,3.857-7.121C811.045,808.313,813.369,806.285,814.21,806.483Z" transform="translate(-627.724 -628.253)" fill="#4179cc"/>
          </g>
        </g>
        <g id="Colorado" transform="translate(228.666 206.407)">
          <g id="Group_2219" data-name="Group 2219">
            <path id="Colorado-2" data-name="Colorado" d="M622.657,469.822c.038-2.312.074-4.9.074-6.435,0-3.283,3.119-48.421,3.447-53.51s1.477-24.621,1.477-24.621-16.25-.985-25.278-1.806-33.156-2.79-44.646-3.939-40.05-4.6-40.05-4.6-6.566,45.8-7.222,50.063-2.977,26.454-2.977,27.275-.618,5.815-.618,5.815,7.7,1.295,15.4,2.131,35.647,4.184,45.354,5.188,37.823,3.515,37.823,3.515S612.9,469.3,622.657,469.822Z" transform="translate(-506.864 -374.915)" fill="#3d71bf"/>
          </g>
        </g>
        <g id="Oklahoma" transform="translate(326.316 300.394)">
          <g id="Group_2220" data-name="Group 2220">
            <path id="Oklahoma-2" data-name="Oklahoma" d="M798.672,543.118c-.413-3.307-2.066-9.713-2.273-12.813s0-7.646,0-7.646-7.026,0-11.573-.207-59.723-1.033-66.749-1.24-61.561-3.148-61.561-3.148-.449,5.835-.922,11.139c3.624.25,9.1.6,13.222.76,6.721.259,38,1.551,38,1.551s-.259,22.749-.775,28.953-.517,12.15-.517,12.15a6.333,6.333,0,0,1,2.454,1.42c1.189,1.1,2.287,2.2,3.293,1.921s1.464-.915,2.562-.366,1.647.732,2.2-.182c1.647.731,3.2,1.006,2.653,5.214,2.47.549,7.776.824,11.619,3.111,3.842-.823,5.4-1.1,6.953-.183s3.66,3.385,4.025,5.124c1.372-.366,4.117-1.922,6.862-.183s5.672,3.019,6.862,2.653c1.463-1.372,1.647-2.928,7.227-1.739a66.547,66.547,0,0,1,7.593,1.922s1.677-2.886,6.221-1.647c2.012.549,4.3-1.921,5.4-1.372s1.007,1.19,2.47,1.1a8.317,8.317,0,0,1,4.757-1.28c2.379.274,4.941,2.928,6.679,3.933a16.455,16.455,0,0,0,4.931,2.1c-.094-4.74-.28-16.487.045-23.141C800.739,562.543,799.086,546.425,798.672,543.118Z" transform="translate(-655.594 -518.065)" fill="#3664a8"/>
          </g>
        </g>
        <g id="Washington" transform="translate(42.186)">
          <path id="Path_8627" data-name="Path 8627" d="M222.839,106.253s.246,3.119.739,3.775,3.857.574,3.857,2.052a10.667,10.667,0,0,0,4.245,2.144c2.611.653,4.733,2.611,4.9,4.733s0,7.18,1.142,8.812,1.142,1.959,3.916,2.611,5.549,1.142,5.549,1.142a6.382,6.382,0,0,1,6.854-.979c3.916,1.8,5.924,2.8,13.756,3.62s19.923-.186,28.736,1.282a138.889,138.889,0,0,1,24.251,6.52s1.36-10.422,3.007-20.442c1.6-9.747,7.489-34.425,9.7-40.816-15.814-3.794-36.328-8.971-40.235-10.237-5.827-1.888-37.342-9.931-37.342-9.931a17.945,17.945,0,0,0-.739,1.806c-.41,1.149,1.888,4.842,1.888,5.745a10.574,10.574,0,0,1-.985,3.283c-.574,1.559.164,3.693.328,4.76a9.328,9.328,0,0,1-.246,3.037c-.164.985,1.2,2.823.9,3.2a5.37,5.37,0,0,1-5.723,2.2c-1.219.135-1.463-.533-2.439-.235.914-1.98,1.491-.334,2.683-4.182a7.941,7.941,0,0,0,.433-2.628c-.082-1.4,1.6-3.366,1.6-3.366l-.328-1.231c-1.559.082-2.544,2.462-2.708,4.021a28.737,28.737,0,0,1-16.824-5.745c-4.186-3.119-7.14-6.073-8.535-6.484.164,1.723-1.313,7.55-1.4,8.617s1.4,4.186,1.4,7.14c.328,2.216-.328,7.633-.246,10.095s4.021,5.335,4.021,5.335l-4.021.739a5.255,5.255,0,0,0-.821,2.38,3.222,3.222,0,0,0,1.051,2.314,4.93,4.93,0,0,1,.344,2.61C225.3,105.268,222.839,106.253,222.839,106.253Z" transform="translate(-222.839 -60.54)" fill="#4179cc"/>
          <path id="Path_8628" data-name="Path 8628" d="M264.759,68.31a1.842,1.842,0,0,0-2.05-.794c-1.223.463-1.356,1.389-1.884,1.389a9.458,9.458,0,0,1-1.29-.132s.695,3.373,1.62,2.91.364-1.521,1.19-1.653a3.065,3.065,0,0,1,1.389.066S265.454,69.4,264.759,68.31Z" transform="translate(-235.441 -62.901)" fill="#4179cc"/>
          <path id="Path_8629" data-name="Path 8629" d="M265.757,72.355a3.283,3.283,0,0,1,.3,2.05c-.265.959-1.124,1.191-1.323,1.058S264.666,72.884,265.757,72.355Z" transform="translate(-237.2 -64.598)" fill="#4179cc"/>
        </g>
        <g id="Wyoming" transform="translate(208.788 117.825)">
          <g id="Group_2222" data-name="Group 2222" transform="translate(0 0)">
            <path id="Wyoming-2" data-name="Wyoming" d="M547.334,333.175c9.352.935,27.077,2.414,38.217,3.375.933-11.447,2.6-31.523,3.351-38.084,1.07-9.367,4.009-45.993,4.009-45.993-14.006-.437-46.4-4.158-64.562-6.566S489.392,240,489.392,240l-1.816,10.018-7.868,52.3s-2.462,18.384-3.119,22.323c5.581.985,14.773,2.134,18.876,2.462s11.818,1.477,11.818,1.477S535.844,332.026,547.334,333.175Z" transform="translate(-476.589 -239.998)" fill="#3664a8"/>
          </g>
        </g>
        <g id="Idaho" transform="translate(108.552 20.168)">
          <g id="Group_2223" data-name="Group 2223">
            <path id="Idaho-2" data-name="Idaho" d="M381.152,243.355s18.384,3.939,25.606,5.088,20.518,2.79,20.518,2.79l7.868-52.3s-.527.7-2.1-1.754-1.4-3.508-2.456-3.333-1.578,3.508-4.735,3.333-4.209-1.93-6.84-1.4-3.508,1.052-7.015,0a3.988,3.988,0,0,0-4.911,1.929s-1.052-.7-.877-3.683.176-4.209-1.4-5.788a17.424,17.424,0,0,1-4.735-7.015c-1.228-3.508,0-8.594-2.981-13.5-2.806,2.1-6.314,3.683-8.243.526s-.527-2.981.526-4.735,4.911-12.277,5.262-13.5a20.4,20.4,0,0,0,.526-2.806,12.164,12.164,0,0,1-7.015-6.665,52.5,52.5,0,0,0-6.84-10.7s-2.631-1.578-1.052-4.911-1.4-7.541-1.4-7.541-1.754-1.578-1.052-5.086c.455-2.274,2.456-11.617,3.809-17.912-3.432-.761-8.154-1.865-13.395-3.122-2.215,6.391-8.1,31.069-9.7,40.816-1.647,10.02-3.007,20.442-3.007,20.442,1.959,3.753,1.959,4.08,3.59,5.548a49.571,49.571,0,0,1,.979,5.712,31.907,31.907,0,0,0-7.343,8.649c-2.448,4.732-3.59,4.9-3.59,4.9s-4.243,4.569-4.9,7.343,0,2.937,1.306,2.937a7.023,7.023,0,0,0,2.121,3.427,141.676,141.676,0,0,0-5.222,13.381c-1.958,6.2-5.711,22.193-6.527,25.783-.284,1.249-.528,2.675-.725,4.005-3.28-.792-7.17-1.744-11.267-2.753h0c9.735,2.4,18.3,4.472,20.3,4.853C351.115,237.61,381.152,243.355,381.152,243.355Z" transform="translate(-323.921 -91.257)" fill="#4c8ef0"/>
          </g>
        </g>
        <g id="New_Mexico" data-name="New Mexico" transform="translate(211.574 289.56)">
          <g id="Group_2224" data-name="Group 2224">
            <path id="New_Mexico-2" data-name="New Mexico" d="M558.673,508.883c-9.707-1-37.655-4.351-45.354-5.188s-15.4-2.131-15.4-2.131-3.559,20.106-4.27,25.533-3.825,25.354-4.982,33.272-4.181,29.18-4.982,36.209-2.758,23.487-2.758,23.487l-.021.137-.079-.011c4.293.618,13.517,1.78,14.589,2.137-.272-2.835.927-9.978.927-9.978a17.2,17.2,0,0,0,2.726.382c2.119.23,19.3,2.1,26.06,2.8.106-1.2.236-2.694.236-4.058,10.544,1,28.451,2.176,36.986,3.515S588.63,617,588.63,617s6.36-87.026,6.862-92.549,1-12.05,1-12.05S568.38,509.888,558.673,508.883Z" transform="translate(-480.831 -501.564)" fill="#4c8ef0"/>
          </g>
        </g>
        <g id="Utah" transform="translate(145.396 172.266)">
          <g id="Group_2225" data-name="Group 2225">
            <path id="Utah-2" data-name="Utah" d="M474.124,357.056s-7.715-1.149-11.818-1.477-13.3-1.477-18.876-2.462c.657-3.939,3.119-22.323,3.119-22.323s-13.3-1.641-20.518-2.79-25.606-5.088-25.606-5.088-1.477,8.043-2.462,12.639-9.028,43.99-10.5,52.853-7.42,39.169-7.42,39.169c3.647.534,16.814,2.758,21.974,3.559s32.65,5.16,38.7,5.961,22.6,3.113,22.6,3.113.618-4.994.618-5.815,2.32-23.007,2.977-27.275S474.124,357.056,474.124,357.056Z" transform="translate(-380.037 -322.915)" fill="#4179cc"/>
          </g>
        </g>
        <g id="Arizona" transform="translate(114.486 276.927)">
          <g id="Group_2226" data-name="Group 2226">
            <path id="Arizona-2" data-name="Arizona" d="M424.541,491.842c-6.05-.8-33.539-5.16-38.7-5.961s-18.327-3.025-21.974-3.559c-.623,1.157-2.046,13.878-2.4,15.569s-2.224,2.669-4,3.2-1.423-.8-4.182-3.025-4.448,1.423-4.982,3.291.356,11.921.089,15.124a10.777,10.777,0,0,1-2.634,5.724,13.092,13.092,0,0,0-.361,2.255c-.09,1.262,2.345,3.787,2.8,4.689s-.451,2.615,1.442,5.32,1.714,3.156-.181,5.41c-5.5,1.083-6.041,7.034-6.312,8.386s.721,3.427-2.164,4.238-3.607,1.8-4.148,5.14.9,5.14,1.8,5.41,0,0,1.894.271a4.088,4.088,0,0,1-2.886,4.96c-2.435.541-2.615-.36-2.615-.36s-.232.264-.664.749c-.28.464-.649,1.079-1,1.681-.709,1.2-.764,1.035,2.4,2.89s30.86,17.5,35,20.119l22.791,14.394a68.443,68.443,0,0,1,7.742.872c2.89.6,24.971,4.253,26.771,4.635.335.072,1.075.186,2.065.328l.021-.137S432.1,597,432.9,589.97s3.826-28.291,4.982-36.209,4.27-27.846,4.982-33.272,4.27-25.533,4.27-25.533S430.591,492.643,424.541,491.842Z" transform="translate(-332.959 -482.323)" fill="#3664a8"/>
          </g>
        </g>
        <g id="California" transform="translate(0 133.925)">
          <g id="Group_2227" data-name="Group 2227">
            <path id="Path_8630" data-name="Path 8630" d="M274.695,493.506l-.221.367c.432-.485.664-.749.664-.749s.181.9,2.615.361a4.089,4.089,0,0,0,2.886-4.96c-1.894-.271-.992,0-1.894-.271s-2.345-2.073-1.8-5.41,1.263-4.328,4.148-5.14,1.894-2.886,2.164-4.238.812-7.3,6.312-8.386c1.894-2.254,2.074-2.705.181-5.41s-.992-4.418-1.442-5.32-2.886-3.427-2.8-4.689a13.093,13.093,0,0,1,.361-2.255s-3.968-5.771-6.312-9.738-20.2-30.929-23.9-36.519-22.452-34.716-24.616-38.323-11.542-18.3-13.255-19.387c.632-3.427,7.3-25.068,8.657-30.388s7.033-30.478,7.033-30.478-25.157-6.943-29.035-8.115c-3.494-1.056-28.515-8.483-33.426-9.94h0c-.083.544-1.415,9.242-2.13,14.13-.739,5.047-4.432,10.013-6.853,12.433a10.986,10.986,0,0,0-3.447,8.166c-.082,3.283,2.914,7.509,3.529,10.135s.452,2.339.492,5.335-3.077,14.855-3.077,14.855,5.786,9.315,6.935,13.3a15.109,15.109,0,0,1,.123,8.166c.492,1.272,4.467,4.7,5.287,5.893.714-4.461,3.21-3.826,3.569-3.331a6.6,6.6,0,0,1,.655,5.769c-.35.9,2.379,5-.179,5.353-.881.123-2.253-5.451-4.164-4.818-.178.588-.641,1.466-.86,2.048-.739,1.97-.615,7.058-.246,9.4s2.955,4.1,4.145,5.376,2.052,2.257,2.092,4.226-3.529,4.6-3.529,4.6-.287,5.745.616,7.3,2.3,1.313,2.708,4.555a34.9,34.9,0,0,0,3.734,10.874c1.313,1.97,3.652,4.637,4.268,7.428a8.775,8.775,0,0,0,2.052,4.186,4.049,4.049,0,0,0-.164,1.436c0,1.067-2.01,10.833-2.01,10.833l2.052,2.75s4.021-.41,5.335.246,5.457,3.693,7.222,4.144a4.109,4.109,0,0,0,3.077-.41c1.477.9,3.283,8.823,7.674,11.285,2.006,1.125,5.581,1.149,6.524,1.231.7.821,1.6,3.98,1.149,5.047a3.993,3.993,0,0,0,.246,2.626s3.283.7,4.186,1.067,5.335,5.786,7.51,8.946a21.734,21.734,0,0,1,3.365,8.371c.41,2.093.164,10.587.164,10.587s11.232.906,15.921,1.07,21.7,3,21.7,3l4.253.982Z" transform="translate(-158.586 -264.519)" fill="#4c8ef0"/>
            <path id="Path_8631" data-name="Path 8631" d="M202.777,539.915a3.491,3.491,0,0,0,3.857,3.283C205.526,540.366,205.649,540.12,202.777,539.915Z" transform="translate(-173.763 -359.1)" fill="#4c8ef0"/>
            <path id="Path_8632" data-name="Path 8632" d="M211.634,539.1s-.657,3.734,3.734,3.406C214.26,540.539,214.178,539.882,211.634,539.1Z" transform="translate(-176.793 -358.821)" fill="#4c8ef0"/>
            <path id="Path_8633" data-name="Path 8633" d="M240.819,566.186c-.471.489.8,6.6,3.427,5.495C245.19,571.148,241.662,565.31,240.819,566.186Z" transform="translate(-186.795 -368.092)" fill="#4c8ef0"/>
            <path id="Path_8634" data-name="Path 8634" d="M237.469,581.517c.947-.592,3.735,4.965,2.586,5.581S236.484,582.132,237.469,581.517Z" transform="translate(-185.598 -373.373)" fill="#4c8ef0"/>
          </g>
        </g>
        <g id="Nevada" transform="translate(59.203 151.98)">
          <g id="Group_2228" data-name="Group 2228">
            <path id="Nevada-2" data-name="Nevada" d="M316.837,456.852a10.777,10.777,0,0,0,2.634-5.724c.267-3.2-.623-13.255-.089-15.124s2.224-5.516,4.982-3.291,2.4,3.559,4.182,3.025,3.647-1.513,4-3.2,1.779-14.412,2.4-15.569c0,0,5.943-30.306,7.42-39.169s9.52-48.257,10.505-52.853,2.462-12.639,2.462-12.639-30.038-5.745-36.932-7.058c-5.162-.984-53.96-13.227-53.96-13.227s-5.681,25.158-7.033,30.478-8.025,26.961-8.657,30.388c1.714,1.082,11.091,15.781,13.255,19.387S282.932,405,286.629,410.594s21.551,32.552,23.9,36.519S316.837,456.852,316.837,456.852Z" transform="translate(-248.757 -292.019)" fill="#3d71bf"/>
          </g>
        </g>
        <g id="Oregon" transform="translate(10.864 51.54)">
          <g id="Group_2229" data-name="Group 2229">
            <path id="Oregon-2" data-name="Oregon" d="M307.986,174.473c-1.632-1.468-1.632-1.8-3.59-5.548a138.888,138.888,0,0,0-24.251-6.52c-8.812-1.469-20.9-.466-28.736-1.282s-9.84-1.825-13.756-3.62a6.382,6.382,0,0,0-6.854.979s-2.774-.49-5.549-1.142-2.774-.979-3.916-2.611-.979-6.69-1.142-8.812-2.284-4.08-4.9-4.733a10.667,10.667,0,0,1-4.245-2.144c0,1.477-5.088,2.134-5.088,2.134l-.315.911-.1.275-.288.83c-.03.086-.06.171-.091.261l-.065.187-.131.379c-.095.272-.2.564-.3.867l-.046.133-.106.306-.1.273-.339.978-.122.351-.67,1.924-.082.236-.136.389-.109.313-.454,1.3-.095.269-.211.605-.175.5-.05.143-.185.526c-.055.157-.11.314-.165.472l-.027.077c-.079.227-.159.453-.238.681l-.116.328q-.24.685-.483,1.374l-.118.335-.184.522c-.049.139-.1.278-.146.416l-.146.415-.6,1.693-.007.02q-.3.836-.586,1.652c-3.119,8.782-12.311,26.919-14.2,30.366s-7.468,10.587-7.879,12.639-.082,6.155-1.4,10.833,1.19,6.442,1.19,6.442l0,.028c4.91,1.457,29.931,8.884,33.426,9.94,3.878,1.172,29.035,8.115,29.035,8.115s29.342,7.362,44.927,11.127c.2-1.33.441-2.756.725-4.005.815-3.59,4.569-19.583,6.527-25.783a141.678,141.678,0,0,1,5.222-13.381,7.023,7.023,0,0,1-2.121-3.427c-1.306,0-1.959-.163-1.306-2.937s4.9-7.343,4.9-7.343,1.142-.163,3.59-4.9a31.906,31.906,0,0,1,7.343-8.649A49.565,49.565,0,0,0,307.986,174.473Z" transform="translate(-175.134 -139.04)" fill="#3664a8"/>
          </g>
        </g>
        <g id="Group_2230" data-name="Group 2230" transform="translate(748.299 230.62)">
          <path id="Washington_DC" data-name="Washington DC" d="M1300.62,415.769a3.929,3.929,0,0,1,.229,1.347,3.439,3.439,0,0,0,2.155-1.965s-2.05-2.679-2.552-3.357a6.751,6.751,0,0,0-1.939,1.51s-.055.049-.2.219A4.729,4.729,0,0,1,1300.62,415.769Z" transform="translate(-1298.309 -411.794)" fill="#4c8ef0"/>
        </g>
        <g id="Montana" transform="translate(161.753 22.936)">
          <g id="Group_2221" data-name="Group 2221">
            <path id="Montana-2" data-name="Montana" d="M514.774,114.257c-11.558-1.651-49.589-7.265-49.589-7.265-12.989-2.2-51.461-10.155-51.461-10.155-1-.192-2.428-.494-4.165-.88l.158.036c-1.361,6.333-3.374,15.731-3.831,18.019-.705,3.529,1.059,5.117,1.059,5.117s3,4.234,1.411,7.586,1.059,4.94,1.059,4.94a52.811,52.811,0,0,1,6.881,10.762,12.236,12.236,0,0,0,7.057,6.7,20.528,20.528,0,0,1-.529,2.823c-.353,1.235-4.234,11.821-5.293,13.585s-2.47,1.588-.529,4.763,5.469,1.588,8.292-.529c3,4.94,1.764,10.056,3,13.585a17.527,17.527,0,0,0,4.763,7.057c1.588,1.588,1.588,2.823,1.411,5.822s.882,3.705.882,3.705a4.012,4.012,0,0,1,4.94-1.94c3.528,1.059,4.411.529,7.057,0s3.705,1.235,6.881,1.411,3.705-3.176,4.763-3.352.882.882,2.47,3.352c.963,1.5,1.535,1.826,1.837,1.853l.28-.089L465.4,191.09s20.915,3.523,39.188,5.944,50.855,6.165,64.945,6.6c.88-12.549,3.082-38.967,3.963-47.773.614-6.14,2.3-24.369,3.261-34.847C562.5,119.853,526.308,115.905,514.774,114.257Z" transform="translate(-405.719 -95.958)" fill="#3d71bf"/>
          </g>
        </g>
      </g>
    </g>
    <g id="Group_2283" data-name="Group 2283" transform="translate(167.317 96.232)">
      <text id="WA" transform="translate(57.783 12)" fill="#fff" font-size="12" font-family="Montserrat-Medium, Montserrat" font-weight="500"><tspan x="-10.926" y="0">WA</tspan></text>
      <g id="Group_2231" data-name="Group 2231" transform="translate(29.021 68.276)">
        <text id="OR" transform="translate(9 11)" fill="#fff" font-size="11" font-family="Montserrat-Medium, Montserrat" font-weight="500"><tspan x="-8.618" y="0">OR</tspan></text>
      </g>
      <g id="Group_2232" data-name="Group 2232" transform="translate(205.492 39.783)">
        <text id="MT" transform="translate(8 11)" fill="#fff" font-size="11" font-family="Montserrat-Medium, Montserrat" font-weight="500"><tspan x="-8.481" y="0">MT</tspan></text>
      </g>
      <g id="Group_2233" data-name="Group 2233" transform="translate(3.36 224.706)">
        <text id="CA" transform="translate(8 11)" fill="#fff" font-size="11" font-family="Montserrat-Medium, Montserrat" font-weight="500"><tspan x="-7.909" y="0">CA</tspan></text>
      </g>
      <text id="AK" transform="translate(8 416.771)" fill="#fff" font-size="11" font-family="Montserrat-Medium, Montserrat" font-weight="500"><tspan x="-7.981" y="0">AK</tspan></text>
      <g id="Group_2234" data-name="Group 2234" transform="translate(134.4 305.532)">
        <text id="AZ" transform="translate(8 11)" fill="#fff" font-size="11" font-family="Montserrat-Medium, Montserrat" font-weight="500"><tspan x="-7.639" y="0">AZ</tspan></text>
      </g>
      <g id="Group_2235" data-name="Group 2235" transform="translate(214.038 125.235)">
        <text id="WY" transform="translate(10 11)" fill="#fff" font-size="11" font-family="Montserrat-Medium, Montserrat" font-weight="500"><tspan x="-9.636" y="0">WY</tspan></text>
      </g>
      <g id="Group_2236" data-name="Group 2236" transform="translate(65.727 174.892)">
        <text id="NV" transform="translate(8 11)" fill="#fff" font-size="11" font-family="Montserrat-Medium, Montserrat" font-weight="500"><tspan x="-8.344" y="0">NV</tspan></text>
      </g>
      <g id="Group_2237" data-name="Group 2237" transform="translate(119.747 93.174)">
        <text id="ID" transform="translate(6 11)" fill="#fff" font-size="11" font-family="Montserrat-Medium, Montserrat" font-weight="500"><tspan x="-6.248" y="0">ID</tspan></text>
      </g>
      <g id="Group_2238" data-name="Group 2238" transform="translate(149.043 197.063)">
        <text id="UT" transform="translate(7 10)" fill="#fff" font-size="10" font-family="Montserrat-Medium, Montserrat" font-weight="500"><tspan x="-6.825" y="0">UT</tspan></text>
      </g>
      <g id="Group_2239" data-name="Group 2239" transform="translate(238.51 211.477)">
        <text id="CO" transform="translate(9 11)" fill="#fff" font-size="11" font-family="Montserrat-Medium, Montserrat" font-weight="500"><tspan x="-8.514" y="0">CO</tspan></text>
      </g>
      <g id="Group_2240" data-name="Group 2240" transform="translate(216.877 305.532)">
        <text id="NM" transform="translate(10 11)" fill="#fff" font-size="11" font-family="Montserrat-Medium, Montserrat" font-weight="500"><tspan x="-9.719" y="0">NM</tspan></text>
      </g>
      <g id="Group_2241" data-name="Group 2241" transform="translate(345.591 376.343)">
        <text id="TX" transform="translate(7 12)" fill="#fff" font-size="12" font-family="Montserrat-Medium, Montserrat" font-weight="500"><tspan x="-7.38" y="0">TX</tspan></text>
      </g>
      <g id="Group_2242" data-name="Group 2242" transform="translate(374.278 291.765)">
        <text id="OK" transform="translate(9 11)" fill="#fff" font-size="11" font-family="Montserrat-Medium, Montserrat" font-weight="500"><tspan x="-8.575" y="0">OK</tspan></text>
      </g>
      <g id="Group_2243" data-name="Group 2243" transform="translate(332.48 41.064)">
        <text id="ND" transform="translate(9 11)" fill="#fff" font-size="11" font-family="Montserrat-Medium, Montserrat" font-weight="500"><tspan x="-9.009" y="0">ND</tspan></text>
      </g>
      <g id="Group_2244" data-name="Group 2244" transform="translate(331.805 104.968)">
        <text id="SD" transform="translate(8 11)" fill="#fff" font-size="11" font-family="Montserrat-Medium, Montserrat" font-weight="500"><tspan x="-7.958" y="0">SD</tspan></text>
      </g>
      <g id="Group_2245" data-name="Group 2245" transform="translate(334.919 163.659)">
        <text id="NE" transform="translate(8 11)" fill="#fff" font-size="11" font-family="Montserrat-Medium, Montserrat" font-weight="500"><tspan x="-8.151" y="0">NE</tspan></text>
      </g>
      <g id="Group_2246" data-name="Group 2246" transform="translate(359.153 228.58)">
        <text id="KS" transform="translate(7 11)" fill="#fff" font-size="11" font-family="Montserrat-Medium, Montserrat" font-weight="500"><tspan x="-7.287" y="0">KS</tspan></text>
      </g>
      <text id="LA" transform="translate(468.421 387.343)" fill="#fff" font-size="11" font-family="Montserrat-Medium, Montserrat" font-weight="500"><tspan x="-7.309" y="0">LA</tspan></text>
      <g id="Group_2247" data-name="Group 2247" transform="translate(456.081 305.532)">
        <text id="AR" transform="translate(8 11)" fill="#fff" font-size="11" font-family="Montserrat-Medium, Montserrat" font-weight="500"><tspan x="-8.024" y="0">AR</tspan></text>
      </g>
      <g id="Group_2248" data-name="Group 2248" transform="translate(448.328 225.312)">
        <text id="MO" transform="translate(11 12)" fill="#fff" font-size="12" font-family="Montserrat-Medium, Montserrat" font-weight="500"><tspan x="-10.77" y="0">MO</tspan></text>
      </g>
      <g id="Group_2249" data-name="Group 2249" transform="translate(435.67 153.913)">
        <text id="IA" transform="translate(6 11)" fill="#fff" font-size="11" font-family="Montserrat-Medium, Montserrat" font-weight="500"><tspan x="-5.731" y="0">IA</tspan></text>
      </g>
      <g id="Group_2250" data-name="Group 2250" transform="translate(407.081 76.164)">
        <text id="MN" transform="translate(10 11)" fill="#fff" font-size="11" font-family="Montserrat-Medium, Montserrat" font-weight="500"><tspan x="-9.719" y="0">MN</tspan></text>
      </g>
      <g id="Group_2251" data-name="Group 2251" transform="translate(476.625 97.393)">
        <text id="WI" transform="translate(8 11)" fill="#fff" font-size="11" font-family="Montserrat-Medium, Montserrat" font-weight="500"><tspan x="-7.815" y="0">WI</tspan></text>
      </g>
      <g id="Group_2252" data-name="Group 2252" transform="translate(505.824 182.906)">
        <text id="IL" transform="translate(5 11)" fill="#fff" font-size="11" font-family="Montserrat-Medium, Montserrat" font-weight="500"><tspan x="-4.972" y="0">IL</tspan></text>
      </g>
      <g id="Group_2253" data-name="Group 2253" transform="translate(554.023 184.674)">
        <text id="IN" transform="translate(6 11)" fill="#fff" font-size="11" font-family="Montserrat-Medium, Montserrat" font-weight="500"><tspan x="-6.171" y="0">IN</tspan></text>
      </g>
      <g id="Group_2254" data-name="Group 2254" transform="translate(569.518 124.098)">
        <text id="MI" transform="translate(7 11)" fill="#fff" font-size="11" font-family="Montserrat-Medium, Montserrat" font-weight="500"><tspan x="-6.957" y="0">MI</tspan></text>
      </g>
      <g id="Group_2256" data-name="Group 2256" transform="translate(601.963 176.439)">
        <g id="Group_2255" data-name="Group 2255">
          <text id="OH" transform="translate(9 11)" fill="#fff" font-size="11" font-family="Montserrat-Medium, Montserrat" font-weight="500"><tspan x="-9.086" y="0">OH</tspan></text>
        </g>
      </g>
      <text id="HI" transform="translate(197.659 484.127)" fill="#3664a8" font-size="14" font-family="Montserrat-Medium, Montserrat" font-weight="500"><tspan x="0" y="0">HI</tspan></text>
      <g id="Group_2257" data-name="Group 2257" transform="translate(587.994 237.898)">
        <text id="KY" transform="translate(7 11)" fill="#fff" font-size="11" font-family="Montserrat-Medium, Montserrat" font-weight="500"><tspan x="-7.249" y="0">KY</tspan></text>
      </g>
      <text id="TN" transform="translate(563.85 289.754)" fill="#fff" font-size="11" font-family="Montserrat-Medium, Montserrat" font-weight="500"><tspan x="-7.694" y="0">TN</tspan></text>
      <g id="Group_2258" data-name="Group 2258" transform="translate(665.802 428.165)">
        <text id="FL" transform="translate(7 12)" fill="#fff" font-size="12" font-family="Montserrat-Medium, Montserrat" font-weight="500"><tspan x="-7.374" y="0">FL</tspan></text>
      </g>
      <g id="Group_2259" data-name="Group 2259" transform="translate(504.794 343.585)">
        <text id="MS" transform="translate(9 12)" fill="#fff" font-size="12" font-family="Montserrat-Medium, Montserrat" font-weight="500"><tspan x="-9.456" y="0">MS</tspan></text>
      </g>
      <g id="Group_2260" data-name="Group 2260" transform="translate(560.359 340.679)">
        <text id="AL" transform="translate(7 11)" fill="#fff" font-size="11" font-family="Montserrat-Medium, Montserrat" font-weight="500"><tspan x="-7.293" y="0">AL</tspan></text>
      </g>
      <g id="Group_2261" data-name="Group 2261" transform="translate(615.653 337.396)">
        <text id="GA" transform="translate(8 11)" fill="#fff" font-size="11" font-family="Montserrat-Medium, Montserrat" font-weight="500"><tspan x="-8.272" y="0">GA</tspan></text>
      </g>
      <g id="Group_2262" data-name="Group 2262" transform="translate(660.949 308.366)">
        <text id="SC" transform="translate(7 11)" fill="#fff" font-size="11" font-family="Montserrat-Medium, Montserrat" font-weight="500"><tspan x="-7.392" y="0">SC</tspan></text>
      </g>
      <g id="Group_2263" data-name="Group 2263" transform="translate(682.872 266.357)">
        <text id="NC" transform="translate(8 11)" fill="#fff" font-size="11" font-family="Montserrat-Medium, Montserrat" font-weight="500"><tspan x="-8.443" y="0">NC</tspan></text>
      </g>
      <g id="Group_2264" data-name="Group 2264" transform="translate(684.672 227.157)">
        <text id="VA" transform="translate(8 11)" fill="#fff" font-size="11" font-family="Montserrat-Medium, Montserrat" font-weight="500"><tspan x="-7.739" y="0">VA</tspan></text>
      </g>
      <g id="Group_2265" data-name="Group 2265" transform="translate(638.772 211.477)">
        <text id="WV" transform="translate(10 11)" fill="#fff" font-size="11" font-family="Montserrat-Medium, Montserrat" font-weight="500"><tspan x="-10.109" y="0">WV</tspan></text>
      </g>
      <g id="Group_2266" data-name="Group 2266" transform="translate(679.445 156.586)">
        <text id="PA" transform="translate(8 11)" fill="#fff" font-size="11" font-family="Montserrat-Medium, Montserrat" font-weight="500"><tspan x="-7.75" y="0">PA</tspan></text>
      </g>
      <g id="Group_2267" data-name="Group 2267" transform="translate(769.931 190.691)">
        <text id="DE" transform="translate(8 11)" fill="#3664a8" font-size="11" font-family="Montserrat-Medium, Montserrat" font-weight="500"><tspan x="-8.228" y="0">DE</tspan></text>
      </g>
      <g id="Group_2269" data-name="Group 2269" transform="translate(771.784 167.367)">
        <g id="Group_2268" data-name="Group 2268">
          <text id="NJ" transform="translate(7 11)" fill="#3664a8" font-size="11" font-family="Montserrat-Medium, Montserrat" font-weight="500"><tspan x="-7.288" y="0">NJ</tspan></text>
        </g>
      </g>
      <g id="Group_2270" data-name="Group 2270" transform="translate(710.56 101.726)">
        <text id="NY" transform="translate(9 12)" fill="#fff" font-size="12" font-family="Montserrat-Medium, Montserrat" font-weight="500"><tspan x="-8.754" y="0">NY</tspan></text>
      </g>
      <g id="Group_2271" data-name="Group 2271" transform="translate(787.457 28.772)">
        <text id="ME" transform="translate(9 11)" fill="#fff" font-size="11" font-family="Montserrat-Medium, Montserrat" font-weight="500"><tspan x="-8.938" y="0">ME</tspan></text>
      </g>
      <g id="Group_2273" data-name="Group 2273" transform="translate(717.82 22.774)">
        <g id="Group_2272" data-name="Group 2272">
          <text id="VT" transform="translate(7 11)" fill="#3664a8" font-size="11" font-family="Montserrat-Medium, Montserrat" font-weight="500"><tspan x="-7.101" y="0">VT</tspan></text>
        </g>
      </g>
      <g id="Group_2274" data-name="Group 2274" transform="translate(740.194 25.042)">
        <text id="NH" transform="translate(9 11)" fill="#3664a8" font-size="11" font-family="Montserrat-Medium, Montserrat" font-weight="500"><tspan x="-8.932" y="0">NH</tspan></text>
      </g>
      <g id="Group_2276" data-name="Group 2276" transform="translate(805.19 85.507)">
        <g id="Group_2275" data-name="Group 2275">
          <text id="MA" transform="translate(10 12)" fill="#3664a8" font-size="12" font-family="Montserrat-Medium, Montserrat" font-weight="500"><tspan x="-10.122" y="0">MA</tspan></text>
        </g>
      </g>
      <g id="Group_2278" data-name="Group 2278" transform="translate(774.005 213.809)">
        <g id="Group_2277" data-name="Group 2277">
          <text id="MD" transform="translate(11 12)" fill="#3664a8" font-size="12" font-family="Montserrat-Medium, Montserrat" font-weight="500"><tspan x="-10.686" y="0">MD</tspan></text>
        </g>
      </g>
      <g id="Group_2279" data-name="Group 2279" transform="translate(777.774 150.831)">
        <text id="CT" transform="translate(7 11)" fill="#3664a8" font-size="11" font-family="Montserrat-Medium, Montserrat" font-weight="500"><tspan x="-7.161" y="0">CT</tspan></text>
      </g>
      <g id="Group_2280" data-name="Group 2280" transform="translate(814.611 124.513)">
        <text id="RI" transform="translate(6 11)" fill="#3664a8" font-size="11" font-family="Montserrat-Medium, Montserrat" font-weight="500"><tspan x="-5.703" y="0">RI</tspan></text>
      </g>
      <g id="Group_2282" data-name="Group 2282" transform="translate(754.177 228.865)">
        <g id="Group_2281" data-name="Group 2281">
          <text id="DC" transform="translate(9 11)" fill="#3664a8" font-size="11" font-family="Montserrat-Medium, Montserrat" font-weight="500"><tspan x="-8.519" y="0">DC</tspan></text>
        </g>
      </g>
    </g>
    <g id="TEXT" transform="translate(882.386 138.479)">
      <g id="states-2" data-name="states" transform="translate(0 0)">
        <path id="Path_8635" data-name="Path 8635" d="M1350.678,205.659a.656.656,0,0,1-.561-.314c-3.316-5.426-21.948-23.778-22.135-23.963a.656.656,0,1,1,.921-.936c.771.759,18.935,18.65,22.336,24.214a.657.657,0,0,1-.218.9A.65.65,0,0,1,1350.678,205.659Z" transform="translate(-1314.113 -179.594)" fill="#294c80"/>
        <path id="Path_8636" data-name="Path 8636" d="M1386.335,217.047a.657.657,0,0,1-.632-.479c-2.125-7.589-18.552-35.877-18.78-36.4a.657.657,0,1,1,1.2-.524c.934,2.145,16.692,28.9,18.84,36.572a.655.655,0,0,1-.455.809A.637.637,0,0,1,1386.335,217.047Z" transform="translate(-1327.536 -179.247)" fill="#294c80"/>
        <path id="Path_8637" data-name="Path 8637" d="M1365.684,444.911a.657.657,0,0,1-.416-.059c-5.776-2.913-57.305-17.2-57.825-17.342a.656.656,0,1,1,.351-1.265c2.127.589,52.174,14.464,58.065,17.436a.656.656,0,0,1-.175,1.231Z" transform="translate(-1306.962 -264.067)" fill="#294c80"/>
        <path id="Path_8638" data-name="Path 8638" d="M1366.128,413.994a.66.66,0,0,1-.293-.069c-6.62-3.31-26.465-6.086-26.664-6.114a.656.656,0,1,1,.179-1.3c.825.114,20.26,2.832,27.072,6.239a.656.656,0,0,1-.295,1.243Z" transform="translate(-1317.829 -257.296)" fill="#294c80"/>
        <path id="Path_8639" data-name="Path 8639" d="M1374.771,375.79c-.021,0-.042,0-.064,0-.191-.018-19.236-1.865-25.662-2.783a.657.657,0,1,1,.186-1.3c6.4.914,25.411,2.758,25.6,2.777a.656.656,0,0,1-.063,1.31Z" transform="translate(-1321.221 -245.342)" fill="#294c80"/>
        <path id="Path_8640" data-name="Path 8640" d="M1394.124,332.674a.656.656,0,0,1-.513-.246c-2.5-3.122-10.854-22.489-11.208-23.313a.656.656,0,1,1,1.206-.519c.086.2,8.64,20.026,11.028,23.011a.657.657,0,0,1-.512,1.067Z" transform="translate(-1332.852 -223.534)" fill="#294c80"/>
        <path id="Path_8641" data-name="Path 8641" d="M1436.08,309.088a.652.652,0,0,1-.314-.08c-3.282-1.79-24.944-6.988-25.162-7.04a.657.657,0,0,1,.305-1.278c.9.216,22.051,5.292,25.484,7.165a.656.656,0,0,1-.314,1.233Z" transform="translate(-1342.383 -220.949)" fill="#294c80"/>
        <path id="Path_8642" data-name="Path 8642" d="M1396.646,272.946a.657.657,0,0,1-.262-1.259c7.011-3.049,26.343-12.251,26.538-12.345a.657.657,0,0,1,.564,1.186c-.194.092-19.547,9.3-26.579,12.362A.648.648,0,0,1,1396.646,272.946Z" transform="translate(-1337.537 -206.733)" fill="#294c80"/>
      </g>
      <circle id="Ellipse_2" data-name="Ellipse 2" cx="2.279" cy="2.279" r="2.279" transform="translate(30.128 191.987)" fill="#294c80"/>
    </g>
  </g>
</svg>
